<mxfile host="app.diagrams.net" modified="2021-02-15T11:19:11.817Z" agent="5.0 (X11)" etag="WOb8F3HFHuD1GDcaKijc" version="14.3.1" type="github">
  <diagram id="c0WlFFYmnXxaKZzAeMTF" name="Page-1">
    <mxGraphModel dx="1355" dy="804" grid="1" gridSize="10" guides="1" tooltips="1" connect="1" arrows="1" fold="1" page="1" pageScale="1" pageWidth="827" pageHeight="1169" math="0" shadow="0">
      <root>
        <mxCell id="0" />
        <mxCell id="1" parent="0" />
        <mxCell id="BpQJaqF968-kyVBsxe2n-9" value="&lt;b&gt;&lt;font style=&quot;font-size: 15px&quot;&gt;Test Generator&lt;/font&gt;&lt;/b&gt;" style="shape=hexagon;perimeter=hexagonPerimeter2;whiteSpace=wrap;html=1;fixedSize=1;" parent="1" vertex="1">
          <mxGeometry x="390" y="230" width="100" height="80" as="geometry" />
        </mxCell>
        <mxCell id="BpQJaqF968-kyVBsxe2n-10" value="" style="shape=image;verticalLabelPosition=bottom;labelBackgroundColor=#ffffff;verticalAlign=top;aspect=fixed;imageAspect=0;image=data:image/png,iVBORw0KGgoAAAANSUhEUgAAAPcAAADSCAYAAACW7VbWAAAACXBIWXMAAA7EAAAOxAGVKw4bAAAdI0lEQVR4nO2deZwU1bXHvzCyMygKKoqKgASI4gYacSOIcU+Ikrhikk/U+DSCMTF5CTFqjDHLM3F5yVNjXBH34BJjoiYucYmCG4rggoAiKqBGxJFF4P3xq8709HTPdHVV3Vtddb6fT316oLvqnq4+p+695557DhiGYRiGYRiGYRiGYRiGYRiGYRiGYRiGYRiGZzr4FqAC2wG7AbsCQ4GVwGigJ/BU8N4K4DGgGzAHeDp47zUP8hr1S2Z1LU3GPQ7YD5gINAE3Av8G5gIvoZu+AvgY6IFufldgODAM2BA4Jvi/qcD9wD+cfgOjXjBdc0An4AfA2+gGTQC2jHjN/sBXgb8Di4HvAxtEvKZR/5iuOeRsYDVwBrB5Qm30A84E1gA/TqgNI/2YrjliIrAKONVxu6eiIdixjtt1RSOwNTAE2B7YBfgcsA8aho4L/v5c8N72wWe3Cc7NIrnWNddz7qvQsOUE9CR1TTfgD+gH/6aH9muhDzCg6NgUGAhsErxXeF0JPAB8Ft3b0gOgc5ljNjL8rsAy4L3gdRnwOrAEWAAsDF6XJfM1Yyf3uubKuEcBjwJfAB521GZbjAX+jHqymZ5lKTAAGAHsELw2AAcCnyCjKhwvAx/QbISF1zUR2+9Ey4dFH2Bj1LsPQD38AKS0fwHWAS8As4JjYcT248J0LcCFcU8ADgG+hZ8naCW6AZcB04E7HLe9NVpu2RH96DsgI51Fs8E8DyxCHts00QM5knai+UE0Aj0IZiHDehZ4HHjTsWymaw45FLjVtxDtMB31kEmyMzAJuBkp/EK0/HIiMvIszHkbgT2RYd0EvBEcN6HvvmMN1xweXK8aTNcccij6YeuBm4GDY7zexsiZMhUNma8HLkbLJv1jbCftbAUcib77dcDS4PUYoHcV51+G1psHtfO5POuacyaQ/qdoKdOB8RHO3wk4C3gSDbGnIgPfJLpomaEP8mDfALwP/AuYQvlevTuakqxH0WEdK1wzj7rmjVHA1b6FqJFrgZEhPj8C+BnwCppnTkHhikZ17I7u2XPIUXgeWqIDOBkZduE4p8z5edK1VLAKLbHUI93Q+mRbDAHORaGKzyPl3C5hufLAEBT88QIKAV1CS+Nei/wTxWRd11LFVcC+voWIyFjgyjL/fxzwCHAX8BPgMy6Fyhkn0tKwC8dryFsP2da11DEROUuywDTgaOStvQg9Ya8H9vYpVI64g/LGvR45zrKoa6mmnodIpXRHEV+zgcloCGW4YTAKyKlk3J8G72dJ1xKJZYhrB8vZKCg/TYEDUWgCzkdRWBd7liVvnIA84/PR3unC8RLyc0xCxp0lXfsh8t2c71mWVnQiOze6lHWka897HtiOyiMl07UQNMRwjTOB+4AnYrhW2mgC9kChlIYb3kdD73KYrjnmbZLbI+ub/riPjzYqY7oWgkpRP9UyDngReCcGWdLIIrT8MsazHIbpWmiiGvd+wOVxCJJiLkeKZfjFdM0xi4iehyrtbIP2URt+MV0LSZSeezvkBHgrJlmqYTMUk+synngh8mRu67BNoyWudG1L4B60VXUeCoGdCZyEm1WTWHUtinHvhvYku6ABOA1tMDge98tT07ANIT5xpWt90fbSvYLXzdAWzcspv3ElCWLTtSjGvSvK9eyCU9CT25eBfYi+r+EHl7r2D9RzgyLi/gcNlb+Lm6i42HQtinEPRRFDLrgU+CPwkaP2SpmLvq/hB1e69iJaSy9mPRqi90A9edLEpmtRwk9XopDAPDCb7EZG1QOudO1TygfQbIjmwu86kCE2XYvSc49GNz0PfELrvcSGO3zqWgNKJT0DNw/42HQtinH3RPmt8sBHZCOJYb3iU9fGoZx4FzpqLxW65qPw2UZoDnSNh7Yf8NCmIXwV2dsApc+a5rhd77q2guasGK7wZdyNwHLHbRrN+NA1gN+hIn9dHbYZm65FGZavQMOlPNCIP0+94UfXfo7yun0Rt/P92HQtirf8Mdw+0XzSjZRtxcsZrnXtQhQKegjuV0li07UoPXc3lGMsDwwHuvgWIse40rUOwO/R9O9I/Cx/xqZrUXruOcAw4N44BEk5w9D3NfzgStfORoUkbkTz7VKuR6OIJIlN16IY99O4S+97Gkpju3Xw78OA+9FGgl+RfIBDL+CZhNswKuNK1wag37pSfbKZJG/cqdC1wcCrvoVwxHz0wxt+MF3zwJtkv7DdAHTDDb+YroUkaoLETVFGytkxyJJWDkKpfXwFUhjCdM0xY9Eif5Z5GNjHtxCG6ZoPFgP9fAuREFvRvLfX8I/pWgjiyFvegErZZjHI4xTkHc1inux6xHTNMRug8i5ZZL1vAYwWmK6FII6eex0SbAe05zUrTEYlex/1LYjxH0zXQhBnosEmYBO02bze6YtS6/RCebO2LDr6B69bAN9BVTAMtzShufeHvgWJgUYUjNXLtyBtcSww1bcQMXEbsBYpUaVSstO9SZdftgB+iWK+XWXeTZqbUBx77EStOFLMDahG99gYr+mD/VExuq/Qdl3uX7oRxwD2Bm5FQ/H3UC/XRDZ0bTlKn1wXNFG/xep70nIv7TWU77Ufdi5Z/ugCTERx1o8AE8p8Jku6VheMRFVB6pHrgJ2K/r0JsIzWxr0aDacOdi1gDjgU9WQrUc7wndv4bJZ0rW4YT/3NSe9GilXKUbQ07BnIEXkkKj2zDPgt8uAatTECuAhNh+4Gvhri3CzpWt1wIPUzl7gVzX8qcQfNxn1UyXubAKcjZ+IbqIBCaio1ppj9gf9FG0KuR8tBvWu81vepn6Wx+5B3vO4TnRyMnlLeU7W2wd20bdigpa+PgJdpew/8VsC30V7zj1HWzAnUrrRZYmPUI9+I5sr3AacSfadXR7SycTDp78ELuvYx6igeB76GmzJFsdIRCf4pmhelzfHRHznGqh0enQ6cHOL63YGjUa/0PjALuAQ4AugT4jr1Sl/0YLsUeAF5ua9DI584deFq4OvB3+NJp671RN+9oGtzaTnVW4r8C4O9SBeCjugJPRsJ/gZyfKRp6WJ/1BPfS+thdiUaiJakbweUUeY29GPORml9TkSF3+JclnRNA/qNT0TVMF9C5W9vRSOZ7RNqd2/kSS8mrbpW7Dx7jMrxEw8Cn3csY7t0oKVRF47iAm5XoqFqd+fSiUbk5b4i+Pcg4DVPsgxHSz1XoPQ9a4Hn0fLbJPQDp7Em+EAk22Qk6yw0OpuBvstxKA+YC15BtbvLkTZdK+avVDbuG1GCxlTQAeV2fobywi4o+fzRaM4xyZ2IgJRxOa2jga4CvuFYlkqMQFOZi4E/A6/TXGXyPuAylN/reLSxfyRKwRuHAncPrjUyuPbxaBpyGfIhzCuS5S7k3f4a/lYJTgW+185n0qZrBW6itZ18QPWjyKqII7Z8JPKKD6zw/gLK90BTgPOAH6Cn1aIYZCllKxQWewHwo+C1lC1Qr7NlAu3HxUA0yhiInHPD0Jy2+AAN6YaiSMHVwWvhb5DjpktwFP6eS/MwcGnJMRf5C+ahB83rCX2/WliHpgPV7KZKi64VKDykC7yLpmZvJSBXZLoAZ9HsBWyr5y6mA3r6vokU8yjUe0RhAHpiP4zm+2dUcc7ZqKeqZ7ojJ+EgNOTfCdgdZfYYFxz7BP+3U/CZQcE5voautXIO+s3CkBZdA/gFzcFQ/41SGcde/z3OXWEgRbkSOKDo/94FNq/i3DFIAY9DT+VpaNfPXDSP/wQ5Jlag+Uwjzcnqh6F442ODa92AhrGlzpZKDEHLFK5SNRu104BGI1HSco/Bn66BDPr44BrPopiQyWg6FBtxGzfISB5Ewu+IblpYB8G2wG5oqDIUPeFGo5s8A00FPkLrhF3Qk+8Z4EnaHim0xV/Qsk0eiizUM+ejEeLPY7qeD10bGpxbXIPsdpr9G6lkOM3ZKTsiR9XL/sQJxReAv/kWwmiTrmQjX0A5dkMPjNTyezQHKaaeKoG+hLtlHCM8U4Af+hYiQf5OetbnW1CXW9hKOBY417cQRkXeATbzLUSC7I/m76ljMlr7rGe6o/mckT6+DPzJtxAOmInm/6liFtnY9ng7cLhvIYxW/A35RbLOEShEOTWMAp7yLURM5KWHqCcGokCavDAHBVelgtKIm3rnY+ovsCPLTCHcjrx65xzCB+kkxpvUl1e8Pc5FAQ5GOlhA9GiyeqI/sqlIxLHN8POodvKKGK6VFmaQULpZIzQ7o/j2hb4FccgiFC9yQHsfTJrfokQGWcNKCaWDn6J9C3njK8AtvoV4nXTuO47KPVh20zTwAskle0g7DxMhq0zUYfkOaDg+P+J10sg9wCG+hcg5g1HI6Yu+BfHEYuBLtZ4c1bj3Rbmhsshd2C4x34xFuwzzyl0oEYoX/kLM29RSxhtoE77hhz+huIO84jVicgXQw1fjDkisSJtRFe8Cm/oWwjMPAPvVcmKUYfnOKEFdlmOxnwD28C1EThmM8pAt8S2IZ6YBe9VyYhTj3odw2SfqETNuf+yJUgDnnafxMDW5lDqvd1Qla6nvnOL1yhUoD7qhEUzoqj1RlPYA6ifLShRmUKfVGOucPii1kQGPUsPQvFbj7oQyP75a4/n1xKtkoGhbHXIg6Uql7BOnxv1ZmnOlZZ05WOol12yJ4smzmi8tLGbcCWHG7Z7tyMeosFqepLr04C0w426fuSSQMN5okyFomdUQq1Ba5VDbXms17i1oWeAvy7wM/Nu3EDnDeu7WhO5kajXuweQnuGAdUrY81NROCxvir/pqWgk9PazVuPsBb9d4bj3yDjXMeYyaGUC2Ix9rwZlxb4G2o+UFM2639EYlbY1mZqF5d9XUYty90RLFyvY+mCHMuN1ixt2aZSgkt2pqMe7NyF9Nrdlke/db2jDjbs27hKy2Uotx90AOpjzRFeu5XbIRtkJRykeobHHVaZdqMe6u5GtIDvq+XX0LkRM6IX/OOt+CpJBQvbcZd3WYcbtjLSmqtpEyzLgTwIzbHeuADsFhtOQlFANQFWbc1WHG7ZZP0fzSaMkmhNBDS0JgpBEz7vKsQT6JqqjFuPPYi+VxtOITM+7ymHEngBm3W5ZQQ1qhHGDGnQBm3G75EIsrKMcSQiwRmnFXRzcsK4hLLNy3PP0IUaCylnnNCvK3HW8lFg7pEjPu8vQkRKnsWnruJcAXajivnhlOtuqPp53QcdQ5oRGFoVZFLcb9ARqm5mlovjnqTQw3vIU2jxgtSdy4QbG/eQoRNON2y3yUp89oiRl3Aphxu+UFVPvdaMk8QuyWq9W4XyU/OcU6okycy3wLkiPeBHoRIo46B3QGxiF/RFXUatxvk58qHJ/B5n8+sN67JdsAC8OcUKtxzyY/c6JhKDmd4ZZZwAjfQqQIZ8b9Evnpuc24/TATlRUyhPXcCWDG7YcZwBd9C5EiNidk8Fitxr0GWEA+cqkNRCMVwy0vApsGhwE747AKy6XAoa4a80ghM4jhnmnA0b6FSAnzUEdTNVGSNbwK7B/h/Hpgd+ApQgTrG7HyD2CsbyFSwIYoC0uoeuVRjPsRYJ8I59cDewBP+BYix/wd2M+3EClgZ+DZsCdFMe7nUEHAnhGukXbMuP0yH+nZ1r4F8Yxz4wb4J7B3xGukGTNu/7wMHONbCM9sDjzmutFTgDNdN+qIrYEHfAthsCPqvfPMO9SwBTZqz/0IcHzEa6SVL2Lr22ngeRRXHap8bYbYHlhKiJjyAlGN+0WgOyFd9HXCIcA9voUwALgJOMq3EJ4Yh8cR5G+A7/hqPCE6orI2RjoYgubeeeQe4GBfjY8BHvTVeEIcBtzlWwijBbcBo3wL4YEFhEhnXEwcFUceArYlW0tio4CbfQthtOBmsuu8rcRBKPR5jU8hfg/8l08BYqaJEHWQDWe8Rb4yAF0HTPQtxK5oi14WOBy43bcQRlm+B/zatxAOWUNKyio9h9Yk653pwHjfQhhlaUB1xPLAEcjPkApOAy7xLUREemD5ydPOucA3fAvhgNuQgaeC7sDHvoWIyLFIeYz00ggs9y1EwnQmhrDnhhgEKbAG6I+SCc6K8bpJsRHywD4DvBf83y3Aj7FMp2lmNepI9kQRklnkeygiLVXhz0Opn5DNrmif9hrg/1BSgL96lcgIw0qgi28hEmIRMeSPSyLDyJ3AH4kWBLIdsBvywg9FP+RotJb+VPDeCrRTpht6oDwdvBcmz1SxgqwDbgVOJERVB8Mbk4BBwOQE23Clh8V8GS1/HR5FcEjGuEej5Yo9Q543Dm3Mn4jWmW9E1RXmooX8lehGfowcXz1R7zscbSrYEG0N7ApMBe5HmTzaotxumyXAecBl1KdntgHlHeuNFK5LcHQu+ntt8LlVRcfq4LUJ1YNbSvpDcN9E23IXxXhNH3pYzIPI7/NQ1C+SVG6wfwI/BB5t53OdgDOA09EmlMuRI+GtCG33Rw+Yb6GbfRGKfy9nqG3lpXoFOdjStH7fiBJkDEa91oaoaEJfZNB9UaWOJeg3GERr412F0vUMpNnYi43/NWDf4FrLg2stDY45aFTzWnDMw+8o5yDgBFp7lbsjw6wW33pYYBjwE1KeN24/4IZ2PnM2UrgzSK4Wcz8UsrgGOcpKeQ7Nu0uP94BvE094bi1sjHqQM1EiyseRkS1HDsBbgAuA49Awbi+0uSLuyii90cNjL5qHixeg6cuzgTzvBvJdHMi7XyC/K6aih3CBvWi/UykmDXpYoG5iLO4FDizz/xNR73GqW3E4FT3NixXhX7Q06jVISV0qZ2/UA/0E/bgL0cPlfuBXwFfQ0LOvQ5nCsCmS76tI3geQ/AvQ9zkLOACtTiTFp2iacTzSrcK/2yJNegh1FuVZznN+FYqX7exeHEBz0KnI4QdaSikY9r1I5qRpRIkgfotGDu8D16J51niyky9sG/R9fgpcg+bxz6Kh6WHEu9FoAtK14gf1gDY+nzY9hMqdYWq5AnmfR6Gn5L5+xfkPY9HT823kjKnmpnam9jjffVHPPBMNZe9E87sshOuGYSe09/8uNFefgXr2KFl0O6OHY+nUqtxvmlY9/CbhphKpoCfwCXA1/p6SleiHjK3aJYdzqD4bSAfUa12DPK0PoXxzu4YRMAeMRPflYdSzXw18KcT5fZDjsJzf5PSSz04gnXrYDY1ovu1bkLAcCvyJdO/1nk77PfcQtAQyk8orDBsg478TrZlPB76G1Ziulo2ArwN3IOO8A93PSk7N4chbX86w1yPvdIFDkRMwzVSjh6nhUJT7qh64mbZT2TxE5eHeODR/WoM8yVa8Lh6+hO7nWjQ/Lq08chjaXPER5Y377uBzWdLDVDCB9D8pS6m0DHEyLZXmIbR+fB4Korif1p5PI14mouojbyAHXXFsQmdkEJcDi2n+nRaTLT1MBaPQ3KYeuRbNAwv0p3zP8BZar+zvWsCcsxVywM0DrqS1EXRA9d3OR2vXqdkPHZJSPUwNq0if06JautEysqkw/ys9bIOJf/ZAvdwCyseXr0LF8+qRUj1MBVeRnmWGWhmLeoWTqOysWYd5vtPCNsh5th7FDmxNtvQwFUxEjo8scBt68q+gsoFP9yadUYnT0V78G30LEhOR6pPHuXFkFYq+Wh3jNX3RGwW39EBTjP7BsWVw9EdZOE9C69hGeigMx7OQLqs72rDTw6cQZ+M+RjdpJgFTfAthhML0MGY6kY3euhzrSG5brBEvpoclxJFD7UzgPrJZx7oJeWUf9y2I0S6mhwnwNsntg/VNfxSoYqQf08MSoiYjGIcyV7wT8TppZRHKODLGsxxG25geliGqce+Hwv6yzOVIeYz0YnqYALGkYE0526AoKCO9mB6WIUrPvR2a6EdJIlcNfVCWisVo48B8tP/1dNyEuS5E3sptHbRlhMeVHpajH4pzONlBW6H1MIpx74abSKCNULbP0Si0cFvgQhRq+Mc2zouTaej7GunDlR6W43e43a8fSg+jGPeuuIvOeoiWQ5KpyIFyNG6idz7EYsnTiks9LOYIwufmj0ooPYxi3ENRovakeQ3lYSvlLbRO382BDHNxkzzRCI8rPSxmI5RI4keO2w2lh1GMeyWqwOCLAWgO7qJo32yyG/1U7/jQw1+jIflCx+0608NypXhc0ANVQfwYOMRRm/2QQ89IH671cF8UBdcRLU2tx41DDRzq4Qrc7lYZjZ7S64CXUQ4tV/TEigOmFZd62BX5erYP/u3auJ3pYZjiZnHSHSW9ewcllIuzxnhb+Pq+Rtu4/F0uQLnzCrg2bnD0fV333KUcjW7sSQ7aakTFBIz04UoPdwReoGVNcNfGHUoPozjUVuA3H/kjwWuUahXV0ogNy9OKCz1sQCmPLkRJGguVVrcI3u8b/DvpoCpneng7ColLml1RWdpSBqOnpovUtYMctWOEx4Ue9qdyuq3iY6eE5Qilh7XWvgKtLw8n+eWALwNP0pxkvsCo4NXF/t3htByOGenBhR6+h6qtlrIDqgF3BcpfPz9BGSCkHkYx7jmoWPi9Ea5RDU1ofv0YqogJ8FmUnH4OurFJM4zWFUuNdOBCDz+hfA70QmTcsxXej5tQehhlzv00buJqZ6BN+M8Dr6In9HSUU3w0bhLh9UJF74304UoP04AzPRyMjC0PzKftes+GP0wPE+JNsl9SZwDJz6WMaJgeliFqAMimKOvk7IjXSTMHoYAZC2JJL6aHCTAWVV/MMg/jZi3dqB3Tw4RYjALas8hWaOeZkX5MD0uIIy67ARhBNnN7n4KW4LKYCztrmB4mwAbAGteNOmK9bwGMqjE9LCGOnntd0PgOaE06K0xG8euP+hbEqArTwxLirIPVhKorfhLjNX3RB3id8jHthj/6ocSYi1GarUXBa+FYjfRwc7Kxi68RfS/vengsSlyYBW5FivILsluipl65h8obN5pQD56V+tw3AUfWenLUiiPF3IBqI4+N8Zo+2B/4AD0tP0BxwzehQmyGf37dxnvd0O/XRDb0cDlKSJIamnCTkTQJKqWxORJ5YZ8ExjuVyCjHQ5Tvua8p+kwW9dA7I4FrfQtRI9fR9p7c3YBfoRHK5Vhv7po90S7ANbQ27GXI51Mgy3rolfFo51Y9cTfKzVYNnVF6p8dRssYf0ZyVw4iXLYEpaHPIoyiHfSdgJi2N++tlzs26HnrjQFI2X2iDW9EcpxaGAOcjr+YfgNNQRJFRO1sDk9D9XAT8DO3+KuYomg37zjaulRc9dM7BpP/JeTfx3dB9gEtQqODTwFkoasponx2Bs9F+5YXAxcDebXx+A+AVNDdtb0dY3vTQGePR3Cdtzo2eaG6T1BBoF5Qt5nm0Zn4ucDiwcULt1RuboHpbP0VbGZ8DzgF2DnGNk1G112rIqx4mzkjStTyxP3riu3JabAucgJL5vYcM/mKkcBs5ksE3vVE+vEuAWcgBdhvwTWpPQNCVcFGWudLDOCPUquFKVFTgBHSTXdOI5nHLcZPvvBIjgDHA54PXJ4ElaE39meC1niOseqGRyy6oJ+4D7I6WsB4MXl/wJBuYHibG0ajO1yTH7U5GN7PmiJ8EGQZMBH6DFP9DVN30FuA7wDHIOPp4kq8SfYHPoejEM5BDaB6S/0GU5/s40lkhNfN66LrnLmYKKs3yAxQuuCiBNrZCilcot3pBAm0kxSDU8w1EPf2g4OiMDGge6uE/BZYWHcuC1yg9fy9kuMVHHzQE3qVIllVFsjyP5s7PIB9DvZBZPfRp3IX2v4ueZq+hwJAniJaDegAKLjkZzXUvQj1iVuhFs3H1Rd+31Aj7IsMfiQxwFYqVL/z9HJrndQmOzkV/z0AGvJTWD435wWvBoOt56lBMJvXQt3EXMwbVXjoOBf9PQ8O7uSg31ifI+bACzVkaaU5IPwwp/bHBtW4A7qO55FAeaUAOp3IG3ACspbzhrwzeyytjyIgepsm4i9kWhXruiuZrq1GO8kbUs4xEN/hxpKxz0HDwSWCBe3GNjGJ6aBiGYRiGYRiGYRiGYRiGYRiGYRiGYRiGYRiGYRiGYeSF/wdP+mYsAWHJcAAAAABJRU5ErkJggg==;" parent="1" vertex="1">
          <mxGeometry x="20" y="188.37" width="94.1" height="80" as="geometry" />
        </mxCell>
        <mxCell id="BpQJaqF968-kyVBsxe2n-12" value="" style="shape=image;verticalLabelPosition=bottom;labelBackgroundColor=#ffffff;verticalAlign=top;aspect=fixed;imageAspect=0;image=data:image/png,iVBORw0KGgoAAAANSUhEUgAAAPcAAADSCAYAAACW7VbWAAAACXBIWXMAAA7EAAAOxAGVKw4bAAAdI0lEQVR4nO2deZwU1bXHvzCyMygKKoqKgASI4gYacSOIcU+Ikrhikk/U+DSCMTF5CTFqjDHLM3F5yVNjXBH34BJjoiYucYmCG4rggoAiKqBGxJFF4P3xq8709HTPdHVV3Vtddb6fT316oLvqnq4+p+695557DhiGYRiGYRiGYRiGYRiGYRiGYRiGYRiGYRiGZzr4FqAC2wG7AbsCQ4GVwGigJ/BU8N4K4DGgGzAHeDp47zUP8hr1S2Z1LU3GPQ7YD5gINAE3Av8G5gIvoZu+AvgY6IFufldgODAM2BA4Jvi/qcD9wD+cfgOjXjBdc0An4AfA2+gGTQC2jHjN/sBXgb8Di4HvAxtEvKZR/5iuOeRsYDVwBrB5Qm30A84E1gA/TqgNI/2YrjliIrAKONVxu6eiIdixjtt1RSOwNTAE2B7YBfgcsA8aho4L/v5c8N72wWe3Cc7NIrnWNddz7qvQsOUE9CR1TTfgD+gH/6aH9muhDzCg6NgUGAhsErxXeF0JPAB8Ft3b0gOgc5ljNjL8rsAy4L3gdRnwOrAEWAAsDF6XJfM1Yyf3uubKuEcBjwJfAB521GZbjAX+jHqymZ5lKTAAGAHsELw2AAcCnyCjKhwvAx/QbISF1zUR2+9Ey4dFH2Bj1LsPQD38AKS0fwHWAS8As4JjYcT248J0LcCFcU8ADgG+hZ8naCW6AZcB04E7HLe9NVpu2RH96DsgI51Fs8E8DyxCHts00QM5knai+UE0Aj0IZiHDehZ4HHjTsWymaw45FLjVtxDtMB31kEmyMzAJuBkp/EK0/HIiMvIszHkbgT2RYd0EvBEcN6HvvmMN1xweXK8aTNcccij6YeuBm4GDY7zexsiZMhUNma8HLkbLJv1jbCftbAUcib77dcDS4PUYoHcV51+G1psHtfO5POuacyaQ/qdoKdOB8RHO3wk4C3gSDbGnIgPfJLpomaEP8mDfALwP/AuYQvlevTuakqxH0WEdK1wzj7rmjVHA1b6FqJFrgZEhPj8C+BnwCppnTkHhikZ17I7u2XPIUXgeWqIDOBkZduE4p8z5edK1VLAKLbHUI93Q+mRbDAHORaGKzyPl3C5hufLAEBT88QIKAV1CS+Nei/wTxWRd11LFVcC+voWIyFjgyjL/fxzwCHAX8BPgMy6Fyhkn0tKwC8dryFsP2da11DEROUuywDTgaOStvQg9Ya8H9vYpVI64g/LGvR45zrKoa6mmnodIpXRHEV+zgcloCGW4YTAKyKlk3J8G72dJ1xKJZYhrB8vZKCg/TYEDUWgCzkdRWBd7liVvnIA84/PR3unC8RLyc0xCxp0lXfsh8t2c71mWVnQiOze6lHWka897HtiOyiMl07UQNMRwjTOB+4AnYrhW2mgC9kChlIYb3kdD73KYrjnmbZLbI+ub/riPjzYqY7oWgkpRP9UyDngReCcGWdLIIrT8MsazHIbpWmiiGvd+wOVxCJJiLkeKZfjFdM0xi4iehyrtbIP2URt+MV0LSZSeezvkBHgrJlmqYTMUk+synngh8mRu67BNoyWudG1L4B60VXUeCoGdCZyEm1WTWHUtinHvhvYku6ABOA1tMDge98tT07ANIT5xpWt90fbSvYLXzdAWzcspv3ElCWLTtSjGvSvK9eyCU9CT25eBfYi+r+EHl7r2D9RzgyLi/gcNlb+Lm6i42HQtinEPRRFDLrgU+CPwkaP2SpmLvq/hB1e69iJaSy9mPRqi90A9edLEpmtRwk9XopDAPDCb7EZG1QOudO1TygfQbIjmwu86kCE2XYvSc49GNz0PfELrvcSGO3zqWgNKJT0DNw/42HQtinH3RPmt8sBHZCOJYb3iU9fGoZx4FzpqLxW65qPw2UZoDnSNh7Yf8NCmIXwV2dsApc+a5rhd77q2guasGK7wZdyNwHLHbRrN+NA1gN+hIn9dHbYZm65FGZavQMOlPNCIP0+94UfXfo7yun0Rt/P92HQtirf8Mdw+0XzSjZRtxcsZrnXtQhQKegjuV0li07UoPXc3lGMsDwwHuvgWIse40rUOwO/R9O9I/Cx/xqZrUXruOcAw4N44BEk5w9D3NfzgStfORoUkbkTz7VKuR6OIJIlN16IY99O4S+97Gkpju3Xw78OA+9FGgl+RfIBDL+CZhNswKuNK1wag37pSfbKZJG/cqdC1wcCrvoVwxHz0wxt+MF3zwJtkv7DdAHTDDb+YroUkaoLETVFGytkxyJJWDkKpfXwFUhjCdM0xY9Eif5Z5GNjHtxCG6ZoPFgP9fAuREFvRvLfX8I/pWgjiyFvegErZZjHI4xTkHc1inux6xHTNMRug8i5ZZL1vAYwWmK6FII6eex0SbAe05zUrTEYlex/1LYjxH0zXQhBnosEmYBO02bze6YtS6/RCebO2LDr6B69bAN9BVTAMtzShufeHvgWJgUYUjNXLtyBtcSww1bcQMXEbsBYpUaVSstO9SZdftgB+iWK+XWXeTZqbUBx77EStOFLMDahG99gYr+mD/VExuq/Qdl3uX7oRxwD2Bm5FQ/H3UC/XRDZ0bTlKn1wXNFG/xep70nIv7TWU77Ufdi5Z/ugCTERx1o8AE8p8Jku6VheMRFVB6pHrgJ2K/r0JsIzWxr0aDacOdi1gDjgU9WQrUc7wndv4bJZ0rW4YT/3NSe9GilXKUbQ07BnIEXkkKj2zDPgt8uAatTECuAhNh+4Gvhri3CzpWt1wIPUzl7gVzX8qcQfNxn1UyXubAKcjZ+IbqIBCaio1ppj9gf9FG0KuR8tBvWu81vepn6Wx+5B3vO4TnRyMnlLeU7W2wd20bdigpa+PgJdpew/8VsC30V7zj1HWzAnUrrRZYmPUI9+I5sr3AacSfadXR7SycTDp78ELuvYx6igeB76GmzJFsdIRCf4pmhelzfHRHznGqh0enQ6cHOL63YGjUa/0PjALuAQ4AugT4jr1Sl/0YLsUeAF5ua9DI584deFq4OvB3+NJp671RN+9oGtzaTnVW4r8C4O9SBeCjugJPRsJ/gZyfKRp6WJ/1BPfS+thdiUaiJakbweUUeY29GPORml9TkSF3+JclnRNA/qNT0TVMF9C5W9vRSOZ7RNqd2/kSS8mrbpW7Dx7jMrxEw8Cn3csY7t0oKVRF47iAm5XoqFqd+fSiUbk5b4i+Pcg4DVPsgxHSz1XoPQ9a4Hn0fLbJPQDp7Em+EAk22Qk6yw0OpuBvstxKA+YC15BtbvLkTZdK+avVDbuG1GCxlTQAeV2fobywi4o+fzRaM4xyZ2IgJRxOa2jga4CvuFYlkqMQFOZi4E/A6/TXGXyPuAylN/reLSxfyRKwRuHAncPrjUyuPbxaBpyGfIhzCuS5S7k3f4a/lYJTgW+185n0qZrBW6itZ18QPWjyKqII7Z8JPKKD6zw/gLK90BTgPOAH6Cn1aIYZCllKxQWewHwo+C1lC1Qr7NlAu3HxUA0yhiInHPD0Jy2+AAN6YaiSMHVwWvhb5DjpktwFP6eS/MwcGnJMRf5C+ahB83rCX2/WliHpgPV7KZKi64VKDykC7yLpmZvJSBXZLoAZ9HsBWyr5y6mA3r6vokU8yjUe0RhAHpiP4zm+2dUcc7ZqKeqZ7ojJ+EgNOTfCdgdZfYYFxz7BP+3U/CZQcE5voautXIO+s3CkBZdA/gFzcFQ/41SGcde/z3OXWEgRbkSOKDo/94FNq/i3DFIAY9DT+VpaNfPXDSP/wQ5Jlag+Uwjzcnqh6F442ODa92AhrGlzpZKDEHLFK5SNRu104BGI1HSco/Bn66BDPr44BrPopiQyWg6FBtxGzfISB5Ewu+IblpYB8G2wG5oqDIUPeFGo5s8A00FPkLrhF3Qk+8Z4EnaHim0xV/Qsk0eiizUM+ejEeLPY7qeD10bGpxbXIPsdpr9G6lkOM3ZKTsiR9XL/sQJxReAv/kWwmiTrmQjX0A5dkMPjNTyezQHKaaeKoG+hLtlHCM8U4Af+hYiQf5OetbnW1CXW9hKOBY417cQRkXeATbzLUSC7I/m76ljMlr7rGe6o/mckT6+DPzJtxAOmInm/6liFtnY9ng7cLhvIYxW/A35RbLOEShEOTWMAp7yLURM5KWHqCcGokCavDAHBVelgtKIm3rnY+ovsCPLTCHcjrx65xzCB+kkxpvUl1e8Pc5FAQ5GOlhA9GiyeqI/sqlIxLHN8POodvKKGK6VFmaQULpZIzQ7o/j2hb4FccgiFC9yQHsfTJrfokQGWcNKCaWDn6J9C3njK8AtvoV4nXTuO47KPVh20zTwAskle0g7DxMhq0zUYfkOaDg+P+J10sg9wCG+hcg5g1HI6Yu+BfHEYuBLtZ4c1bj3Rbmhsshd2C4x34xFuwzzyl0oEYoX/kLM29RSxhtoE77hhz+huIO84jVicgXQw1fjDkisSJtRFe8Cm/oWwjMPAPvVcmKUYfnOKEFdlmOxnwD28C1EThmM8pAt8S2IZ6YBe9VyYhTj3odw2SfqETNuf+yJUgDnnafxMDW5lDqvd1Qla6nvnOL1yhUoD7qhEUzoqj1RlPYA6ifLShRmUKfVGOucPii1kQGPUsPQvFbj7oQyP75a4/n1xKtkoGhbHXIg6Uql7BOnxv1ZmnOlZZ05WOol12yJ4smzmi8tLGbcCWHG7Z7tyMeosFqepLr04C0w426fuSSQMN5okyFomdUQq1Ba5VDbXms17i1oWeAvy7wM/Nu3EDnDeu7WhO5kajXuweQnuGAdUrY81NROCxvir/pqWgk9PazVuPsBb9d4bj3yDjXMeYyaGUC2Ix9rwZlxb4G2o+UFM2639EYlbY1mZqF5d9XUYty90RLFyvY+mCHMuN1ixt2aZSgkt2pqMe7NyF9Nrdlke/db2jDjbs27hKy2Uotx90AOpjzRFeu5XbIRtkJRykeobHHVaZdqMe6u5GtIDvq+XX0LkRM6IX/OOt+CpJBQvbcZd3WYcbtjLSmqtpEyzLgTwIzbHeuADsFhtOQlFANQFWbc1WHG7ZZP0fzSaMkmhNBDS0JgpBEz7vKsQT6JqqjFuPPYi+VxtOITM+7ymHEngBm3W5ZQQ1qhHGDGnQBm3G75EIsrKMcSQiwRmnFXRzcsK4hLLNy3PP0IUaCylnnNCvK3HW8lFg7pEjPu8vQkRKnsWnruJcAXajivnhlOtuqPp53QcdQ5oRGFoVZFLcb9ARqm5mlovjnqTQw3vIU2jxgtSdy4QbG/eQoRNON2y3yUp89oiRl3Aphxu+UFVPvdaMk8QuyWq9W4XyU/OcU6okycy3wLkiPeBHoRIo46B3QGxiF/RFXUatxvk58qHJ/B5n8+sN67JdsAC8OcUKtxzyY/c6JhKDmd4ZZZwAjfQqQIZ8b9Evnpuc24/TATlRUyhPXcCWDG7YcZwBd9C5EiNidk8Fitxr0GWEA+cqkNRCMVwy0vApsGhwE747AKy6XAoa4a80ghM4jhnmnA0b6FSAnzUEdTNVGSNbwK7B/h/Hpgd+ApQgTrG7HyD2CsbyFSwIYoC0uoeuVRjPsRYJ8I59cDewBP+BYix/wd2M+3EClgZ+DZsCdFMe7nUEHAnhGukXbMuP0yH+nZ1r4F8Yxz4wb4J7B3xGukGTNu/7wMHONbCM9sDjzmutFTgDNdN+qIrYEHfAthsCPqvfPMO9SwBTZqz/0IcHzEa6SVL2Lr22ngeRRXHap8bYbYHlhKiJjyAlGN+0WgOyFd9HXCIcA9voUwALgJOMq3EJ4Yh8cR5G+A7/hqPCE6orI2RjoYgubeeeQe4GBfjY8BHvTVeEIcBtzlWwijBbcBo3wL4YEFhEhnXEwcFUceArYlW0tio4CbfQthtOBmsuu8rcRBKPR5jU8hfg/8l08BYqaJEHWQDWe8Rb4yAF0HTPQtxK5oi14WOBy43bcQRlm+B/zatxAOWUNKyio9h9Yk653pwHjfQhhlaUB1xPLAEcjPkApOAy7xLUREemD5ydPOucA3fAvhgNuQgaeC7sDHvoWIyLFIeYz00ggs9y1EwnQmhrDnhhgEKbAG6I+SCc6K8bpJsRHywD4DvBf83y3Aj7FMp2lmNepI9kQRklnkeygiLVXhz0Opn5DNrmif9hrg/1BSgL96lcgIw0qgi28hEmIRMeSPSyLDyJ3AH4kWBLIdsBvywg9FP+RotJb+VPDeCrRTpht6oDwdvBcmz1SxgqwDbgVOJERVB8Mbk4BBwOQE23Clh8V8GS1/HR5FcEjGuEej5Yo9Q543Dm3Mn4jWmW9E1RXmooX8lehGfowcXz1R7zscbSrYEG0N7ApMBe5HmTzaotxumyXAecBl1KdntgHlHeuNFK5LcHQu+ntt8LlVRcfq4LUJ1YNbSvpDcN9E23IXxXhNH3pYzIPI7/NQ1C+SVG6wfwI/BB5t53OdgDOA09EmlMuRI+GtCG33Rw+Yb6GbfRGKfy9nqG3lpXoFOdjStH7fiBJkDEa91oaoaEJfZNB9UaWOJeg3GERr412F0vUMpNnYi43/NWDf4FrLg2stDY45aFTzWnDMw+8o5yDgBFp7lbsjw6wW33pYYBjwE1KeN24/4IZ2PnM2UrgzSK4Wcz8UsrgGOcpKeQ7Nu0uP94BvE094bi1sjHqQM1EiyseRkS1HDsBbgAuA49Awbi+0uSLuyii90cNjL5qHixeg6cuzgTzvBvJdHMi7XyC/K6aih3CBvWi/UykmDXpYoG5iLO4FDizz/xNR73GqW3E4FT3NixXhX7Q06jVISV0qZ2/UA/0E/bgL0cPlfuBXwFfQ0LOvQ5nCsCmS76tI3geQ/AvQ9zkLOACtTiTFp2iacTzSrcK/2yJNegh1FuVZznN+FYqX7exeHEBz0KnI4QdaSikY9r1I5qRpRIkgfotGDu8D16J51niyky9sG/R9fgpcg+bxz6Kh6WHEu9FoAtK14gf1gDY+nzY9hMqdYWq5AnmfR6Gn5L5+xfkPY9HT823kjKnmpnam9jjffVHPPBMNZe9E87sshOuGYSe09/8uNFefgXr2KFl0O6OHY+nUqtxvmlY9/CbhphKpoCfwCXA1/p6SleiHjK3aJYdzqD4bSAfUa12DPK0PoXxzu4YRMAeMRPflYdSzXw18KcT5fZDjsJzf5PSSz04gnXrYDY1ovu1bkLAcCvyJdO/1nk77PfcQtAQyk8orDBsg478TrZlPB76G1Ziulo2ArwN3IOO8A93PSk7N4chbX86w1yPvdIFDkRMwzVSjh6nhUJT7qh64mbZT2TxE5eHeODR/WoM8yVa8Lh6+hO7nWjQ/Lq08chjaXPER5Y377uBzWdLDVDCB9D8pS6m0DHEyLZXmIbR+fB4Korif1p5PI14mouojbyAHXXFsQmdkEJcDi2n+nRaTLT1MBaPQ3KYeuRbNAwv0p3zP8BZar+zvWsCcsxVywM0DrqS1EXRA9d3OR2vXqdkPHZJSPUwNq0if06JautEysqkw/ys9bIOJf/ZAvdwCyseXr0LF8+qRUj1MBVeRnmWGWhmLeoWTqOysWYd5vtPCNsh5th7FDmxNtvQwFUxEjo8scBt68q+gsoFP9yadUYnT0V78G30LEhOR6pPHuXFkFYq+Wh3jNX3RGwW39EBTjP7BsWVw9EdZOE9C69hGeigMx7OQLqs72rDTw6cQZ+M+RjdpJgFTfAthhML0MGY6kY3euhzrSG5brBEvpoclxJFD7UzgPrJZx7oJeWUf9y2I0S6mhwnwNsntg/VNfxSoYqQf08MSoiYjGIcyV7wT8TppZRHKODLGsxxG25geliGqce+Hwv6yzOVIeYz0YnqYALGkYE0526AoKCO9mB6WIUrPvR2a6EdJIlcNfVCWisVo48B8tP/1dNyEuS5E3sptHbRlhMeVHpajH4pzONlBW6H1MIpx74abSKCNULbP0Si0cFvgQhRq+Mc2zouTaej7GunDlR6W43e43a8fSg+jGPeuuIvOeoiWQ5KpyIFyNG6idz7EYsnTiks9LOYIwufmj0ooPYxi3ENRovakeQ3lYSvlLbRO382BDHNxkzzRCI8rPSxmI5RI4keO2w2lh1GMeyWqwOCLAWgO7qJo32yyG/1U7/jQw1+jIflCx+0608NypXhc0ANVQfwYOMRRm/2QQ89IH671cF8UBdcRLU2tx41DDRzq4Qrc7lYZjZ7S64CXUQ4tV/TEigOmFZd62BX5erYP/u3auJ3pYZjiZnHSHSW9ewcllIuzxnhb+Pq+Rtu4/F0uQLnzCrg2bnD0fV333KUcjW7sSQ7aakTFBIz04UoPdwReoGVNcNfGHUoPozjUVuA3H/kjwWuUahXV0ogNy9OKCz1sQCmPLkRJGguVVrcI3u8b/DvpoCpneng7ColLml1RWdpSBqOnpovUtYMctWOEx4Ue9qdyuq3iY6eE5Qilh7XWvgKtLw8n+eWALwNP0pxkvsCo4NXF/t3htByOGenBhR6+h6qtlrIDqgF3BcpfPz9BGSCkHkYx7jmoWPi9Ea5RDU1ofv0YqogJ8FmUnH4OurFJM4zWFUuNdOBCDz+hfA70QmTcsxXej5tQehhlzv00buJqZ6BN+M8Dr6In9HSUU3w0bhLh9UJF74304UoP04AzPRyMjC0PzKftes+GP0wPE+JNsl9SZwDJz6WMaJgeliFqAMimKOvk7IjXSTMHoYAZC2JJL6aHCTAWVV/MMg/jZi3dqB3Tw4RYjALas8hWaOeZkX5MD0uIIy67ARhBNnN7n4KW4LKYCztrmB4mwAbAGteNOmK9bwGMqjE9LCGOnntd0PgOaE06K0xG8euP+hbEqArTwxLirIPVhKorfhLjNX3RB3id8jHthj/6ocSYi1GarUXBa+FYjfRwc7Kxi68RfS/vengsSlyYBW5FivILsluipl65h8obN5pQD56V+tw3AUfWenLUiiPF3IBqI4+N8Zo+2B/4AD0tP0BxwzehQmyGf37dxnvd0O/XRDb0cDlKSJIamnCTkTQJKqWxORJ5YZ8ExjuVyCjHQ5Tvua8p+kwW9dA7I4FrfQtRI9fR9p7c3YBfoRHK5Vhv7po90S7ANbQ27GXI51Mgy3rolfFo51Y9cTfKzVYNnVF6p8dRssYf0ZyVw4iXLYEpaHPIoyiHfSdgJi2N++tlzs26HnrjQFI2X2iDW9EcpxaGAOcjr+YfgNNQRJFRO1sDk9D9XAT8DO3+KuYomg37zjaulRc9dM7BpP/JeTfx3dB9gEtQqODTwFkoasponx2Bs9F+5YXAxcDebXx+A+AVNDdtb0dY3vTQGePR3Cdtzo2eaG6T1BBoF5Qt5nm0Zn4ucDiwcULt1RuboHpbP0VbGZ8DzgF2DnGNk1G112rIqx4mzkjStTyxP3riu3JabAucgJL5vYcM/mKkcBs5ksE3vVE+vEuAWcgBdhvwTWpPQNCVcFGWudLDOCPUquFKVFTgBHSTXdOI5nHLcZPvvBIjgDHA54PXJ4ElaE39meC1niOseqGRyy6oJ+4D7I6WsB4MXl/wJBuYHibG0ajO1yTH7U5GN7PmiJ8EGQZMBH6DFP9DVN30FuA7wDHIOPp4kq8SfYHPoejEM5BDaB6S/0GU5/s40lkhNfN66LrnLmYKKs3yAxQuuCiBNrZCilcot3pBAm0kxSDU8w1EPf2g4OiMDGge6uE/BZYWHcuC1yg9fy9kuMVHHzQE3qVIllVFsjyP5s7PIB9DvZBZPfRp3IX2v4ueZq+hwJAniJaDegAKLjkZzXUvQj1iVuhFs3H1Rd+31Aj7IsMfiQxwFYqVL/z9HJrndQmOzkV/z0AGvJTWD435wWvBoOt56lBMJvXQt3EXMwbVXjoOBf9PQ8O7uSg31ifI+bACzVkaaU5IPwwp/bHBtW4A7qO55FAeaUAOp3IG3ACspbzhrwzeyytjyIgepsm4i9kWhXruiuZrq1GO8kbUs4xEN/hxpKxz0HDwSWCBe3GNjGJ6aBiGYRiGYRiGYRiGYRiGYRiGYRiGYRiGYRiGYRiGYeSF/wdP+mYsAWHJcAAAAABJRU5ErkJggg==;" parent="1" vertex="1">
          <mxGeometry x="20" y="273.37" width="94.1" height="80" as="geometry" />
        </mxCell>
        <mxCell id="BpQJaqF968-kyVBsxe2n-13" value="" style="shape=image;verticalLabelPosition=bottom;labelBackgroundColor=#ffffff;verticalAlign=top;aspect=fixed;imageAspect=0;image=data:image/png,iVBORw0KGgoAAAANSUhEUgAAAPcAAADSCAYAAACW7VbWAAAACXBIWXMAAA7EAAAOxAGVKw4bAAAdI0lEQVR4nO2deZwU1bXHvzCyMygKKoqKgASI4gYacSOIcU+Ikrhikk/U+DSCMTF5CTFqjDHLM3F5yVNjXBH34BJjoiYucYmCG4rggoAiKqBGxJFF4P3xq8709HTPdHVV3Vtddb6fT316oLvqnq4+p+695557DhiGYRiGYRiGYRiGYRiGYRiGYRiGYRiGYRiGZzr4FqAC2wG7AbsCQ4GVwGigJ/BU8N4K4DGgGzAHeDp47zUP8hr1S2Z1LU3GPQ7YD5gINAE3Av8G5gIvoZu+AvgY6IFufldgODAM2BA4Jvi/qcD9wD+cfgOjXjBdc0An4AfA2+gGTQC2jHjN/sBXgb8Di4HvAxtEvKZR/5iuOeRsYDVwBrB5Qm30A84E1gA/TqgNI/2YrjliIrAKONVxu6eiIdixjtt1RSOwNTAE2B7YBfgcsA8aho4L/v5c8N72wWe3Cc7NIrnWNddz7qvQsOUE9CR1TTfgD+gH/6aH9muhDzCg6NgUGAhsErxXeF0JPAB8Ft3b0gOgc5ljNjL8rsAy4L3gdRnwOrAEWAAsDF6XJfM1Yyf3uubKuEcBjwJfAB521GZbjAX+jHqymZ5lKTAAGAHsELw2AAcCnyCjKhwvAx/QbISF1zUR2+9Ey4dFH2Bj1LsPQD38AKS0fwHWAS8As4JjYcT248J0LcCFcU8ADgG+hZ8naCW6AZcB04E7HLe9NVpu2RH96DsgI51Fs8E8DyxCHts00QM5knai+UE0Aj0IZiHDehZ4HHjTsWymaw45FLjVtxDtMB31kEmyMzAJuBkp/EK0/HIiMvIszHkbgT2RYd0EvBEcN6HvvmMN1xweXK8aTNcccij6YeuBm4GDY7zexsiZMhUNma8HLkbLJv1jbCftbAUcib77dcDS4PUYoHcV51+G1psHtfO5POuacyaQ/qdoKdOB8RHO3wk4C3gSDbGnIgPfJLpomaEP8mDfALwP/AuYQvlevTuakqxH0WEdK1wzj7rmjVHA1b6FqJFrgZEhPj8C+BnwCppnTkHhikZ17I7u2XPIUXgeWqIDOBkZduE4p8z5edK1VLAKLbHUI93Q+mRbDAHORaGKzyPl3C5hufLAEBT88QIKAV1CS+Nei/wTxWRd11LFVcC+voWIyFjgyjL/fxzwCHAX8BPgMy6Fyhkn0tKwC8dryFsP2da11DEROUuywDTgaOStvQg9Ya8H9vYpVI64g/LGvR45zrKoa6mmnodIpXRHEV+zgcloCGW4YTAKyKlk3J8G72dJ1xKJZYhrB8vZKCg/TYEDUWgCzkdRWBd7liVvnIA84/PR3unC8RLyc0xCxp0lXfsh8t2c71mWVnQiOze6lHWka897HtiOyiMl07UQNMRwjTOB+4AnYrhW2mgC9kChlIYb3kdD73KYrjnmbZLbI+ub/riPjzYqY7oWgkpRP9UyDngReCcGWdLIIrT8MsazHIbpWmiiGvd+wOVxCJJiLkeKZfjFdM0xi4iehyrtbIP2URt+MV0LSZSeezvkBHgrJlmqYTMUk+synngh8mRu67BNoyWudG1L4B60VXUeCoGdCZyEm1WTWHUtinHvhvYku6ABOA1tMDge98tT07ANIT5xpWt90fbSvYLXzdAWzcspv3ElCWLTtSjGvSvK9eyCU9CT25eBfYi+r+EHl7r2D9RzgyLi/gcNlb+Lm6i42HQtinEPRRFDLrgU+CPwkaP2SpmLvq/hB1e69iJaSy9mPRqi90A9edLEpmtRwk9XopDAPDCb7EZG1QOudO1TygfQbIjmwu86kCE2XYvSc49GNz0PfELrvcSGO3zqWgNKJT0DNw/42HQtinH3RPmt8sBHZCOJYb3iU9fGoZx4FzpqLxW65qPw2UZoDnSNh7Yf8NCmIXwV2dsApc+a5rhd77q2guasGK7wZdyNwHLHbRrN+NA1gN+hIn9dHbYZm65FGZavQMOlPNCIP0+94UfXfo7yun0Rt/P92HQtirf8Mdw+0XzSjZRtxcsZrnXtQhQKegjuV0li07UoPXc3lGMsDwwHuvgWIse40rUOwO/R9O9I/Cx/xqZrUXruOcAw4N44BEk5w9D3NfzgStfORoUkbkTz7VKuR6OIJIlN16IY99O4S+97Gkpju3Xw78OA+9FGgl+RfIBDL+CZhNswKuNK1wag37pSfbKZJG/cqdC1wcCrvoVwxHz0wxt+MF3zwJtkv7DdAHTDDb+YroUkaoLETVFGytkxyJJWDkKpfXwFUhjCdM0xY9Eif5Z5GNjHtxCG6ZoPFgP9fAuREFvRvLfX8I/pWgjiyFvegErZZjHI4xTkHc1inux6xHTNMRug8i5ZZL1vAYwWmK6FII6eex0SbAe05zUrTEYlex/1LYjxH0zXQhBnosEmYBO02bze6YtS6/RCebO2LDr6B69bAN9BVTAMtzShufeHvgWJgUYUjNXLtyBtcSww1bcQMXEbsBYpUaVSstO9SZdftgB+iWK+XWXeTZqbUBx77EStOFLMDahG99gYr+mD/VExuq/Qdl3uX7oRxwD2Bm5FQ/H3UC/XRDZ0bTlKn1wXNFG/xep70nIv7TWU77Ufdi5Z/ugCTERx1o8AE8p8Jku6VheMRFVB6pHrgJ2K/r0JsIzWxr0aDacOdi1gDjgU9WQrUc7wndv4bJZ0rW4YT/3NSe9GilXKUbQ07BnIEXkkKj2zDPgt8uAatTECuAhNh+4Gvhri3CzpWt1wIPUzl7gVzX8qcQfNxn1UyXubAKcjZ+IbqIBCaio1ppj9gf9FG0KuR8tBvWu81vepn6Wx+5B3vO4TnRyMnlLeU7W2wd20bdigpa+PgJdpew/8VsC30V7zj1HWzAnUrrRZYmPUI9+I5sr3AacSfadXR7SycTDp78ELuvYx6igeB76GmzJFsdIRCf4pmhelzfHRHznGqh0enQ6cHOL63YGjUa/0PjALuAQ4AugT4jr1Sl/0YLsUeAF5ua9DI584deFq4OvB3+NJp671RN+9oGtzaTnVW4r8C4O9SBeCjugJPRsJ/gZyfKRp6WJ/1BPfS+thdiUaiJakbweUUeY29GPORml9TkSF3+JclnRNA/qNT0TVMF9C5W9vRSOZ7RNqd2/kSS8mrbpW7Dx7jMrxEw8Cn3csY7t0oKVRF47iAm5XoqFqd+fSiUbk5b4i+Pcg4DVPsgxHSz1XoPQ9a4Hn0fLbJPQDp7Em+EAk22Qk6yw0OpuBvstxKA+YC15BtbvLkTZdK+avVDbuG1GCxlTQAeV2fobywi4o+fzRaM4xyZ2IgJRxOa2jga4CvuFYlkqMQFOZi4E/A6/TXGXyPuAylN/reLSxfyRKwRuHAncPrjUyuPbxaBpyGfIhzCuS5S7k3f4a/lYJTgW+185n0qZrBW6itZ18QPWjyKqII7Z8JPKKD6zw/gLK90BTgPOAH6Cn1aIYZCllKxQWewHwo+C1lC1Qr7NlAu3HxUA0yhiInHPD0Jy2+AAN6YaiSMHVwWvhb5DjpktwFP6eS/MwcGnJMRf5C+ahB83rCX2/WliHpgPV7KZKi64VKDykC7yLpmZvJSBXZLoAZ9HsBWyr5y6mA3r6vokU8yjUe0RhAHpiP4zm+2dUcc7ZqKeqZ7ojJ+EgNOTfCdgdZfYYFxz7BP+3U/CZQcE5voautXIO+s3CkBZdA/gFzcFQ/41SGcde/z3OXWEgRbkSOKDo/94FNq/i3DFIAY9DT+VpaNfPXDSP/wQ5Jlag+Uwjzcnqh6F442ODa92AhrGlzpZKDEHLFK5SNRu104BGI1HSco/Bn66BDPr44BrPopiQyWg6FBtxGzfISB5Ewu+IblpYB8G2wG5oqDIUPeFGo5s8A00FPkLrhF3Qk+8Z4EnaHim0xV/Qsk0eiizUM+ejEeLPY7qeD10bGpxbXIPsdpr9G6lkOM3ZKTsiR9XL/sQJxReAv/kWwmiTrmQjX0A5dkMPjNTyezQHKaaeKoG+hLtlHCM8U4Af+hYiQf5OetbnW1CXW9hKOBY417cQRkXeATbzLUSC7I/m76ljMlr7rGe6o/mckT6+DPzJtxAOmInm/6liFtnY9ng7cLhvIYxW/A35RbLOEShEOTWMAp7yLURM5KWHqCcGokCavDAHBVelgtKIm3rnY+ovsCPLTCHcjrx65xzCB+kkxpvUl1e8Pc5FAQ5GOlhA9GiyeqI/sqlIxLHN8POodvKKGK6VFmaQULpZIzQ7o/j2hb4FccgiFC9yQHsfTJrfokQGWcNKCaWDn6J9C3njK8AtvoV4nXTuO47KPVh20zTwAskle0g7DxMhq0zUYfkOaDg+P+J10sg9wCG+hcg5g1HI6Yu+BfHEYuBLtZ4c1bj3Rbmhsshd2C4x34xFuwzzyl0oEYoX/kLM29RSxhtoE77hhz+huIO84jVicgXQw1fjDkisSJtRFe8Cm/oWwjMPAPvVcmKUYfnOKEFdlmOxnwD28C1EThmM8pAt8S2IZ6YBe9VyYhTj3odw2SfqETNuf+yJUgDnnafxMDW5lDqvd1Qla6nvnOL1yhUoD7qhEUzoqj1RlPYA6ifLShRmUKfVGOucPii1kQGPUsPQvFbj7oQyP75a4/n1xKtkoGhbHXIg6Uql7BOnxv1ZmnOlZZ05WOol12yJ4smzmi8tLGbcCWHG7Z7tyMeosFqepLr04C0w426fuSSQMN5okyFomdUQq1Ba5VDbXms17i1oWeAvy7wM/Nu3EDnDeu7WhO5kajXuweQnuGAdUrY81NROCxvir/pqWgk9PazVuPsBb9d4bj3yDjXMeYyaGUC2Ix9rwZlxb4G2o+UFM2639EYlbY1mZqF5d9XUYty90RLFyvY+mCHMuN1ixt2aZSgkt2pqMe7NyF9Nrdlke/db2jDjbs27hKy2Uotx90AOpjzRFeu5XbIRtkJRykeobHHVaZdqMe6u5GtIDvq+XX0LkRM6IX/OOt+CpJBQvbcZd3WYcbtjLSmqtpEyzLgTwIzbHeuADsFhtOQlFANQFWbc1WHG7ZZP0fzSaMkmhNBDS0JgpBEz7vKsQT6JqqjFuPPYi+VxtOITM+7ymHEngBm3W5ZQQ1qhHGDGnQBm3G75EIsrKMcSQiwRmnFXRzcsK4hLLNy3PP0IUaCylnnNCvK3HW8lFg7pEjPu8vQkRKnsWnruJcAXajivnhlOtuqPp53QcdQ5oRGFoVZFLcb9ARqm5mlovjnqTQw3vIU2jxgtSdy4QbG/eQoRNON2y3yUp89oiRl3Aphxu+UFVPvdaMk8QuyWq9W4XyU/OcU6okycy3wLkiPeBHoRIo46B3QGxiF/RFXUatxvk58qHJ/B5n8+sN67JdsAC8OcUKtxzyY/c6JhKDmd4ZZZwAjfQqQIZ8b9Evnpuc24/TATlRUyhPXcCWDG7YcZwBd9C5EiNidk8Fitxr0GWEA+cqkNRCMVwy0vApsGhwE747AKy6XAoa4a80ghM4jhnmnA0b6FSAnzUEdTNVGSNbwK7B/h/Hpgd+ApQgTrG7HyD2CsbyFSwIYoC0uoeuVRjPsRYJ8I59cDewBP+BYix/wd2M+3EClgZ+DZsCdFMe7nUEHAnhGukXbMuP0yH+nZ1r4F8Yxz4wb4J7B3xGukGTNu/7wMHONbCM9sDjzmutFTgDNdN+qIrYEHfAthsCPqvfPMO9SwBTZqz/0IcHzEa6SVL2Lr22ngeRRXHap8bYbYHlhKiJjyAlGN+0WgOyFd9HXCIcA9voUwALgJOMq3EJ4Yh8cR5G+A7/hqPCE6orI2RjoYgubeeeQe4GBfjY8BHvTVeEIcBtzlWwijBbcBo3wL4YEFhEhnXEwcFUceArYlW0tio4CbfQthtOBmsuu8rcRBKPR5jU8hfg/8l08BYqaJEHWQDWe8Rb4yAF0HTPQtxK5oi14WOBy43bcQRlm+B/zatxAOWUNKyio9h9Yk653pwHjfQhhlaUB1xPLAEcjPkApOAy7xLUREemD5ydPOucA3fAvhgNuQgaeC7sDHvoWIyLFIeYz00ggs9y1EwnQmhrDnhhgEKbAG6I+SCc6K8bpJsRHywD4DvBf83y3Aj7FMp2lmNepI9kQRklnkeygiLVXhz0Opn5DNrmif9hrg/1BSgL96lcgIw0qgi28hEmIRMeSPSyLDyJ3AH4kWBLIdsBvywg9FP+RotJb+VPDeCrRTpht6oDwdvBcmz1SxgqwDbgVOJERVB8Mbk4BBwOQE23Clh8V8GS1/HR5FcEjGuEej5Yo9Q543Dm3Mn4jWmW9E1RXmooX8lehGfowcXz1R7zscbSrYEG0N7ApMBe5HmTzaotxumyXAecBl1KdntgHlHeuNFK5LcHQu+ntt8LlVRcfq4LUJ1YNbSvpDcN9E23IXxXhNH3pYzIPI7/NQ1C+SVG6wfwI/BB5t53OdgDOA09EmlMuRI+GtCG33Rw+Yb6GbfRGKfy9nqG3lpXoFOdjStH7fiBJkDEa91oaoaEJfZNB9UaWOJeg3GERr412F0vUMpNnYi43/NWDf4FrLg2stDY45aFTzWnDMw+8o5yDgBFp7lbsjw6wW33pYYBjwE1KeN24/4IZ2PnM2UrgzSK4Wcz8UsrgGOcpKeQ7Nu0uP94BvE094bi1sjHqQM1EiyseRkS1HDsBbgAuA49Awbi+0uSLuyii90cNjL5qHixeg6cuzgTzvBvJdHMi7XyC/K6aih3CBvWi/UykmDXpYoG5iLO4FDizz/xNR73GqW3E4FT3NixXhX7Q06jVISV0qZ2/UA/0E/bgL0cPlfuBXwFfQ0LOvQ5nCsCmS76tI3geQ/AvQ9zkLOACtTiTFp2iacTzSrcK/2yJNegh1FuVZznN+FYqX7exeHEBz0KnI4QdaSikY9r1I5qRpRIkgfotGDu8D16J51niyky9sG/R9fgpcg+bxz6Kh6WHEu9FoAtK14gf1gDY+nzY9hMqdYWq5AnmfR6Gn5L5+xfkPY9HT823kjKnmpnam9jjffVHPPBMNZe9E87sshOuGYSe09/8uNFefgXr2KFl0O6OHY+nUqtxvmlY9/CbhphKpoCfwCXA1/p6SleiHjK3aJYdzqD4bSAfUa12DPK0PoXxzu4YRMAeMRPflYdSzXw18KcT5fZDjsJzf5PSSz04gnXrYDY1ovu1bkLAcCvyJdO/1nk77PfcQtAQyk8orDBsg478TrZlPB76G1Ziulo2ArwN3IOO8A93PSk7N4chbX86w1yPvdIFDkRMwzVSjh6nhUJT7qh64mbZT2TxE5eHeODR/WoM8yVa8Lh6+hO7nWjQ/Lq08chjaXPER5Y377uBzWdLDVDCB9D8pS6m0DHEyLZXmIbR+fB4Korif1p5PI14mouojbyAHXXFsQmdkEJcDi2n+nRaTLT1MBaPQ3KYeuRbNAwv0p3zP8BZar+zvWsCcsxVywM0DrqS1EXRA9d3OR2vXqdkPHZJSPUwNq0if06JautEysqkw/ys9bIOJf/ZAvdwCyseXr0LF8+qRUj1MBVeRnmWGWhmLeoWTqOysWYd5vtPCNsh5th7FDmxNtvQwFUxEjo8scBt68q+gsoFP9yadUYnT0V78G30LEhOR6pPHuXFkFYq+Wh3jNX3RGwW39EBTjP7BsWVw9EdZOE9C69hGeigMx7OQLqs72rDTw6cQZ+M+RjdpJgFTfAthhML0MGY6kY3euhzrSG5brBEvpoclxJFD7UzgPrJZx7oJeWUf9y2I0S6mhwnwNsntg/VNfxSoYqQf08MSoiYjGIcyV7wT8TppZRHKODLGsxxG25geliGqce+Hwv6yzOVIeYz0YnqYALGkYE0526AoKCO9mB6WIUrPvR2a6EdJIlcNfVCWisVo48B8tP/1dNyEuS5E3sptHbRlhMeVHpajH4pzONlBW6H1MIpx74abSKCNULbP0Si0cFvgQhRq+Mc2zouTaej7GunDlR6W43e43a8fSg+jGPeuuIvOeoiWQ5KpyIFyNG6idz7EYsnTiks9LOYIwufmj0ooPYxi3ENRovakeQ3lYSvlLbRO382BDHNxkzzRCI8rPSxmI5RI4keO2w2lh1GMeyWqwOCLAWgO7qJo32yyG/1U7/jQw1+jIflCx+0608NypXhc0ANVQfwYOMRRm/2QQ89IH671cF8UBdcRLU2tx41DDRzq4Qrc7lYZjZ7S64CXUQ4tV/TEigOmFZd62BX5erYP/u3auJ3pYZjiZnHSHSW9ewcllIuzxnhb+Pq+Rtu4/F0uQLnzCrg2bnD0fV333KUcjW7sSQ7aakTFBIz04UoPdwReoGVNcNfGHUoPozjUVuA3H/kjwWuUahXV0ogNy9OKCz1sQCmPLkRJGguVVrcI3u8b/DvpoCpneng7ColLml1RWdpSBqOnpovUtYMctWOEx4Ue9qdyuq3iY6eE5Qilh7XWvgKtLw8n+eWALwNP0pxkvsCo4NXF/t3htByOGenBhR6+h6qtlrIDqgF3BcpfPz9BGSCkHkYx7jmoWPi9Ea5RDU1ofv0YqogJ8FmUnH4OurFJM4zWFUuNdOBCDz+hfA70QmTcsxXej5tQehhlzv00buJqZ6BN+M8Dr6In9HSUU3w0bhLh9UJF74304UoP04AzPRyMjC0PzKftes+GP0wPE+JNsl9SZwDJz6WMaJgeliFqAMimKOvk7IjXSTMHoYAZC2JJL6aHCTAWVV/MMg/jZi3dqB3Tw4RYjALas8hWaOeZkX5MD0uIIy67ARhBNnN7n4KW4LKYCztrmB4mwAbAGteNOmK9bwGMqjE9LCGOnntd0PgOaE06K0xG8euP+hbEqArTwxLirIPVhKorfhLjNX3RB3id8jHthj/6ocSYi1GarUXBa+FYjfRwc7Kxi68RfS/vengsSlyYBW5FivILsluipl65h8obN5pQD56V+tw3AUfWenLUiiPF3IBqI4+N8Zo+2B/4AD0tP0BxwzehQmyGf37dxnvd0O/XRDb0cDlKSJIamnCTkTQJKqWxORJ5YZ8ExjuVyCjHQ5Tvua8p+kwW9dA7I4FrfQtRI9fR9p7c3YBfoRHK5Vhv7po90S7ANbQ27GXI51Mgy3rolfFo51Y9cTfKzVYNnVF6p8dRssYf0ZyVw4iXLYEpaHPIoyiHfSdgJi2N++tlzs26HnrjQFI2X2iDW9EcpxaGAOcjr+YfgNNQRJFRO1sDk9D9XAT8DO3+KuYomg37zjaulRc9dM7BpP/JeTfx3dB9gEtQqODTwFkoasponx2Bs9F+5YXAxcDebXx+A+AVNDdtb0dY3vTQGePR3Cdtzo2eaG6T1BBoF5Qt5nm0Zn4ucDiwcULt1RuboHpbP0VbGZ8DzgF2DnGNk1G112rIqx4mzkjStTyxP3riu3JabAucgJL5vYcM/mKkcBs5ksE3vVE+vEuAWcgBdhvwTWpPQNCVcFGWudLDOCPUquFKVFTgBHSTXdOI5nHLcZPvvBIjgDHA54PXJ4ElaE39meC1niOseqGRyy6oJ+4D7I6WsB4MXl/wJBuYHibG0ajO1yTH7U5GN7PmiJ8EGQZMBH6DFP9DVN30FuA7wDHIOPp4kq8SfYHPoejEM5BDaB6S/0GU5/s40lkhNfN66LrnLmYKKs3yAxQuuCiBNrZCilcot3pBAm0kxSDU8w1EPf2g4OiMDGge6uE/BZYWHcuC1yg9fy9kuMVHHzQE3qVIllVFsjyP5s7PIB9DvZBZPfRp3IX2v4ueZq+hwJAniJaDegAKLjkZzXUvQj1iVuhFs3H1Rd+31Aj7IsMfiQxwFYqVL/z9HJrndQmOzkV/z0AGvJTWD435wWvBoOt56lBMJvXQt3EXMwbVXjoOBf9PQ8O7uSg31ifI+bACzVkaaU5IPwwp/bHBtW4A7qO55FAeaUAOp3IG3ACspbzhrwzeyytjyIgepsm4i9kWhXruiuZrq1GO8kbUs4xEN/hxpKxz0HDwSWCBe3GNjGJ6aBiGYRiGYRiGYRiGYRiGYRiGYRiGYRiGYRiGYRiGYeSF/wdP+mYsAWHJcAAAAABJRU5ErkJggg==;" parent="1" vertex="1">
          <mxGeometry x="126.15" y="188.37" width="94.1" height="80" as="geometry" />
        </mxCell>
        <mxCell id="BpQJaqF968-kyVBsxe2n-15" value="v1" style="text;html=1;align=center;verticalAlign=middle;resizable=0;points=[];autosize=1;" parent="1" vertex="1">
          <mxGeometry x="52.05000000000001" y="218.37" width="30" height="20" as="geometry" />
        </mxCell>
        <mxCell id="BpQJaqF968-kyVBsxe2n-16" value="p" style="text;html=1;align=center;verticalAlign=middle;resizable=0;points=[];autosize=1;" parent="1" vertex="1">
          <mxGeometry x="163.20000000000002" y="218.37" width="20" height="20" as="geometry" />
        </mxCell>
        <mxCell id="BpQJaqF968-kyVBsxe2n-17" value="v2" style="text;html=1;align=center;verticalAlign=middle;resizable=0;points=[];autosize=1;" parent="1" vertex="1">
          <mxGeometry x="47.05" y="303.37" width="30" height="20" as="geometry" />
        </mxCell>
        <mxCell id="BpQJaqF968-kyVBsxe2n-22" value="" style="endArrow=open;endFill=1;endSize=12;html=1;strokeWidth=3;" parent="1" edge="1">
          <mxGeometry width="160" relative="1" as="geometry">
            <mxPoint x="250" y="270" as="sourcePoint" />
            <mxPoint x="390" y="270" as="targetPoint" />
          </mxGeometry>
        </mxCell>
        <mxCell id="BpQJaqF968-kyVBsxe2n-24" value="1" style="ellipse;fillColor=#ffffff;strokeColor=#000000;fontSize=18;" parent="1" vertex="1">
          <mxGeometry x="242.05" y="242.5" width="20" height="25" as="geometry" />
        </mxCell>
        <mxCell id="BpQJaqF968-kyVBsxe2n-26" value="" style="endArrow=open;endFill=1;endSize=12;html=1;strokeWidth=3;" parent="1" edge="1">
          <mxGeometry width="160" relative="1" as="geometry">
            <mxPoint x="490" y="270" as="sourcePoint" />
            <mxPoint x="650" y="270" as="targetPoint" />
          </mxGeometry>
        </mxCell>
        <mxCell id="BpQJaqF968-kyVBsxe2n-27" value="&lt;font style=&quot;font-size: 14px&quot;&gt;pick() : v2.join(p)&lt;/font&gt;" style="text;html=1;align=center;verticalAlign=middle;resizable=0;points=[];autosize=1;" parent="1" vertex="1">
          <mxGeometry x="520" y="242.5" width="120" height="20" as="geometry" />
        </mxCell>
        <mxCell id="BpQJaqF968-kyVBsxe2n-28" value="2" style="ellipse;fillColor=#ffffff;strokeColor=#000000;fontSize=18;" parent="1" vertex="1">
          <mxGeometry x="500" y="240" width="20" height="25" as="geometry" />
        </mxCell>
        <mxCell id="BpQJaqF968-kyVBsxe2n-29" value="&lt;b&gt;&lt;font style=&quot;font-size: 15px&quot;&gt;Self-Adaptive System&lt;br&gt;&lt;/font&gt;&lt;/b&gt;" style="shape=cube;whiteSpace=wrap;html=1;boundedLbl=1;backgroundOutline=1;darkOpacity=0.05;darkOpacity2=0.1;" parent="1" vertex="1">
          <mxGeometry x="650" y="205" width="130" height="110" as="geometry" />
        </mxCell>
        <mxCell id="BpQJaqF968-kyVBsxe2n-32" value="" style="endArrow=open;endFill=1;endSize=12;html=1;strokeWidth=3;" parent="1" edge="1">
          <mxGeometry width="160" relative="1" as="geometry">
            <mxPoint x="390" y="290" as="sourcePoint" />
            <mxPoint x="240" y="290" as="targetPoint" />
          </mxGeometry>
        </mxCell>
        <mxCell id="BpQJaqF968-kyVBsxe2n-33" value="&lt;font style=&quot;font-size: 14px&quot;&gt;update(v2)&lt;/font&gt;" style="text;html=1;align=center;verticalAlign=middle;resizable=0;points=[];autosize=1;" parent="1" vertex="1">
          <mxGeometry x="300" y="297.5" width="80" height="20" as="geometry" />
        </mxCell>
        <mxCell id="BpQJaqF968-kyVBsxe2n-34" value="5" style="ellipse;fillColor=#ffffff;strokeColor=#000000;fontSize=18;" parent="1" vertex="1">
          <mxGeometry x="260" y="295" width="20" height="25" as="geometry" />
        </mxCell>
        <mxCell id="BpQJaqF968-kyVBsxe2n-35" value="&lt;b&gt;&lt;font style=&quot;font-size: 15px&quot;&gt;Traces&lt;/font&gt;&lt;/b&gt;" style="shape=cylinder3;whiteSpace=wrap;html=1;boundedLbl=1;backgroundOutline=1;size=15;" parent="1" vertex="1">
          <mxGeometry x="930" y="230" width="60" height="80" as="geometry" />
        </mxCell>
        <mxCell id="BpQJaqF968-kyVBsxe2n-36" value="" style="endArrow=open;endFill=1;endSize=12;html=1;strokeWidth=3;exitX=0;exitY=0;exitDx=130;exitDy=65;exitPerimeter=0;entryX=0;entryY=0.5;entryDx=0;entryDy=0;entryPerimeter=0;" parent="1" source="BpQJaqF968-kyVBsxe2n-29" target="BpQJaqF968-kyVBsxe2n-35" edge="1">
          <mxGeometry width="160" relative="1" as="geometry">
            <mxPoint x="790" y="270.75" as="sourcePoint" />
            <mxPoint x="910" y="270.75" as="targetPoint" />
          </mxGeometry>
        </mxCell>
        <mxCell id="BpQJaqF968-kyVBsxe2n-37" value="p&lt;font style=&quot;font-size: 14px&quot;&gt;.acceptJoin(v2)&lt;/font&gt;" style="text;html=1;align=center;verticalAlign=middle;resizable=0;points=[];autosize=1;" parent="1" vertex="1">
          <mxGeometry x="810" y="240.75" width="120" height="20" as="geometry" />
        </mxCell>
        <mxCell id="BpQJaqF968-kyVBsxe2n-38" value="3" style="ellipse;fillColor=#ffffff;strokeColor=#000000;fontSize=18;" parent="1" vertex="1">
          <mxGeometry x="790" y="238.25" width="20" height="25" as="geometry" />
        </mxCell>
        <mxCell id="BpQJaqF968-kyVBsxe2n-40" value="&lt;b&gt;&lt;font style=&quot;font-size: 15px&quot;&gt;Test Generator&lt;/font&gt;&lt;/b&gt;" style="shape=hexagon;perimeter=hexagonPerimeter2;whiteSpace=wrap;html=1;fixedSize=1;" parent="1" vertex="1">
          <mxGeometry x="402.05" y="510" width="100" height="80" as="geometry" />
        </mxCell>
        <mxCell id="BpQJaqF968-kyVBsxe2n-44" value="&lt;div&gt;\&lt;/div&gt;" style="text;html=1;align=center;verticalAlign=middle;resizable=0;points=[];autosize=1;" parent="1" vertex="1">
          <mxGeometry x="62.05" y="390" width="20" height="20" as="geometry" />
        </mxCell>
        <mxCell id="BpQJaqF968-kyVBsxe2n-51" value="" style="endArrow=open;endFill=1;endSize=12;html=1;strokeWidth=3;" parent="1" edge="1">
          <mxGeometry width="160" relative="1" as="geometry">
            <mxPoint x="262.05" y="550" as="sourcePoint" />
            <mxPoint x="402.05" y="550" as="targetPoint" />
          </mxGeometry>
        </mxCell>
        <mxCell id="BpQJaqF968-kyVBsxe2n-52" value="&lt;font style=&quot;font-size: 14px&quot;&gt;pick() : &lt;/font&gt;&lt;font style=&quot;font-size: 14px&quot;&gt;δ&lt;/font&gt;" style="text;html=1;align=center;verticalAlign=middle;resizable=0;points=[];autosize=1;" parent="1" vertex="1">
          <mxGeometry x="570" y="523.25" width="70" height="20" as="geometry" />
        </mxCell>
        <mxCell id="BpQJaqF968-kyVBsxe2n-53" value="1" style="ellipse;fillColor=#ffffff;strokeColor=#000000;fontSize=18;" parent="1" vertex="1">
          <mxGeometry x="248.5" y="520.75" width="20" height="25" as="geometry" />
        </mxCell>
        <mxCell id="BpQJaqF968-kyVBsxe2n-54" value="" style="endArrow=open;endFill=1;endSize=12;html=1;strokeWidth=3;" parent="1" edge="1">
          <mxGeometry width="160" relative="1" as="geometry">
            <mxPoint x="502.05" y="550" as="sourcePoint" />
            <mxPoint x="662.05" y="550" as="targetPoint" />
          </mxGeometry>
        </mxCell>
        <mxCell id="BpQJaqF968-kyVBsxe2n-55" value="&lt;font style=&quot;font-size: 14px&quot;&gt;p.scatter()&lt;/font&gt;" style="text;html=1;align=center;verticalAlign=middle;resizable=0;points=[];autosize=1;" parent="1" vertex="1">
          <mxGeometry x="840" y="522.5" width="80" height="20" as="geometry" />
        </mxCell>
        <mxCell id="BpQJaqF968-kyVBsxe2n-56" value="2" style="ellipse;fillColor=#ffffff;strokeColor=#000000;fontSize=18;" parent="1" vertex="1">
          <mxGeometry x="540" y="520" width="20" height="25" as="geometry" />
        </mxCell>
        <mxCell id="BpQJaqF968-kyVBsxe2n-57" value="&lt;b&gt;&lt;font style=&quot;font-size: 15px&quot;&gt;Self-Adaptive System&lt;br&gt;&lt;/font&gt;&lt;/b&gt;" style="shape=cube;whiteSpace=wrap;html=1;boundedLbl=1;backgroundOutline=1;darkOpacity=0.05;darkOpacity2=0.1;" parent="1" vertex="1">
          <mxGeometry x="662.05" y="485" width="130" height="110" as="geometry" />
        </mxCell>
        <mxCell id="BpQJaqF968-kyVBsxe2n-58" value="" style="endArrow=open;endFill=1;endSize=12;html=1;strokeWidth=3;" parent="1" edge="1">
          <mxGeometry width="160" relative="1" as="geometry">
            <mxPoint x="402.05" y="570" as="sourcePoint" />
            <mxPoint x="252.05" y="570" as="targetPoint" />
          </mxGeometry>
        </mxCell>
        <mxCell id="BpQJaqF968-kyVBsxe2n-59" value="&lt;font style=&quot;font-size: 14px&quot;&gt;update(v2)&lt;/font&gt;" style="text;html=1;align=center;verticalAlign=middle;resizable=0;points=[];autosize=1;" parent="1" vertex="1">
          <mxGeometry x="300" y="577.5" width="80" height="20" as="geometry" />
        </mxCell>
        <mxCell id="BpQJaqF968-kyVBsxe2n-60" value="5" style="ellipse;fillColor=#ffffff;strokeColor=#000000;fontSize=18;" parent="1" vertex="1">
          <mxGeometry x="272.05" y="575" width="20" height="25" as="geometry" />
        </mxCell>
        <mxCell id="BpQJaqF968-kyVBsxe2n-61" value="&lt;b&gt;&lt;font style=&quot;font-size: 15px&quot;&gt;Traces&lt;/font&gt;&lt;/b&gt;" style="shape=cylinder3;whiteSpace=wrap;html=1;boundedLbl=1;backgroundOutline=1;size=15;" parent="1" vertex="1">
          <mxGeometry x="942.05" y="510" width="60" height="80" as="geometry" />
        </mxCell>
        <mxCell id="BpQJaqF968-kyVBsxe2n-62" value="" style="endArrow=open;endFill=1;endSize=12;html=1;strokeWidth=3;exitX=0;exitY=0;exitDx=130;exitDy=65;exitPerimeter=0;entryX=0;entryY=0.5;entryDx=0;entryDy=0;entryPerimeter=0;" parent="1" source="BpQJaqF968-kyVBsxe2n-57" target="BpQJaqF968-kyVBsxe2n-61" edge="1">
          <mxGeometry width="160" relative="1" as="geometry">
            <mxPoint x="802.05" y="550.75" as="sourcePoint" />
            <mxPoint x="922.05" y="550.75" as="targetPoint" />
          </mxGeometry>
        </mxCell>
        <mxCell id="BpQJaqF968-kyVBsxe2n-64" value="3" style="ellipse;fillColor=#ffffff;strokeColor=#000000;fontSize=18;" parent="1" vertex="1">
          <mxGeometry x="802.05" y="518.25" width="20" height="25" as="geometry" />
        </mxCell>
        <mxCell id="BpQJaqF968-kyVBsxe2n-65" value="" style="endArrow=open;endFill=1;endSize=12;html=1;strokeWidth=3;exitX=0;exitY=1;exitDx=0;exitDy=-15;exitPerimeter=0;entryX=0.89;entryY=0.888;entryDx=0;entryDy=0;entryPerimeter=0;" parent="1" source="BpQJaqF968-kyVBsxe2n-35" target="BpQJaqF968-kyVBsxe2n-9" edge="1">
          <mxGeometry width="160" relative="1" as="geometry">
            <mxPoint x="822.05" y="360" as="sourcePoint" />
            <mxPoint x="672.05" y="360" as="targetPoint" />
            <Array as="points">
              <mxPoint x="820" y="340" />
              <mxPoint x="580" y="340" />
            </Array>
          </mxGeometry>
        </mxCell>
        <mxCell id="BpQJaqF968-kyVBsxe2n-66" value="&lt;font style=&quot;font-size: 14px&quot;&gt;Retrieve&lt;/font&gt;" style="text;html=1;align=center;verticalAlign=middle;resizable=0;points=[];autosize=1;" parent="1" vertex="1">
          <mxGeometry x="675" y="350" width="70" height="20" as="geometry" />
        </mxCell>
        <mxCell id="BpQJaqF968-kyVBsxe2n-67" value="4" style="ellipse;fillColor=#ffffff;strokeColor=#000000;fontSize=18;" parent="1" vertex="1">
          <mxGeometry x="650" y="347.5" width="20" height="25" as="geometry" />
        </mxCell>
        <mxCell id="BpQJaqF968-kyVBsxe2n-70" value="" style="endArrow=open;endFill=1;endSize=12;html=1;strokeWidth=3;exitX=0;exitY=1;exitDx=0;exitDy=-15;exitPerimeter=0;" parent="1" edge="1">
          <mxGeometry width="160" relative="1" as="geometry">
            <mxPoint x="941" y="577.5" as="sourcePoint" />
            <mxPoint x="490" y="580" as="targetPoint" />
            <Array as="points">
              <mxPoint x="831" y="622.5" />
              <mxPoint x="591" y="622.5" />
            </Array>
          </mxGeometry>
        </mxCell>
        <mxCell id="BpQJaqF968-kyVBsxe2n-71" value="&lt;font style=&quot;font-size: 14px&quot;&gt;Retrieve&lt;/font&gt;" style="text;html=1;align=center;verticalAlign=middle;resizable=0;points=[];autosize=1;" parent="1" vertex="1">
          <mxGeometry x="700" y="630" width="70" height="20" as="geometry" />
        </mxCell>
        <mxCell id="BpQJaqF968-kyVBsxe2n-72" value="4" style="ellipse;fillColor=#ffffff;strokeColor=#000000;fontSize=18;" parent="1" vertex="1">
          <mxGeometry x="675" y="627.5" width="20" height="25" as="geometry" />
        </mxCell>
        <mxCell id="BpQJaqF968-kyVBsxe2n-75" value="" style="shape=link;html=1;" parent="1" edge="1">
          <mxGeometry width="100" relative="1" as="geometry">
            <mxPoint x="10" y="390" as="sourcePoint" />
            <mxPoint x="1080" y="390" as="targetPoint" />
          </mxGeometry>
        </mxCell>
        <mxCell id="BpQJaqF968-kyVBsxe2n-79" value="selectComponent() : v2" style="text;html=1;align=center;verticalAlign=middle;resizable=0;points=[];autosize=1;" parent="1" vertex="1">
          <mxGeometry x="260" y="243.25" width="140" height="20" as="geometry" />
        </mxCell>
        <mxCell id="BpQJaqF968-kyVBsxe2n-83" value="&lt;font style=&quot;font-size: 15px&quot;&gt;Le véhicule v2 est sélectioné (1) et &lt;/font&gt;&lt;font style=&quot;font-size: 15px&quot;&gt;&lt;br&gt;sa transition tirée est v2.join(p) (2)&lt;br&gt;&lt;/font&gt;" style="text;html=1;align=center;verticalAlign=middle;resizable=0;points=[];autosize=1;" parent="1" vertex="1">
          <mxGeometry x="315" y="150" width="250" height="40" as="geometry" />
        </mxCell>
        <mxCell id="BpQJaqF968-kyVBsxe2n-84" value="&lt;font style=&quot;font-size: 15px&quot;&gt;Le SUT se reconfigure&lt;br&gt; p.acceptJoin(v2)&lt;/font&gt;&lt;font style=&quot;font-size: 15px&quot;&gt; et alimente la trace (3)&lt;br&gt;&lt;/font&gt;" style="text;html=1;align=center;verticalAlign=middle;resizable=0;points=[];autosize=1;" parent="1" vertex="1">
          <mxGeometry x="830" y="330" width="280" height="40" as="geometry" />
        </mxCell>
        <mxCell id="BpQJaqF968-kyVBsxe2n-85" value="&lt;font style=&quot;font-size: 14px&quot;&gt;Le générateur récupére la dernière trace (4) &lt;br&gt;et met à jour les composants concernés (5)&lt;br&gt;&lt;/font&gt;" style="text;html=1;align=center;verticalAlign=middle;resizable=0;points=[];autosize=1;" parent="1" vertex="1">
          <mxGeometry x="234.1" y="330" width="290" height="40" as="geometry" />
        </mxCell>
        <mxCell id="BpQJaqF968-kyVBsxe2n-86" value="&lt;font style=&quot;font-size: 14px&quot;&gt;update(p)&lt;/font&gt;" style="text;html=1;align=center;verticalAlign=middle;resizable=0;points=[];autosize=1;" parent="1" vertex="1">
          <mxGeometry x="300" y="315" width="80" height="20" as="geometry" />
        </mxCell>
        <mxCell id="BpQJaqF968-kyVBsxe2n-87" value="&lt;font style=&quot;font-size: 14px&quot;&gt;update(v1)&lt;/font&gt;" style="text;html=1;align=center;verticalAlign=middle;resizable=0;points=[];autosize=1;" parent="1" vertex="1">
          <mxGeometry x="300" y="597.5" width="80" height="20" as="geometry" />
        </mxCell>
        <mxCell id="BpQJaqF968-kyVBsxe2n-88" value="&lt;font style=&quot;font-size: 14px&quot;&gt;update(p)&lt;/font&gt;" style="text;html=1;align=center;verticalAlign=middle;resizable=0;points=[];autosize=1;" parent="1" vertex="1">
          <mxGeometry x="300" y="617.5" width="80" height="20" as="geometry" />
        </mxCell>
        <mxCell id="BpQJaqF968-kyVBsxe2n-89" value="&lt;font style=&quot;font-size: 15px&quot;&gt;On considère v1 et v3 déjà dans le peloton p&lt;/font&gt;" style="text;html=1;align=center;verticalAlign=middle;resizable=0;points=[];autosize=1;" parent="1" vertex="1">
          <mxGeometry x="395" y="50" width="310" height="20" as="geometry" />
        </mxCell>
        <mxCell id="BpQJaqF968-kyVBsxe2n-90" value="" style="shape=image;verticalLabelPosition=bottom;labelBackgroundColor=#ffffff;verticalAlign=top;aspect=fixed;imageAspect=0;image=data:image/png,iVBORw0KGgoAAAANSUhEUgAAAPcAAADSCAYAAACW7VbWAAAACXBIWXMAAA7EAAAOxAGVKw4bAAAdI0lEQVR4nO2deZwU1bXHvzCyMygKKoqKgASI4gYacSOIcU+Ikrhikk/U+DSCMTF5CTFqjDHLM3F5yVNjXBH34BJjoiYucYmCG4rggoAiKqBGxJFF4P3xq8709HTPdHVV3Vtddb6fT316oLvqnq4+p+695557DhiGYRiGYRiGYRiGYRiGYRiGYRiGYRiGYRiGZzr4FqAC2wG7AbsCQ4GVwGigJ/BU8N4K4DGgGzAHeDp47zUP8hr1S2Z1LU3GPQ7YD5gINAE3Av8G5gIvoZu+AvgY6IFufldgODAM2BA4Jvi/qcD9wD+cfgOjXjBdc0An4AfA2+gGTQC2jHjN/sBXgb8Di4HvAxtEvKZR/5iuOeRsYDVwBrB5Qm30A84E1gA/TqgNI/2YrjliIrAKONVxu6eiIdixjtt1RSOwNTAE2B7YBfgcsA8aho4L/v5c8N72wWe3Cc7NIrnWNddz7qvQsOUE9CR1TTfgD+gH/6aH9muhDzCg6NgUGAhsErxXeF0JPAB8Ft3b0gOgc5ljNjL8rsAy4L3gdRnwOrAEWAAsDF6XJfM1Yyf3uubKuEcBjwJfAB521GZbjAX+jHqymZ5lKTAAGAHsELw2AAcCnyCjKhwvAx/QbISF1zUR2+9Ey4dFH2Bj1LsPQD38AKS0fwHWAS8As4JjYcT248J0LcCFcU8ADgG+hZ8naCW6AZcB04E7HLe9NVpu2RH96DsgI51Fs8E8DyxCHts00QM5knai+UE0Aj0IZiHDehZ4HHjTsWymaw45FLjVtxDtMB31kEmyMzAJuBkp/EK0/HIiMvIszHkbgT2RYd0EvBEcN6HvvmMN1xweXK8aTNcccij6YeuBm4GDY7zexsiZMhUNma8HLkbLJv1jbCftbAUcib77dcDS4PUYoHcV51+G1psHtfO5POuacyaQ/qdoKdOB8RHO3wk4C3gSDbGnIgPfJLpomaEP8mDfALwP/AuYQvlevTuakqxH0WEdK1wzj7rmjVHA1b6FqJFrgZEhPj8C+BnwCppnTkHhikZ17I7u2XPIUXgeWqIDOBkZduE4p8z5edK1VLAKLbHUI93Q+mRbDAHORaGKzyPl3C5hufLAEBT88QIKAV1CS+Nei/wTxWRd11LFVcC+voWIyFjgyjL/fxzwCHAX8BPgMy6Fyhkn0tKwC8dryFsP2da11DEROUuywDTgaOStvQg9Ya8H9vYpVI64g/LGvR45zrKoa6mmnodIpXRHEV+zgcloCGW4YTAKyKlk3J8G72dJ1xKJZYhrB8vZKCg/TYEDUWgCzkdRWBd7liVvnIA84/PR3unC8RLyc0xCxp0lXfsh8t2c71mWVnQiOze6lHWka897HtiOyiMl07UQNMRwjTOB+4AnYrhW2mgC9kChlIYb3kdD73KYrjnmbZLbI+ub/riPjzYqY7oWgkpRP9UyDngReCcGWdLIIrT8MsazHIbpWmiiGvd+wOVxCJJiLkeKZfjFdM0xi4iehyrtbIP2URt+MV0LSZSeezvkBHgrJlmqYTMUk+synngh8mRu67BNoyWudG1L4B60VXUeCoGdCZyEm1WTWHUtinHvhvYku6ABOA1tMDge98tT07ANIT5xpWt90fbSvYLXzdAWzcspv3ElCWLTtSjGvSvK9eyCU9CT25eBfYi+r+EHl7r2D9RzgyLi/gcNlb+Lm6i42HQtinEPRRFDLrgU+CPwkaP2SpmLvq/hB1e69iJaSy9mPRqi90A9edLEpmtRwk9XopDAPDCb7EZG1QOudO1TygfQbIjmwu86kCE2XYvSc49GNz0PfELrvcSGO3zqWgNKJT0DNw/42HQtinH3RPmt8sBHZCOJYb3iU9fGoZx4FzpqLxW65qPw2UZoDnSNh7Yf8NCmIXwV2dsApc+a5rhd77q2guasGK7wZdyNwHLHbRrN+NA1gN+hIn9dHbYZm65FGZavQMOlPNCIP0+94UfXfo7yun0Rt/P92HQtirf8Mdw+0XzSjZRtxcsZrnXtQhQKegjuV0li07UoPXc3lGMsDwwHuvgWIse40rUOwO/R9O9I/Cx/xqZrUXruOcAw4N44BEk5w9D3NfzgStfORoUkbkTz7VKuR6OIJIlN16IY99O4S+97Gkpju3Xw78OA+9FGgl+RfIBDL+CZhNswKuNK1wag37pSfbKZJG/cqdC1wcCrvoVwxHz0wxt+MF3zwJtkv7DdAHTDDb+YroUkaoLETVFGytkxyJJWDkKpfXwFUhjCdM0xY9Eif5Z5GNjHtxCG6ZoPFgP9fAuREFvRvLfX8I/pWgjiyFvegErZZjHI4xTkHc1inux6xHTNMRug8i5ZZL1vAYwWmK6FII6eex0SbAe05zUrTEYlex/1LYjxH0zXQhBnosEmYBO02bze6YtS6/RCebO2LDr6B69bAN9BVTAMtzShufeHvgWJgUYUjNXLtyBtcSww1bcQMXEbsBYpUaVSstO9SZdftgB+iWK+XWXeTZqbUBx77EStOFLMDahG99gYr+mD/VExuq/Qdl3uX7oRxwD2Bm5FQ/H3UC/XRDZ0bTlKn1wXNFG/xep70nIv7TWU77Ufdi5Z/ugCTERx1o8AE8p8Jku6VheMRFVB6pHrgJ2K/r0JsIzWxr0aDacOdi1gDjgU9WQrUc7wndv4bJZ0rW4YT/3NSe9GilXKUbQ07BnIEXkkKj2zDPgt8uAatTECuAhNh+4Gvhri3CzpWt1wIPUzl7gVzX8qcQfNxn1UyXubAKcjZ+IbqIBCaio1ppj9gf9FG0KuR8tBvWu81vepn6Wx+5B3vO4TnRyMnlLeU7W2wd20bdigpa+PgJdpew/8VsC30V7zj1HWzAnUrrRZYmPUI9+I5sr3AacSfadXR7SycTDp78ELuvYx6igeB76GmzJFsdIRCf4pmhelzfHRHznGqh0enQ6cHOL63YGjUa/0PjALuAQ4AugT4jr1Sl/0YLsUeAF5ua9DI584deFq4OvB3+NJp671RN+9oGtzaTnVW4r8C4O9SBeCjugJPRsJ/gZyfKRp6WJ/1BPfS+thdiUaiJakbweUUeY29GPORml9TkSF3+JclnRNA/qNT0TVMF9C5W9vRSOZ7RNqd2/kSS8mrbpW7Dx7jMrxEw8Cn3csY7t0oKVRF47iAm5XoqFqd+fSiUbk5b4i+Pcg4DVPsgxHSz1XoPQ9a4Hn0fLbJPQDp7Em+EAk22Qk6yw0OpuBvstxKA+YC15BtbvLkTZdK+avVDbuG1GCxlTQAeV2fobywi4o+fzRaM4xyZ2IgJRxOa2jga4CvuFYlkqMQFOZi4E/A6/TXGXyPuAylN/reLSxfyRKwRuHAncPrjUyuPbxaBpyGfIhzCuS5S7k3f4a/lYJTgW+185n0qZrBW6itZ18QPWjyKqII7Z8JPKKD6zw/gLK90BTgPOAH6Cn1aIYZCllKxQWewHwo+C1lC1Qr7NlAu3HxUA0yhiInHPD0Jy2+AAN6YaiSMHVwWvhb5DjpktwFP6eS/MwcGnJMRf5C+ahB83rCX2/WliHpgPV7KZKi64VKDykC7yLpmZvJSBXZLoAZ9HsBWyr5y6mA3r6vokU8yjUe0RhAHpiP4zm+2dUcc7ZqKeqZ7ojJ+EgNOTfCdgdZfYYFxz7BP+3U/CZQcE5voautXIO+s3CkBZdA/gFzcFQ/41SGcde/z3OXWEgRbkSOKDo/94FNq/i3DFIAY9DT+VpaNfPXDSP/wQ5Jlag+Uwjzcnqh6F442ODa92AhrGlzpZKDEHLFK5SNRu104BGI1HSco/Bn66BDPr44BrPopiQyWg6FBtxGzfISB5Ewu+IblpYB8G2wG5oqDIUPeFGo5s8A00FPkLrhF3Qk+8Z4EnaHim0xV/Qsk0eiizUM+ejEeLPY7qeD10bGpxbXIPsdpr9G6lkOM3ZKTsiR9XL/sQJxReAv/kWwmiTrmQjX0A5dkMPjNTyezQHKaaeKoG+hLtlHCM8U4Af+hYiQf5OetbnW1CXW9hKOBY417cQRkXeATbzLUSC7I/m76ljMlr7rGe6o/mckT6+DPzJtxAOmInm/6liFtnY9ng7cLhvIYxW/A35RbLOEShEOTWMAp7yLURM5KWHqCcGokCavDAHBVelgtKIm3rnY+ovsCPLTCHcjrx65xzCB+kkxpvUl1e8Pc5FAQ5GOlhA9GiyeqI/sqlIxLHN8POodvKKGK6VFmaQULpZIzQ7o/j2hb4FccgiFC9yQHsfTJrfokQGWcNKCaWDn6J9C3njK8AtvoV4nXTuO47KPVh20zTwAskle0g7DxMhq0zUYfkOaDg+P+J10sg9wCG+hcg5g1HI6Yu+BfHEYuBLtZ4c1bj3Rbmhsshd2C4x34xFuwzzyl0oEYoX/kLM29RSxhtoE77hhz+huIO84jVicgXQw1fjDkisSJtRFe8Cm/oWwjMPAPvVcmKUYfnOKEFdlmOxnwD28C1EThmM8pAt8S2IZ6YBe9VyYhTj3odw2SfqETNuf+yJUgDnnafxMDW5lDqvd1Qla6nvnOL1yhUoD7qhEUzoqj1RlPYA6ifLShRmUKfVGOucPii1kQGPUsPQvFbj7oQyP75a4/n1xKtkoGhbHXIg6Uql7BOnxv1ZmnOlZZ05WOol12yJ4smzmi8tLGbcCWHG7Z7tyMeosFqepLr04C0w426fuSSQMN5okyFomdUQq1Ba5VDbXms17i1oWeAvy7wM/Nu3EDnDeu7WhO5kajXuweQnuGAdUrY81NROCxvir/pqWgk9PazVuPsBb9d4bj3yDjXMeYyaGUC2Ix9rwZlxb4G2o+UFM2639EYlbY1mZqF5d9XUYty90RLFyvY+mCHMuN1ixt2aZSgkt2pqMe7NyF9Nrdlke/db2jDjbs27hKy2Uotx90AOpjzRFeu5XbIRtkJRykeobHHVaZdqMe6u5GtIDvq+XX0LkRM6IX/OOt+CpJBQvbcZd3WYcbtjLSmqtpEyzLgTwIzbHeuADsFhtOQlFANQFWbc1WHG7ZZP0fzSaMkmhNBDS0JgpBEz7vKsQT6JqqjFuPPYi+VxtOITM+7ymHEngBm3W5ZQQ1qhHGDGnQBm3G75EIsrKMcSQiwRmnFXRzcsK4hLLNy3PP0IUaCylnnNCvK3HW8lFg7pEjPu8vQkRKnsWnruJcAXajivnhlOtuqPp53QcdQ5oRGFoVZFLcb9ARqm5mlovjnqTQw3vIU2jxgtSdy4QbG/eQoRNON2y3yUp89oiRl3Aphxu+UFVPvdaMk8QuyWq9W4XyU/OcU6okycy3wLkiPeBHoRIo46B3QGxiF/RFXUatxvk58qHJ/B5n8+sN67JdsAC8OcUKtxzyY/c6JhKDmd4ZZZwAjfQqQIZ8b9Evnpuc24/TATlRUyhPXcCWDG7YcZwBd9C5EiNidk8Fitxr0GWEA+cqkNRCMVwy0vApsGhwE747AKy6XAoa4a80ghM4jhnmnA0b6FSAnzUEdTNVGSNbwK7B/h/Hpgd+ApQgTrG7HyD2CsbyFSwIYoC0uoeuVRjPsRYJ8I59cDewBP+BYix/wd2M+3EClgZ+DZsCdFMe7nUEHAnhGukXbMuP0yH+nZ1r4F8Yxz4wb4J7B3xGukGTNu/7wMHONbCM9sDjzmutFTgDNdN+qIrYEHfAthsCPqvfPMO9SwBTZqz/0IcHzEa6SVL2Lr22ngeRRXHap8bYbYHlhKiJjyAlGN+0WgOyFd9HXCIcA9voUwALgJOMq3EJ4Yh8cR5G+A7/hqPCE6orI2RjoYgubeeeQe4GBfjY8BHvTVeEIcBtzlWwijBbcBo3wL4YEFhEhnXEwcFUceArYlW0tio4CbfQthtOBmsuu8rcRBKPR5jU8hfg/8l08BYqaJEHWQDWe8Rb4yAF0HTPQtxK5oi14WOBy43bcQRlm+B/zatxAOWUNKyio9h9Yk653pwHjfQhhlaUB1xPLAEcjPkApOAy7xLUREemD5ydPOucA3fAvhgNuQgaeC7sDHvoWIyLFIeYz00ggs9y1EwnQmhrDnhhgEKbAG6I+SCc6K8bpJsRHywD4DvBf83y3Aj7FMp2lmNepI9kQRklnkeygiLVXhz0Opn5DNrmif9hrg/1BSgL96lcgIw0qgi28hEmIRMeSPSyLDyJ3AH4kWBLIdsBvywg9FP+RotJb+VPDeCrRTpht6oDwdvBcmz1SxgqwDbgVOJERVB8Mbk4BBwOQE23Clh8V8GS1/HR5FcEjGuEej5Yo9Q543Dm3Mn4jWmW9E1RXmooX8lehGfowcXz1R7zscbSrYEG0N7ApMBe5HmTzaotxumyXAecBl1KdntgHlHeuNFK5LcHQu+ntt8LlVRcfq4LUJ1YNbSvpDcN9E23IXxXhNH3pYzIPI7/NQ1C+SVG6wfwI/BB5t53OdgDOA09EmlMuRI+GtCG33Rw+Yb6GbfRGKfy9nqG3lpXoFOdjStH7fiBJkDEa91oaoaEJfZNB9UaWOJeg3GERr412F0vUMpNnYi43/NWDf4FrLg2stDY45aFTzWnDMw+8o5yDgBFp7lbsjw6wW33pYYBjwE1KeN24/4IZ2PnM2UrgzSK4Wcz8UsrgGOcpKeQ7Nu0uP94BvE094bi1sjHqQM1EiyseRkS1HDsBbgAuA49Awbi+0uSLuyii90cNjL5qHixeg6cuzgTzvBvJdHMi7XyC/K6aih3CBvWi/UykmDXpYoG5iLO4FDizz/xNR73GqW3E4FT3NixXhX7Q06jVISV0qZ2/UA/0E/bgL0cPlfuBXwFfQ0LOvQ5nCsCmS76tI3geQ/AvQ9zkLOACtTiTFp2iacTzSrcK/2yJNegh1FuVZznN+FYqX7exeHEBz0KnI4QdaSikY9r1I5qRpRIkgfotGDu8D16J51niyky9sG/R9fgpcg+bxz6Kh6WHEu9FoAtK14gf1gDY+nzY9hMqdYWq5AnmfR6Gn5L5+xfkPY9HT823kjKnmpnam9jjffVHPPBMNZe9E87sshOuGYSe09/8uNFefgXr2KFl0O6OHY+nUqtxvmlY9/CbhphKpoCfwCXA1/p6SleiHjK3aJYdzqD4bSAfUa12DPK0PoXxzu4YRMAeMRPflYdSzXw18KcT5fZDjsJzf5PSSz04gnXrYDY1ovu1bkLAcCvyJdO/1nk77PfcQtAQyk8orDBsg478TrZlPB76G1Ziulo2ArwN3IOO8A93PSk7N4chbX86w1yPvdIFDkRMwzVSjh6nhUJT7qh64mbZT2TxE5eHeODR/WoM8yVa8Lh6+hO7nWjQ/Lq08chjaXPER5Y377uBzWdLDVDCB9D8pS6m0DHEyLZXmIbR+fB4Korif1p5PI14mouojbyAHXXFsQmdkEJcDi2n+nRaTLT1MBaPQ3KYeuRbNAwv0p3zP8BZar+zvWsCcsxVywM0DrqS1EXRA9d3OR2vXqdkPHZJSPUwNq0if06JautEysqkw/ys9bIOJf/ZAvdwCyseXr0LF8+qRUj1MBVeRnmWGWhmLeoWTqOysWYd5vtPCNsh5th7FDmxNtvQwFUxEjo8scBt68q+gsoFP9yadUYnT0V78G30LEhOR6pPHuXFkFYq+Wh3jNX3RGwW39EBTjP7BsWVw9EdZOE9C69hGeigMx7OQLqs72rDTw6cQZ+M+RjdpJgFTfAthhML0MGY6kY3euhzrSG5brBEvpoclxJFD7UzgPrJZx7oJeWUf9y2I0S6mhwnwNsntg/VNfxSoYqQf08MSoiYjGIcyV7wT8TppZRHKODLGsxxG25geliGqce+Hwv6yzOVIeYz0YnqYALGkYE0526AoKCO9mB6WIUrPvR2a6EdJIlcNfVCWisVo48B8tP/1dNyEuS5E3sptHbRlhMeVHpajH4pzONlBW6H1MIpx74abSKCNULbP0Si0cFvgQhRq+Mc2zouTaej7GunDlR6W43e43a8fSg+jGPeuuIvOeoiWQ5KpyIFyNG6idz7EYsnTiks9LOYIwufmj0ooPYxi3ENRovakeQ3lYSvlLbRO382BDHNxkzzRCI8rPSxmI5RI4keO2w2lh1GMeyWqwOCLAWgO7qJo32yyG/1U7/jQw1+jIflCx+0608NypXhc0ANVQfwYOMRRm/2QQ89IH671cF8UBdcRLU2tx41DDRzq4Qrc7lYZjZ7S64CXUQ4tV/TEigOmFZd62BX5erYP/u3auJ3pYZjiZnHSHSW9ewcllIuzxnhb+Pq+Rtu4/F0uQLnzCrg2bnD0fV333KUcjW7sSQ7aakTFBIz04UoPdwReoGVNcNfGHUoPozjUVuA3H/kjwWuUahXV0ogNy9OKCz1sQCmPLkRJGguVVrcI3u8b/DvpoCpneng7ColLml1RWdpSBqOnpovUtYMctWOEx4Ue9qdyuq3iY6eE5Qilh7XWvgKtLw8n+eWALwNP0pxkvsCo4NXF/t3htByOGenBhR6+h6qtlrIDqgF3BcpfPz9BGSCkHkYx7jmoWPi9Ea5RDU1ofv0YqogJ8FmUnH4OurFJM4zWFUuNdOBCDz+hfA70QmTcsxXej5tQehhlzv00buJqZ6BN+M8Dr6In9HSUU3w0bhLh9UJF74304UoP04AzPRyMjC0PzKftes+GP0wPE+JNsl9SZwDJz6WMaJgeliFqAMimKOvk7IjXSTMHoYAZC2JJL6aHCTAWVV/MMg/jZi3dqB3Tw4RYjALas8hWaOeZkX5MD0uIIy67ARhBNnN7n4KW4LKYCztrmB4mwAbAGteNOmK9bwGMqjE9LCGOnntd0PgOaE06K0xG8euP+hbEqArTwxLirIPVhKorfhLjNX3RB3id8jHthj/6ocSYi1GarUXBa+FYjfRwc7Kxi68RfS/vengsSlyYBW5FivILsluipl65h8obN5pQD56V+tw3AUfWenLUiiPF3IBqI4+N8Zo+2B/4AD0tP0BxwzehQmyGf37dxnvd0O/XRDb0cDlKSJIamnCTkTQJKqWxORJ5YZ8ExjuVyCjHQ5Tvua8p+kwW9dA7I4FrfQtRI9fR9p7c3YBfoRHK5Vhv7po90S7ANbQ27GXI51Mgy3rolfFo51Y9cTfKzVYNnVF6p8dRssYf0ZyVw4iXLYEpaHPIoyiHfSdgJi2N++tlzs26HnrjQFI2X2iDW9EcpxaGAOcjr+YfgNNQRJFRO1sDk9D9XAT8DO3+KuYomg37zjaulRc9dM7BpP/JeTfx3dB9gEtQqODTwFkoasponx2Bs9F+5YXAxcDebXx+A+AVNDdtb0dY3vTQGePR3Cdtzo2eaG6T1BBoF5Qt5nm0Zn4ucDiwcULt1RuboHpbP0VbGZ8DzgF2DnGNk1G112rIqx4mzkjStTyxP3riu3JabAucgJL5vYcM/mKkcBs5ksE3vVE+vEuAWcgBdhvwTWpPQNCVcFGWudLDOCPUquFKVFTgBHSTXdOI5nHLcZPvvBIjgDHA54PXJ4ElaE39meC1niOseqGRyy6oJ+4D7I6WsB4MXl/wJBuYHibG0ajO1yTH7U5GN7PmiJ8EGQZMBH6DFP9DVN30FuA7wDHIOPp4kq8SfYHPoejEM5BDaB6S/0GU5/s40lkhNfN66LrnLmYKKs3yAxQuuCiBNrZCilcot3pBAm0kxSDU8w1EPf2g4OiMDGge6uE/BZYWHcuC1yg9fy9kuMVHHzQE3qVIllVFsjyP5s7PIB9DvZBZPfRp3IX2v4ueZq+hwJAniJaDegAKLjkZzXUvQj1iVuhFs3H1Rd+31Aj7IsMfiQxwFYqVL/z9HJrndQmOzkV/z0AGvJTWD435wWvBoOt56lBMJvXQt3EXMwbVXjoOBf9PQ8O7uSg31ifI+bACzVkaaU5IPwwp/bHBtW4A7qO55FAeaUAOp3IG3ACspbzhrwzeyytjyIgepsm4i9kWhXruiuZrq1GO8kbUs4xEN/hxpKxz0HDwSWCBe3GNjGJ6aBiGYRiGYRiGYRiGYRiGYRiGYRiGYRiGYRiGYRiGYeSF/wdP+mYsAWHJcAAAAABJRU5ErkJggg==;" parent="1" vertex="1">
          <mxGeometry x="126.15" y="273.37" width="94.1" height="80" as="geometry" />
        </mxCell>
        <mxCell id="BpQJaqF968-kyVBsxe2n-91" value="v3" style="text;html=1;align=center;verticalAlign=middle;resizable=0;points=[];autosize=1;" parent="1" vertex="1">
          <mxGeometry x="155.9" y="303.37" width="30" height="20" as="geometry" />
        </mxCell>
        <mxCell id="BpQJaqF968-kyVBsxe2n-92" value="" style="shape=image;verticalLabelPosition=bottom;labelBackgroundColor=#ffffff;verticalAlign=top;aspect=fixed;imageAspect=0;image=data:image/png,iVBORw0KGgoAAAANSUhEUgAAAPcAAADSCAYAAACW7VbWAAAACXBIWXMAAA7EAAAOxAGVKw4bAAAdI0lEQVR4nO2deZwU1bXHvzCyMygKKoqKgASI4gYacSOIcU+Ikrhikk/U+DSCMTF5CTFqjDHLM3F5yVNjXBH34BJjoiYucYmCG4rggoAiKqBGxJFF4P3xq8709HTPdHVV3Vtddb6fT316oLvqnq4+p+695557DhiGYRiGYRiGYRiGYRiGYRiGYRiGYRiGYRiGZzr4FqAC2wG7AbsCQ4GVwGigJ/BU8N4K4DGgGzAHeDp47zUP8hr1S2Z1LU3GPQ7YD5gINAE3Av8G5gIvoZu+AvgY6IFufldgODAM2BA4Jvi/qcD9wD+cfgOjXjBdc0An4AfA2+gGTQC2jHjN/sBXgb8Di4HvAxtEvKZR/5iuOeRsYDVwBrB5Qm30A84E1gA/TqgNI/2YrjliIrAKONVxu6eiIdixjtt1RSOwNTAE2B7YBfgcsA8aho4L/v5c8N72wWe3Cc7NIrnWNddz7qvQsOUE9CR1TTfgD+gH/6aH9muhDzCg6NgUGAhsErxXeF0JPAB8Ft3b0gOgc5ljNjL8rsAy4L3gdRnwOrAEWAAsDF6XJfM1Yyf3uubKuEcBjwJfAB521GZbjAX+jHqymZ5lKTAAGAHsELw2AAcCnyCjKhwvAx/QbISF1zUR2+9Ey4dFH2Bj1LsPQD38AKS0fwHWAS8As4JjYcT248J0LcCFcU8ADgG+hZ8naCW6AZcB04E7HLe9NVpu2RH96DsgI51Fs8E8DyxCHts00QM5knai+UE0Aj0IZiHDehZ4HHjTsWymaw45FLjVtxDtMB31kEmyMzAJuBkp/EK0/HIiMvIszHkbgT2RYd0EvBEcN6HvvmMN1xweXK8aTNcccij6YeuBm4GDY7zexsiZMhUNma8HLkbLJv1jbCftbAUcib77dcDS4PUYoHcV51+G1psHtfO5POuacyaQ/qdoKdOB8RHO3wk4C3gSDbGnIgPfJLpomaEP8mDfALwP/AuYQvlevTuakqxH0WEdK1wzj7rmjVHA1b6FqJFrgZEhPj8C+BnwCppnTkHhikZ17I7u2XPIUXgeWqIDOBkZduE4p8z5edK1VLAKLbHUI93Q+mRbDAHORaGKzyPl3C5hufLAEBT88QIKAV1CS+Nei/wTxWRd11LFVcC+voWIyFjgyjL/fxzwCHAX8BPgMy6Fyhkn0tKwC8dryFsP2da11DEROUuywDTgaOStvQg9Ya8H9vYpVI64g/LGvR45zrKoa6mmnodIpXRHEV+zgcloCGW4YTAKyKlk3J8G72dJ1xKJZYhrB8vZKCg/TYEDUWgCzkdRWBd7liVvnIA84/PR3unC8RLyc0xCxp0lXfsh8t2c71mWVnQiOze6lHWka897HtiOyiMl07UQNMRwjTOB+4AnYrhW2mgC9kChlIYb3kdD73KYrjnmbZLbI+ub/riPjzYqY7oWgkpRP9UyDngReCcGWdLIIrT8MsazHIbpWmiiGvd+wOVxCJJiLkeKZfjFdM0xi4iehyrtbIP2URt+MV0LSZSeezvkBHgrJlmqYTMUk+synngh8mRu67BNoyWudG1L4B60VXUeCoGdCZyEm1WTWHUtinHvhvYku6ABOA1tMDge98tT07ANIT5xpWt90fbSvYLXzdAWzcspv3ElCWLTtSjGvSvK9eyCU9CT25eBfYi+r+EHl7r2D9RzgyLi/gcNlb+Lm6i42HQtinEPRRFDLrgU+CPwkaP2SpmLvq/hB1e69iJaSy9mPRqi90A9edLEpmtRwk9XopDAPDCb7EZG1QOudO1TygfQbIjmwu86kCE2XYvSc49GNz0PfELrvcSGO3zqWgNKJT0DNw/42HQtinH3RPmt8sBHZCOJYb3iU9fGoZx4FzpqLxW65qPw2UZoDnSNh7Yf8NCmIXwV2dsApc+a5rhd77q2guasGK7wZdyNwHLHbRrN+NA1gN+hIn9dHbYZm65FGZavQMOlPNCIP0+94UfXfo7yun0Rt/P92HQtirf8Mdw+0XzSjZRtxcsZrnXtQhQKegjuV0li07UoPXc3lGMsDwwHuvgWIse40rUOwO/R9O9I/Cx/xqZrUXruOcAw4N44BEk5w9D3NfzgStfORoUkbkTz7VKuR6OIJIlN16IY99O4S+97Gkpju3Xw78OA+9FGgl+RfIBDL+CZhNswKuNK1wag37pSfbKZJG/cqdC1wcCrvoVwxHz0wxt+MF3zwJtkv7DdAHTDDb+YroUkaoLETVFGytkxyJJWDkKpfXwFUhjCdM0xY9Eif5Z5GNjHtxCG6ZoPFgP9fAuREFvRvLfX8I/pWgjiyFvegErZZjHI4xTkHc1inux6xHTNMRug8i5ZZL1vAYwWmK6FII6eex0SbAe05zUrTEYlex/1LYjxH0zXQhBnosEmYBO02bze6YtS6/RCebO2LDr6B69bAN9BVTAMtzShufeHvgWJgUYUjNXLtyBtcSww1bcQMXEbsBYpUaVSstO9SZdftgB+iWK+XWXeTZqbUBx77EStOFLMDahG99gYr+mD/VExuq/Qdl3uX7oRxwD2Bm5FQ/H3UC/XRDZ0bTlKn1wXNFG/xep70nIv7TWU77Ufdi5Z/ugCTERx1o8AE8p8Jku6VheMRFVB6pHrgJ2K/r0JsIzWxr0aDacOdi1gDjgU9WQrUc7wndv4bJZ0rW4YT/3NSe9GilXKUbQ07BnIEXkkKj2zDPgt8uAatTECuAhNh+4Gvhri3CzpWt1wIPUzl7gVzX8qcQfNxn1UyXubAKcjZ+IbqIBCaio1ppj9gf9FG0KuR8tBvWu81vepn6Wx+5B3vO4TnRyMnlLeU7W2wd20bdigpa+PgJdpew/8VsC30V7zj1HWzAnUrrRZYmPUI9+I5sr3AacSfadXR7SycTDp78ELuvYx6igeB76GmzJFsdIRCf4pmhelzfHRHznGqh0enQ6cHOL63YGjUa/0PjALuAQ4AugT4jr1Sl/0YLsUeAF5ua9DI584deFq4OvB3+NJp671RN+9oGtzaTnVW4r8C4O9SBeCjugJPRsJ/gZyfKRp6WJ/1BPfS+thdiUaiJakbweUUeY29GPORml9TkSF3+JclnRNA/qNT0TVMF9C5W9vRSOZ7RNqd2/kSS8mrbpW7Dx7jMrxEw8Cn3csY7t0oKVRF47iAm5XoqFqd+fSiUbk5b4i+Pcg4DVPsgxHSz1XoPQ9a4Hn0fLbJPQDp7Em+EAk22Qk6yw0OpuBvstxKA+YC15BtbvLkTZdK+avVDbuG1GCxlTQAeV2fobywi4o+fzRaM4xyZ2IgJRxOa2jga4CvuFYlkqMQFOZi4E/A6/TXGXyPuAylN/reLSxfyRKwRuHAncPrjUyuPbxaBpyGfIhzCuS5S7k3f4a/lYJTgW+185n0qZrBW6itZ18QPWjyKqII7Z8JPKKD6zw/gLK90BTgPOAH6Cn1aIYZCllKxQWewHwo+C1lC1Qr7NlAu3HxUA0yhiInHPD0Jy2+AAN6YaiSMHVwWvhb5DjpktwFP6eS/MwcGnJMRf5C+ahB83rCX2/WliHpgPV7KZKi64VKDykC7yLpmZvJSBXZLoAZ9HsBWyr5y6mA3r6vokU8yjUe0RhAHpiP4zm+2dUcc7ZqKeqZ7ojJ+EgNOTfCdgdZfYYFxz7BP+3U/CZQcE5voautXIO+s3CkBZdA/gFzcFQ/41SGcde/z3OXWEgRbkSOKDo/94FNq/i3DFIAY9DT+VpaNfPXDSP/wQ5Jlag+Uwjzcnqh6F442ODa92AhrGlzpZKDEHLFK5SNRu104BGI1HSco/Bn66BDPr44BrPopiQyWg6FBtxGzfISB5Ewu+IblpYB8G2wG5oqDIUPeFGo5s8A00FPkLrhF3Qk+8Z4EnaHim0xV/Qsk0eiizUM+ejEeLPY7qeD10bGpxbXIPsdpr9G6lkOM3ZKTsiR9XL/sQJxReAv/kWwmiTrmQjX0A5dkMPjNTyezQHKaaeKoG+hLtlHCM8U4Af+hYiQf5OetbnW1CXW9hKOBY417cQRkXeATbzLUSC7I/m76ljMlr7rGe6o/mckT6+DPzJtxAOmInm/6liFtnY9ng7cLhvIYxW/A35RbLOEShEOTWMAp7yLURM5KWHqCcGokCavDAHBVelgtKIm3rnY+ovsCPLTCHcjrx65xzCB+kkxpvUl1e8Pc5FAQ5GOlhA9GiyeqI/sqlIxLHN8POodvKKGK6VFmaQULpZIzQ7o/j2hb4FccgiFC9yQHsfTJrfokQGWcNKCaWDn6J9C3njK8AtvoV4nXTuO47KPVh20zTwAskle0g7DxMhq0zUYfkOaDg+P+J10sg9wCG+hcg5g1HI6Yu+BfHEYuBLtZ4c1bj3Rbmhsshd2C4x34xFuwzzyl0oEYoX/kLM29RSxhtoE77hhz+huIO84jVicgXQw1fjDkisSJtRFe8Cm/oWwjMPAPvVcmKUYfnOKEFdlmOxnwD28C1EThmM8pAt8S2IZ6YBe9VyYhTj3odw2SfqETNuf+yJUgDnnafxMDW5lDqvd1Qla6nvnOL1yhUoD7qhEUzoqj1RlPYA6ifLShRmUKfVGOucPii1kQGPUsPQvFbj7oQyP75a4/n1xKtkoGhbHXIg6Uql7BOnxv1ZmnOlZZ05WOol12yJ4smzmi8tLGbcCWHG7Z7tyMeosFqepLr04C0w426fuSSQMN5okyFomdUQq1Ba5VDbXms17i1oWeAvy7wM/Nu3EDnDeu7WhO5kajXuweQnuGAdUrY81NROCxvir/pqWgk9PazVuPsBb9d4bj3yDjXMeYyaGUC2Ix9rwZlxb4G2o+UFM2639EYlbY1mZqF5d9XUYty90RLFyvY+mCHMuN1ixt2aZSgkt2pqMe7NyF9Nrdlke/db2jDjbs27hKy2Uotx90AOpjzRFeu5XbIRtkJRykeobHHVaZdqMe6u5GtIDvq+XX0LkRM6IX/OOt+CpJBQvbcZd3WYcbtjLSmqtpEyzLgTwIzbHeuADsFhtOQlFANQFWbc1WHG7ZZP0fzSaMkmhNBDS0JgpBEz7vKsQT6JqqjFuPPYi+VxtOITM+7ymHEngBm3W5ZQQ1qhHGDGnQBm3G75EIsrKMcSQiwRmnFXRzcsK4hLLNy3PP0IUaCylnnNCvK3HW8lFg7pEjPu8vQkRKnsWnruJcAXajivnhlOtuqPp53QcdQ5oRGFoVZFLcb9ARqm5mlovjnqTQw3vIU2jxgtSdy4QbG/eQoRNON2y3yUp89oiRl3Aphxu+UFVPvdaMk8QuyWq9W4XyU/OcU6okycy3wLkiPeBHoRIo46B3QGxiF/RFXUatxvk58qHJ/B5n8+sN67JdsAC8OcUKtxzyY/c6JhKDmd4ZZZwAjfQqQIZ8b9Evnpuc24/TATlRUyhPXcCWDG7YcZwBd9C5EiNidk8Fitxr0GWEA+cqkNRCMVwy0vApsGhwE747AKy6XAoa4a80ghM4jhnmnA0b6FSAnzUEdTNVGSNbwK7B/h/Hpgd+ApQgTrG7HyD2CsbyFSwIYoC0uoeuVRjPsRYJ8I59cDewBP+BYix/wd2M+3EClgZ+DZsCdFMe7nUEHAnhGukXbMuP0yH+nZ1r4F8Yxz4wb4J7B3xGukGTNu/7wMHONbCM9sDjzmutFTgDNdN+qIrYEHfAthsCPqvfPMO9SwBTZqz/0IcHzEa6SVL2Lr22ngeRRXHap8bYbYHlhKiJjyAlGN+0WgOyFd9HXCIcA9voUwALgJOMq3EJ4Yh8cR5G+A7/hqPCE6orI2RjoYgubeeeQe4GBfjY8BHvTVeEIcBtzlWwijBbcBo3wL4YEFhEhnXEwcFUceArYlW0tio4CbfQthtOBmsuu8rcRBKPR5jU8hfg/8l08BYqaJEHWQDWe8Rb4yAF0HTPQtxK5oi14WOBy43bcQRlm+B/zatxAOWUNKyio9h9Yk653pwHjfQhhlaUB1xPLAEcjPkApOAy7xLUREemD5ydPOucA3fAvhgNuQgaeC7sDHvoWIyLFIeYz00ggs9y1EwnQmhrDnhhgEKbAG6I+SCc6K8bpJsRHywD4DvBf83y3Aj7FMp2lmNepI9kQRklnkeygiLVXhz0Opn5DNrmif9hrg/1BSgL96lcgIw0qgi28hEmIRMeSPSyLDyJ3AH4kWBLIdsBvywg9FP+RotJb+VPDeCrRTpht6oDwdvBcmz1SxgqwDbgVOJERVB8Mbk4BBwOQE23Clh8V8GS1/HR5FcEjGuEej5Yo9Q543Dm3Mn4jWmW9E1RXmooX8lehGfowcXz1R7zscbSrYEG0N7ApMBe5HmTzaotxumyXAecBl1KdntgHlHeuNFK5LcHQu+ntt8LlVRcfq4LUJ1YNbSvpDcN9E23IXxXhNH3pYzIPI7/NQ1C+SVG6wfwI/BB5t53OdgDOA09EmlMuRI+GtCG33Rw+Yb6GbfRGKfy9nqG3lpXoFOdjStH7fiBJkDEa91oaoaEJfZNB9UaWOJeg3GERr412F0vUMpNnYi43/NWDf4FrLg2stDY45aFTzWnDMw+8o5yDgBFp7lbsjw6wW33pYYBjwE1KeN24/4IZ2PnM2UrgzSK4Wcz8UsrgGOcpKeQ7Nu0uP94BvE094bi1sjHqQM1EiyseRkS1HDsBbgAuA49Awbi+0uSLuyii90cNjL5qHixeg6cuzgTzvBvJdHMi7XyC/K6aih3CBvWi/UykmDXpYoG5iLO4FDizz/xNR73GqW3E4FT3NixXhX7Q06jVISV0qZ2/UA/0E/bgL0cPlfuBXwFfQ0LOvQ5nCsCmS76tI3geQ/AvQ9zkLOACtTiTFp2iacTzSrcK/2yJNegh1FuVZznN+FYqX7exeHEBz0KnI4QdaSikY9r1I5qRpRIkgfotGDu8D16J51niyky9sG/R9fgpcg+bxz6Kh6WHEu9FoAtK14gf1gDY+nzY9hMqdYWq5AnmfR6Gn5L5+xfkPY9HT823kjKnmpnam9jjffVHPPBMNZe9E87sshOuGYSe09/8uNFefgXr2KFl0O6OHY+nUqtxvmlY9/CbhphKpoCfwCXA1/p6SleiHjK3aJYdzqD4bSAfUa12DPK0PoXxzu4YRMAeMRPflYdSzXw18KcT5fZDjsJzf5PSSz04gnXrYDY1ovu1bkLAcCvyJdO/1nk77PfcQtAQyk8orDBsg478TrZlPB76G1Ziulo2ArwN3IOO8A93PSk7N4chbX86w1yPvdIFDkRMwzVSjh6nhUJT7qh64mbZT2TxE5eHeODR/WoM8yVa8Lh6+hO7nWjQ/Lq08chjaXPER5Y377uBzWdLDVDCB9D8pS6m0DHEyLZXmIbR+fB4Korif1p5PI14mouojbyAHXXFsQmdkEJcDi2n+nRaTLT1MBaPQ3KYeuRbNAwv0p3zP8BZar+zvWsCcsxVywM0DrqS1EXRA9d3OR2vXqdkPHZJSPUwNq0if06JautEysqkw/ys9bIOJf/ZAvdwCyseXr0LF8+qRUj1MBVeRnmWGWhmLeoWTqOysWYd5vtPCNsh5th7FDmxNtvQwFUxEjo8scBt68q+gsoFP9yadUYnT0V78G30LEhOR6pPHuXFkFYq+Wh3jNX3RGwW39EBTjP7BsWVw9EdZOE9C69hGeigMx7OQLqs72rDTw6cQZ+M+RjdpJgFTfAthhML0MGY6kY3euhzrSG5brBEvpoclxJFD7UzgPrJZx7oJeWUf9y2I0S6mhwnwNsntg/VNfxSoYqQf08MSoiYjGIcyV7wT8TppZRHKODLGsxxG25geliGqce+Hwv6yzOVIeYz0YnqYALGkYE0526AoKCO9mB6WIUrPvR2a6EdJIlcNfVCWisVo48B8tP/1dNyEuS5E3sptHbRlhMeVHpajH4pzONlBW6H1MIpx74abSKCNULbP0Si0cFvgQhRq+Mc2zouTaej7GunDlR6W43e43a8fSg+jGPeuuIvOeoiWQ5KpyIFyNG6idz7EYsnTiks9LOYIwufmj0ooPYxi3ENRovakeQ3lYSvlLbRO382BDHNxkzzRCI8rPSxmI5RI4keO2w2lh1GMeyWqwOCLAWgO7qJo32yyG/1U7/jQw1+jIflCx+0608NypXhc0ANVQfwYOMRRm/2QQ89IH671cF8UBdcRLU2tx41DDRzq4Qrc7lYZjZ7S64CXUQ4tV/TEigOmFZd62BX5erYP/u3auJ3pYZjiZnHSHSW9ewcllIuzxnhb+Pq+Rtu4/F0uQLnzCrg2bnD0fV333KUcjW7sSQ7aakTFBIz04UoPdwReoGVNcNfGHUoPozjUVuA3H/kjwWuUahXV0ogNy9OKCz1sQCmPLkRJGguVVrcI3u8b/DvpoCpneng7ColLml1RWdpSBqOnpovUtYMctWOEx4Ue9qdyuq3iY6eE5Qilh7XWvgKtLw8n+eWALwNP0pxkvsCo4NXF/t3htByOGenBhR6+h6qtlrIDqgF3BcpfPz9BGSCkHkYx7jmoWPi9Ea5RDU1ofv0YqogJ8FmUnH4OurFJM4zWFUuNdOBCDz+hfA70QmTcsxXej5tQehhlzv00buJqZ6BN+M8Dr6In9HSUU3w0bhLh9UJF74304UoP04AzPRyMjC0PzKftes+GP0wPE+JNsl9SZwDJz6WMaJgeliFqAMimKOvk7IjXSTMHoYAZC2JJL6aHCTAWVV/MMg/jZi3dqB3Tw4RYjALas8hWaOeZkX5MD0uIIy67ARhBNnN7n4KW4LKYCztrmB4mwAbAGteNOmK9bwGMqjE9LCGOnntd0PgOaE06K0xG8euP+hbEqArTwxLirIPVhKorfhLjNX3RB3id8jHthj/6ocSYi1GarUXBa+FYjfRwc7Kxi68RfS/vengsSlyYBW5FivILsluipl65h8obN5pQD56V+tw3AUfWenLUiiPF3IBqI4+N8Zo+2B/4AD0tP0BxwzehQmyGf37dxnvd0O/XRDb0cDlKSJIamnCTkTQJKqWxORJ5YZ8ExjuVyCjHQ5Tvua8p+kwW9dA7I4FrfQtRI9fR9p7c3YBfoRHK5Vhv7po90S7ANbQ27GXI51Mgy3rolfFo51Y9cTfKzVYNnVF6p8dRssYf0ZyVw4iXLYEpaHPIoyiHfSdgJi2N++tlzs26HnrjQFI2X2iDW9EcpxaGAOcjr+YfgNNQRJFRO1sDk9D9XAT8DO3+KuYomg37zjaulRc9dM7BpP/JeTfx3dB9gEtQqODTwFkoasponx2Bs9F+5YXAxcDebXx+A+AVNDdtb0dY3vTQGePR3Cdtzo2eaG6T1BBoF5Qt5nm0Zn4ucDiwcULt1RuboHpbP0VbGZ8DzgF2DnGNk1G112rIqx4mzkjStTyxP3riu3JabAucgJL5vYcM/mKkcBs5ksE3vVE+vEuAWcgBdhvwTWpPQNCVcFGWudLDOCPUquFKVFTgBHSTXdOI5nHLcZPvvBIjgDHA54PXJ4ElaE39meC1niOseqGRyy6oJ+4D7I6WsB4MXl/wJBuYHibG0ajO1yTH7U5GN7PmiJ8EGQZMBH6DFP9DVN30FuA7wDHIOPp4kq8SfYHPoejEM5BDaB6S/0GU5/s40lkhNfN66LrnLmYKKs3yAxQuuCiBNrZCilcot3pBAm0kxSDU8w1EPf2g4OiMDGge6uE/BZYWHcuC1yg9fy9kuMVHHzQE3qVIllVFsjyP5s7PIB9DvZBZPfRp3IX2v4ueZq+hwJAniJaDegAKLjkZzXUvQj1iVuhFs3H1Rd+31Aj7IsMfiQxwFYqVL/z9HJrndQmOzkV/z0AGvJTWD435wWvBoOt56lBMJvXQt3EXMwbVXjoOBf9PQ8O7uSg31ifI+bACzVkaaU5IPwwp/bHBtW4A7qO55FAeaUAOp3IG3ACspbzhrwzeyytjyIgepsm4i9kWhXruiuZrq1GO8kbUs4xEN/hxpKxz0HDwSWCBe3GNjGJ6aBiGYRiGYRiGYRiGYRiGYRiGYRiGYRiGYRiGYRiGYeSF/wdP+mYsAWHJcAAAAABJRU5ErkJggg==;" parent="1" vertex="1">
          <mxGeometry x="20" y="477.5" width="94.1" height="80" as="geometry" />
        </mxCell>
        <mxCell id="BpQJaqF968-kyVBsxe2n-93" value="" style="shape=image;verticalLabelPosition=bottom;labelBackgroundColor=#ffffff;verticalAlign=top;aspect=fixed;imageAspect=0;image=data:image/png,iVBORw0KGgoAAAANSUhEUgAAAPcAAADSCAYAAACW7VbWAAAACXBIWXMAAA7EAAAOxAGVKw4bAAAdI0lEQVR4nO2deZwU1bXHvzCyMygKKoqKgASI4gYacSOIcU+Ikrhikk/U+DSCMTF5CTFqjDHLM3F5yVNjXBH34BJjoiYucYmCG4rggoAiKqBGxJFF4P3xq8709HTPdHVV3Vtddb6fT316oLvqnq4+p+695557DhiGYRiGYRiGYRiGYRiGYRiGYRiGYRiGYRiGZzr4FqAC2wG7AbsCQ4GVwGigJ/BU8N4K4DGgGzAHeDp47zUP8hr1S2Z1LU3GPQ7YD5gINAE3Av8G5gIvoZu+AvgY6IFufldgODAM2BA4Jvi/qcD9wD+cfgOjXjBdc0An4AfA2+gGTQC2jHjN/sBXgb8Di4HvAxtEvKZR/5iuOeRsYDVwBrB5Qm30A84E1gA/TqgNI/2YrjliIrAKONVxu6eiIdixjtt1RSOwNTAE2B7YBfgcsA8aho4L/v5c8N72wWe3Cc7NIrnWNddz7qvQsOUE9CR1TTfgD+gH/6aH9muhDzCg6NgUGAhsErxXeF0JPAB8Ft3b0gOgc5ljNjL8rsAy4L3gdRnwOrAEWAAsDF6XJfM1Yyf3uubKuEcBjwJfAB521GZbjAX+jHqymZ5lKTAAGAHsELw2AAcCnyCjKhwvAx/QbISF1zUR2+9Ey4dFH2Bj1LsPQD38AKS0fwHWAS8As4JjYcT248J0LcCFcU8ADgG+hZ8naCW6AZcB04E7HLe9NVpu2RH96DsgI51Fs8E8DyxCHts00QM5knai+UE0Aj0IZiHDehZ4HHjTsWymaw45FLjVtxDtMB31kEmyMzAJuBkp/EK0/HIiMvIszHkbgT2RYd0EvBEcN6HvvmMN1xweXK8aTNcccij6YeuBm4GDY7zexsiZMhUNma8HLkbLJv1jbCftbAUcib77dcDS4PUYoHcV51+G1psHtfO5POuacyaQ/qdoKdOB8RHO3wk4C3gSDbGnIgPfJLpomaEP8mDfALwP/AuYQvlevTuakqxH0WEdK1wzj7rmjVHA1b6FqJFrgZEhPj8C+BnwCppnTkHhikZ17I7u2XPIUXgeWqIDOBkZduE4p8z5edK1VLAKLbHUI93Q+mRbDAHORaGKzyPl3C5hufLAEBT88QIKAV1CS+Nei/wTxWRd11LFVcC+voWIyFjgyjL/fxzwCHAX8BPgMy6Fyhkn0tKwC8dryFsP2da11DEROUuywDTgaOStvQg9Ya8H9vYpVI64g/LGvR45zrKoa6mmnodIpXRHEV+zgcloCGW4YTAKyKlk3J8G72dJ1xKJZYhrB8vZKCg/TYEDUWgCzkdRWBd7liVvnIA84/PR3unC8RLyc0xCxp0lXfsh8t2c71mWVnQiOze6lHWka897HtiOyiMl07UQNMRwjTOB+4AnYrhW2mgC9kChlIYb3kdD73KYrjnmbZLbI+ub/riPjzYqY7oWgkpRP9UyDngReCcGWdLIIrT8MsazHIbpWmiiGvd+wOVxCJJiLkeKZfjFdM0xi4iehyrtbIP2URt+MV0LSZSeezvkBHgrJlmqYTMUk+synngh8mRu67BNoyWudG1L4B60VXUeCoGdCZyEm1WTWHUtinHvhvYku6ABOA1tMDge98tT07ANIT5xpWt90fbSvYLXzdAWzcspv3ElCWLTtSjGvSvK9eyCU9CT25eBfYi+r+EHl7r2D9RzgyLi/gcNlb+Lm6i42HQtinEPRRFDLrgU+CPwkaP2SpmLvq/hB1e69iJaSy9mPRqi90A9edLEpmtRwk9XopDAPDCb7EZG1QOudO1TygfQbIjmwu86kCE2XYvSc49GNz0PfELrvcSGO3zqWgNKJT0DNw/42HQtinH3RPmt8sBHZCOJYb3iU9fGoZx4FzpqLxW65qPw2UZoDnSNh7Yf8NCmIXwV2dsApc+a5rhd77q2guasGK7wZdyNwHLHbRrN+NA1gN+hIn9dHbYZm65FGZavQMOlPNCIP0+94UfXfo7yun0Rt/P92HQtirf8Mdw+0XzSjZRtxcsZrnXtQhQKegjuV0li07UoPXc3lGMsDwwHuvgWIse40rUOwO/R9O9I/Cx/xqZrUXruOcAw4N44BEk5w9D3NfzgStfORoUkbkTz7VKuR6OIJIlN16IY99O4S+97Gkpju3Xw78OA+9FGgl+RfIBDL+CZhNswKuNK1wag37pSfbKZJG/cqdC1wcCrvoVwxHz0wxt+MF3zwJtkv7DdAHTDDb+YroUkaoLETVFGytkxyJJWDkKpfXwFUhjCdM0xY9Eif5Z5GNjHtxCG6ZoPFgP9fAuREFvRvLfX8I/pWgjiyFvegErZZjHI4xTkHc1inux6xHTNMRug8i5ZZL1vAYwWmK6FII6eex0SbAe05zUrTEYlex/1LYjxH0zXQhBnosEmYBO02bze6YtS6/RCebO2LDr6B69bAN9BVTAMtzShufeHvgWJgUYUjNXLtyBtcSww1bcQMXEbsBYpUaVSstO9SZdftgB+iWK+XWXeTZqbUBx77EStOFLMDahG99gYr+mD/VExuq/Qdl3uX7oRxwD2Bm5FQ/H3UC/XRDZ0bTlKn1wXNFG/xep70nIv7TWU77Ufdi5Z/ugCTERx1o8AE8p8Jku6VheMRFVB6pHrgJ2K/r0JsIzWxr0aDacOdi1gDjgU9WQrUc7wndv4bJZ0rW4YT/3NSe9GilXKUbQ07BnIEXkkKj2zDPgt8uAatTECuAhNh+4Gvhri3CzpWt1wIPUzl7gVzX8qcQfNxn1UyXubAKcjZ+IbqIBCaio1ppj9gf9FG0KuR8tBvWu81vepn6Wx+5B3vO4TnRyMnlLeU7W2wd20bdigpa+PgJdpew/8VsC30V7zj1HWzAnUrrRZYmPUI9+I5sr3AacSfadXR7SycTDp78ELuvYx6igeB76GmzJFsdIRCf4pmhelzfHRHznGqh0enQ6cHOL63YGjUa/0PjALuAQ4AugT4jr1Sl/0YLsUeAF5ua9DI584deFq4OvB3+NJp671RN+9oGtzaTnVW4r8C4O9SBeCjugJPRsJ/gZyfKRp6WJ/1BPfS+thdiUaiJakbweUUeY29GPORml9TkSF3+JclnRNA/qNT0TVMF9C5W9vRSOZ7RNqd2/kSS8mrbpW7Dx7jMrxEw8Cn3csY7t0oKVRF47iAm5XoqFqd+fSiUbk5b4i+Pcg4DVPsgxHSz1XoPQ9a4Hn0fLbJPQDp7Em+EAk22Qk6yw0OpuBvstxKA+YC15BtbvLkTZdK+avVDbuG1GCxlTQAeV2fobywi4o+fzRaM4xyZ2IgJRxOa2jga4CvuFYlkqMQFOZi4E/A6/TXGXyPuAylN/reLSxfyRKwRuHAncPrjUyuPbxaBpyGfIhzCuS5S7k3f4a/lYJTgW+185n0qZrBW6itZ18QPWjyKqII7Z8JPKKD6zw/gLK90BTgPOAH6Cn1aIYZCllKxQWewHwo+C1lC1Qr7NlAu3HxUA0yhiInHPD0Jy2+AAN6YaiSMHVwWvhb5DjpktwFP6eS/MwcGnJMRf5C+ahB83rCX2/WliHpgPV7KZKi64VKDykC7yLpmZvJSBXZLoAZ9HsBWyr5y6mA3r6vokU8yjUe0RhAHpiP4zm+2dUcc7ZqKeqZ7ojJ+EgNOTfCdgdZfYYFxz7BP+3U/CZQcE5voautXIO+s3CkBZdA/gFzcFQ/41SGcde/z3OXWEgRbkSOKDo/94FNq/i3DFIAY9DT+VpaNfPXDSP/wQ5Jlag+Uwjzcnqh6F442ODa92AhrGlzpZKDEHLFK5SNRu104BGI1HSco/Bn66BDPr44BrPopiQyWg6FBtxGzfISB5Ewu+IblpYB8G2wG5oqDIUPeFGo5s8A00FPkLrhF3Qk+8Z4EnaHim0xV/Qsk0eiizUM+ejEeLPY7qeD10bGpxbXIPsdpr9G6lkOM3ZKTsiR9XL/sQJxReAv/kWwmiTrmQjX0A5dkMPjNTyezQHKaaeKoG+hLtlHCM8U4Af+hYiQf5OetbnW1CXW9hKOBY417cQRkXeATbzLUSC7I/m76ljMlr7rGe6o/mckT6+DPzJtxAOmInm/6liFtnY9ng7cLhvIYxW/A35RbLOEShEOTWMAp7yLURM5KWHqCcGokCavDAHBVelgtKIm3rnY+ovsCPLTCHcjrx65xzCB+kkxpvUl1e8Pc5FAQ5GOlhA9GiyeqI/sqlIxLHN8POodvKKGK6VFmaQULpZIzQ7o/j2hb4FccgiFC9yQHsfTJrfokQGWcNKCaWDn6J9C3njK8AtvoV4nXTuO47KPVh20zTwAskle0g7DxMhq0zUYfkOaDg+P+J10sg9wCG+hcg5g1HI6Yu+BfHEYuBLtZ4c1bj3Rbmhsshd2C4x34xFuwzzyl0oEYoX/kLM29RSxhtoE77hhz+huIO84jVicgXQw1fjDkisSJtRFe8Cm/oWwjMPAPvVcmKUYfnOKEFdlmOxnwD28C1EThmM8pAt8S2IZ6YBe9VyYhTj3odw2SfqETNuf+yJUgDnnafxMDW5lDqvd1Qla6nvnOL1yhUoD7qhEUzoqj1RlPYA6ifLShRmUKfVGOucPii1kQGPUsPQvFbj7oQyP75a4/n1xKtkoGhbHXIg6Uql7BOnxv1ZmnOlZZ05WOol12yJ4smzmi8tLGbcCWHG7Z7tyMeosFqepLr04C0w426fuSSQMN5okyFomdUQq1Ba5VDbXms17i1oWeAvy7wM/Nu3EDnDeu7WhO5kajXuweQnuGAdUrY81NROCxvir/pqWgk9PazVuPsBb9d4bj3yDjXMeYyaGUC2Ix9rwZlxb4G2o+UFM2639EYlbY1mZqF5d9XUYty90RLFyvY+mCHMuN1ixt2aZSgkt2pqMe7NyF9Nrdlke/db2jDjbs27hKy2Uotx90AOpjzRFeu5XbIRtkJRykeobHHVaZdqMe6u5GtIDvq+XX0LkRM6IX/OOt+CpJBQvbcZd3WYcbtjLSmqtpEyzLgTwIzbHeuADsFhtOQlFANQFWbc1WHG7ZZP0fzSaMkmhNBDS0JgpBEz7vKsQT6JqqjFuPPYi+VxtOITM+7ymHEngBm3W5ZQQ1qhHGDGnQBm3G75EIsrKMcSQiwRmnFXRzcsK4hLLNy3PP0IUaCylnnNCvK3HW8lFg7pEjPu8vQkRKnsWnruJcAXajivnhlOtuqPp53QcdQ5oRGFoVZFLcb9ARqm5mlovjnqTQw3vIU2jxgtSdy4QbG/eQoRNON2y3yUp89oiRl3Aphxu+UFVPvdaMk8QuyWq9W4XyU/OcU6okycy3wLkiPeBHoRIo46B3QGxiF/RFXUatxvk58qHJ/B5n8+sN67JdsAC8OcUKtxzyY/c6JhKDmd4ZZZwAjfQqQIZ8b9Evnpuc24/TATlRUyhPXcCWDG7YcZwBd9C5EiNidk8Fitxr0GWEA+cqkNRCMVwy0vApsGhwE747AKy6XAoa4a80ghM4jhnmnA0b6FSAnzUEdTNVGSNbwK7B/h/Hpgd+ApQgTrG7HyD2CsbyFSwIYoC0uoeuVRjPsRYJ8I59cDewBP+BYix/wd2M+3EClgZ+DZsCdFMe7nUEHAnhGukXbMuP0yH+nZ1r4F8Yxz4wb4J7B3xGukGTNu/7wMHONbCM9sDjzmutFTgDNdN+qIrYEHfAthsCPqvfPMO9SwBTZqz/0IcHzEa6SVL2Lr22ngeRRXHap8bYbYHlhKiJjyAlGN+0WgOyFd9HXCIcA9voUwALgJOMq3EJ4Yh8cR5G+A7/hqPCE6orI2RjoYgubeeeQe4GBfjY8BHvTVeEIcBtzlWwijBbcBo3wL4YEFhEhnXEwcFUceArYlW0tio4CbfQthtOBmsuu8rcRBKPR5jU8hfg/8l08BYqaJEHWQDWe8Rb4yAF0HTPQtxK5oi14WOBy43bcQRlm+B/zatxAOWUNKyio9h9Yk653pwHjfQhhlaUB1xPLAEcjPkApOAy7xLUREemD5ydPOucA3fAvhgNuQgaeC7sDHvoWIyLFIeYz00ggs9y1EwnQmhrDnhhgEKbAG6I+SCc6K8bpJsRHywD4DvBf83y3Aj7FMp2lmNepI9kQRklnkeygiLVXhz0Opn5DNrmif9hrg/1BSgL96lcgIw0qgi28hEmIRMeSPSyLDyJ3AH4kWBLIdsBvywg9FP+RotJb+VPDeCrRTpht6oDwdvBcmz1SxgqwDbgVOJERVB8Mbk4BBwOQE23Clh8V8GS1/HR5FcEjGuEej5Yo9Q543Dm3Mn4jWmW9E1RXmooX8lehGfowcXz1R7zscbSrYEG0N7ApMBe5HmTzaotxumyXAecBl1KdntgHlHeuNFK5LcHQu+ntt8LlVRcfq4LUJ1YNbSvpDcN9E23IXxXhNH3pYzIPI7/NQ1C+SVG6wfwI/BB5t53OdgDOA09EmlMuRI+GtCG33Rw+Yb6GbfRGKfy9nqG3lpXoFOdjStH7fiBJkDEa91oaoaEJfZNB9UaWOJeg3GERr412F0vUMpNnYi43/NWDf4FrLg2stDY45aFTzWnDMw+8o5yDgBFp7lbsjw6wW33pYYBjwE1KeN24/4IZ2PnM2UrgzSK4Wcz8UsrgGOcpKeQ7Nu0uP94BvE094bi1sjHqQM1EiyseRkS1HDsBbgAuA49Awbi+0uSLuyii90cNjL5qHixeg6cuzgTzvBvJdHMi7XyC/K6aih3CBvWi/UykmDXpYoG5iLO4FDizz/xNR73GqW3E4FT3NixXhX7Q06jVISV0qZ2/UA/0E/bgL0cPlfuBXwFfQ0LOvQ5nCsCmS76tI3geQ/AvQ9zkLOACtTiTFp2iacTzSrcK/2yJNegh1FuVZznN+FYqX7exeHEBz0KnI4QdaSikY9r1I5qRpRIkgfotGDu8D16J51niyky9sG/R9fgpcg+bxz6Kh6WHEu9FoAtK14gf1gDY+nzY9hMqdYWq5AnmfR6Gn5L5+xfkPY9HT823kjKnmpnam9jjffVHPPBMNZe9E87sshOuGYSe09/8uNFefgXr2KFl0O6OHY+nUqtxvmlY9/CbhphKpoCfwCXA1/p6SleiHjK3aJYdzqD4bSAfUa12DPK0PoXxzu4YRMAeMRPflYdSzXw18KcT5fZDjsJzf5PSSz04gnXrYDY1ovu1bkLAcCvyJdO/1nk77PfcQtAQyk8orDBsg478TrZlPB76G1Ziulo2ArwN3IOO8A93PSk7N4chbX86w1yPvdIFDkRMwzVSjh6nhUJT7qh64mbZT2TxE5eHeODR/WoM8yVa8Lh6+hO7nWjQ/Lq08chjaXPER5Y377uBzWdLDVDCB9D8pS6m0DHEyLZXmIbR+fB4Korif1p5PI14mouojbyAHXXFsQmdkEJcDi2n+nRaTLT1MBaPQ3KYeuRbNAwv0p3zP8BZar+zvWsCcsxVywM0DrqS1EXRA9d3OR2vXqdkPHZJSPUwNq0if06JautEysqkw/ys9bIOJf/ZAvdwCyseXr0LF8+qRUj1MBVeRnmWGWhmLeoWTqOysWYd5vtPCNsh5th7FDmxNtvQwFUxEjo8scBt68q+gsoFP9yadUYnT0V78G30LEhOR6pPHuXFkFYq+Wh3jNX3RGwW39EBTjP7BsWVw9EdZOE9C69hGeigMx7OQLqs72rDTw6cQZ+M+RjdpJgFTfAthhML0MGY6kY3euhzrSG5brBEvpoclxJFD7UzgPrJZx7oJeWUf9y2I0S6mhwnwNsntg/VNfxSoYqQf08MSoiYjGIcyV7wT8TppZRHKODLGsxxG25geliGqce+Hwv6yzOVIeYz0YnqYALGkYE0526AoKCO9mB6WIUrPvR2a6EdJIlcNfVCWisVo48B8tP/1dNyEuS5E3sptHbRlhMeVHpajH4pzONlBW6H1MIpx74abSKCNULbP0Si0cFvgQhRq+Mc2zouTaej7GunDlR6W43e43a8fSg+jGPeuuIvOeoiWQ5KpyIFyNG6idz7EYsnTiks9LOYIwufmj0ooPYxi3ENRovakeQ3lYSvlLbRO382BDHNxkzzRCI8rPSxmI5RI4keO2w2lh1GMeyWqwOCLAWgO7qJo32yyG/1U7/jQw1+jIflCx+0608NypXhc0ANVQfwYOMRRm/2QQ89IH671cF8UBdcRLU2tx41DDRzq4Qrc7lYZjZ7S64CXUQ4tV/TEigOmFZd62BX5erYP/u3auJ3pYZjiZnHSHSW9ewcllIuzxnhb+Pq+Rtu4/F0uQLnzCrg2bnD0fV333KUcjW7sSQ7aakTFBIz04UoPdwReoGVNcNfGHUoPozjUVuA3H/kjwWuUahXV0ogNy9OKCz1sQCmPLkRJGguVVrcI3u8b/DvpoCpneng7ColLml1RWdpSBqOnpovUtYMctWOEx4Ue9qdyuq3iY6eE5Qilh7XWvgKtLw8n+eWALwNP0pxkvsCo4NXF/t3htByOGenBhR6+h6qtlrIDqgF3BcpfPz9BGSCkHkYx7jmoWPi9Ea5RDU1ofv0YqogJ8FmUnH4OurFJM4zWFUuNdOBCDz+hfA70QmTcsxXej5tQehhlzv00buJqZ6BN+M8Dr6In9HSUU3w0bhLh9UJF74304UoP04AzPRyMjC0PzKftes+GP0wPE+JNsl9SZwDJz6WMaJgeliFqAMimKOvk7IjXSTMHoYAZC2JJL6aHCTAWVV/MMg/jZi3dqB3Tw4RYjALas8hWaOeZkX5MD0uIIy67ARhBNnN7n4KW4LKYCztrmB4mwAbAGteNOmK9bwGMqjE9LCGOnntd0PgOaE06K0xG8euP+hbEqArTwxLirIPVhKorfhLjNX3RB3id8jHthj/6ocSYi1GarUXBa+FYjfRwc7Kxi68RfS/vengsSlyYBW5FivILsluipl65h8obN5pQD56V+tw3AUfWenLUiiPF3IBqI4+N8Zo+2B/4AD0tP0BxwzehQmyGf37dxnvd0O/XRDb0cDlKSJIamnCTkTQJKqWxORJ5YZ8ExjuVyCjHQ5Tvua8p+kwW9dA7I4FrfQtRI9fR9p7c3YBfoRHK5Vhv7po90S7ANbQ27GXI51Mgy3rolfFo51Y9cTfKzVYNnVF6p8dRssYf0ZyVw4iXLYEpaHPIoyiHfSdgJi2N++tlzs26HnrjQFI2X2iDW9EcpxaGAOcjr+YfgNNQRJFRO1sDk9D9XAT8DO3+KuYomg37zjaulRc9dM7BpP/JeTfx3dB9gEtQqODTwFkoasponx2Bs9F+5YXAxcDebXx+A+AVNDdtb0dY3vTQGePR3Cdtzo2eaG6T1BBoF5Qt5nm0Zn4ucDiwcULt1RuboHpbP0VbGZ8DzgF2DnGNk1G112rIqx4mzkjStTyxP3riu3JabAucgJL5vYcM/mKkcBs5ksE3vVE+vEuAWcgBdhvwTWpPQNCVcFGWudLDOCPUquFKVFTgBHSTXdOI5nHLcZPvvBIjgDHA54PXJ4ElaE39meC1niOseqGRyy6oJ+4D7I6WsB4MXl/wJBuYHibG0ajO1yTH7U5GN7PmiJ8EGQZMBH6DFP9DVN30FuA7wDHIOPp4kq8SfYHPoejEM5BDaB6S/0GU5/s40lkhNfN66LrnLmYKKs3yAxQuuCiBNrZCilcot3pBAm0kxSDU8w1EPf2g4OiMDGge6uE/BZYWHcuC1yg9fy9kuMVHHzQE3qVIllVFsjyP5s7PIB9DvZBZPfRp3IX2v4ueZq+hwJAniJaDegAKLjkZzXUvQj1iVuhFs3H1Rd+31Aj7IsMfiQxwFYqVL/z9HJrndQmOzkV/z0AGvJTWD435wWvBoOt56lBMJvXQt3EXMwbVXjoOBf9PQ8O7uSg31ifI+bACzVkaaU5IPwwp/bHBtW4A7qO55FAeaUAOp3IG3ACspbzhrwzeyytjyIgepsm4i9kWhXruiuZrq1GO8kbUs4xEN/hxpKxz0HDwSWCBe3GNjGJ6aBiGYRiGYRiGYRiGYRiGYRiGYRiGYRiGYRiGYRiGYeSF/wdP+mYsAWHJcAAAAABJRU5ErkJggg==;" parent="1" vertex="1">
          <mxGeometry x="20" y="562.5" width="94.1" height="80" as="geometry" />
        </mxCell>
        <mxCell id="BpQJaqF968-kyVBsxe2n-94" value="" style="shape=image;verticalLabelPosition=bottom;labelBackgroundColor=#ffffff;verticalAlign=top;aspect=fixed;imageAspect=0;image=data:image/png,iVBORw0KGgoAAAANSUhEUgAAAPcAAADSCAYAAACW7VbWAAAACXBIWXMAAA7EAAAOxAGVKw4bAAAdI0lEQVR4nO2deZwU1bXHvzCyMygKKoqKgASI4gYacSOIcU+Ikrhikk/U+DSCMTF5CTFqjDHLM3F5yVNjXBH34BJjoiYucYmCG4rggoAiKqBGxJFF4P3xq8709HTPdHVV3Vtddb6fT316oLvqnq4+p+695557DhiGYRiGYRiGYRiGYRiGYRiGYRiGYRiGYRiGZzr4FqAC2wG7AbsCQ4GVwGigJ/BU8N4K4DGgGzAHeDp47zUP8hr1S2Z1LU3GPQ7YD5gINAE3Av8G5gIvoZu+AvgY6IFufldgODAM2BA4Jvi/qcD9wD+cfgOjXjBdc0An4AfA2+gGTQC2jHjN/sBXgb8Di4HvAxtEvKZR/5iuOeRsYDVwBrB5Qm30A84E1gA/TqgNI/2YrjliIrAKONVxu6eiIdixjtt1RSOwNTAE2B7YBfgcsA8aho4L/v5c8N72wWe3Cc7NIrnWNddz7qvQsOUE9CR1TTfgD+gH/6aH9muhDzCg6NgUGAhsErxXeF0JPAB8Ft3b0gOgc5ljNjL8rsAy4L3gdRnwOrAEWAAsDF6XJfM1Yyf3uubKuEcBjwJfAB521GZbjAX+jHqymZ5lKTAAGAHsELw2AAcCnyCjKhwvAx/QbISF1zUR2+9Ey4dFH2Bj1LsPQD38AKS0fwHWAS8As4JjYcT248J0LcCFcU8ADgG+hZ8naCW6AZcB04E7HLe9NVpu2RH96DsgI51Fs8E8DyxCHts00QM5knai+UE0Aj0IZiHDehZ4HHjTsWymaw45FLjVtxDtMB31kEmyMzAJuBkp/EK0/HIiMvIszHkbgT2RYd0EvBEcN6HvvmMN1xweXK8aTNcccij6YeuBm4GDY7zexsiZMhUNma8HLkbLJv1jbCftbAUcib77dcDS4PUYoHcV51+G1psHtfO5POuacyaQ/qdoKdOB8RHO3wk4C3gSDbGnIgPfJLpomaEP8mDfALwP/AuYQvlevTuakqxH0WEdK1wzj7rmjVHA1b6FqJFrgZEhPj8C+BnwCppnTkHhikZ17I7u2XPIUXgeWqIDOBkZduE4p8z5edK1VLAKLbHUI93Q+mRbDAHORaGKzyPl3C5hufLAEBT88QIKAV1CS+Nei/wTxWRd11LFVcC+voWIyFjgyjL/fxzwCHAX8BPgMy6Fyhkn0tKwC8dryFsP2da11DEROUuywDTgaOStvQg9Ya8H9vYpVI64g/LGvR45zrKoa6mmnodIpXRHEV+zgcloCGW4YTAKyKlk3J8G72dJ1xKJZYhrB8vZKCg/TYEDUWgCzkdRWBd7liVvnIA84/PR3unC8RLyc0xCxp0lXfsh8t2c71mWVnQiOze6lHWka897HtiOyiMl07UQNMRwjTOB+4AnYrhW2mgC9kChlIYb3kdD73KYrjnmbZLbI+ub/riPjzYqY7oWgkpRP9UyDngReCcGWdLIIrT8MsazHIbpWmiiGvd+wOVxCJJiLkeKZfjFdM0xi4iehyrtbIP2URt+MV0LSZSeezvkBHgrJlmqYTMUk+synngh8mRu67BNoyWudG1L4B60VXUeCoGdCZyEm1WTWHUtinHvhvYku6ABOA1tMDge98tT07ANIT5xpWt90fbSvYLXzdAWzcspv3ElCWLTtSjGvSvK9eyCU9CT25eBfYi+r+EHl7r2D9RzgyLi/gcNlb+Lm6i42HQtinEPRRFDLrgU+CPwkaP2SpmLvq/hB1e69iJaSy9mPRqi90A9edLEpmtRwk9XopDAPDCb7EZG1QOudO1TygfQbIjmwu86kCE2XYvSc49GNz0PfELrvcSGO3zqWgNKJT0DNw/42HQtinH3RPmt8sBHZCOJYb3iU9fGoZx4FzpqLxW65qPw2UZoDnSNh7Yf8NCmIXwV2dsApc+a5rhd77q2guasGK7wZdyNwHLHbRrN+NA1gN+hIn9dHbYZm65FGZavQMOlPNCIP0+94UfXfo7yun0Rt/P92HQtirf8Mdw+0XzSjZRtxcsZrnXtQhQKegjuV0li07UoPXc3lGMsDwwHuvgWIse40rUOwO/R9O9I/Cx/xqZrUXruOcAw4N44BEk5w9D3NfzgStfORoUkbkTz7VKuR6OIJIlN16IY99O4S+97Gkpju3Xw78OA+9FGgl+RfIBDL+CZhNswKuNK1wag37pSfbKZJG/cqdC1wcCrvoVwxHz0wxt+MF3zwJtkv7DdAHTDDb+YroUkaoLETVFGytkxyJJWDkKpfXwFUhjCdM0xY9Eif5Z5GNjHtxCG6ZoPFgP9fAuREFvRvLfX8I/pWgjiyFvegErZZjHI4xTkHc1inux6xHTNMRug8i5ZZL1vAYwWmK6FII6eex0SbAe05zUrTEYlex/1LYjxH0zXQhBnosEmYBO02bze6YtS6/RCebO2LDr6B69bAN9BVTAMtzShufeHvgWJgUYUjNXLtyBtcSww1bcQMXEbsBYpUaVSstO9SZdftgB+iWK+XWXeTZqbUBx77EStOFLMDahG99gYr+mD/VExuq/Qdl3uX7oRxwD2Bm5FQ/H3UC/XRDZ0bTlKn1wXNFG/xep70nIv7TWU77Ufdi5Z/ugCTERx1o8AE8p8Jku6VheMRFVB6pHrgJ2K/r0JsIzWxr0aDacOdi1gDjgU9WQrUc7wndv4bJZ0rW4YT/3NSe9GilXKUbQ07BnIEXkkKj2zDPgt8uAatTECuAhNh+4Gvhri3CzpWt1wIPUzl7gVzX8qcQfNxn1UyXubAKcjZ+IbqIBCaio1ppj9gf9FG0KuR8tBvWu81vepn6Wx+5B3vO4TnRyMnlLeU7W2wd20bdigpa+PgJdpew/8VsC30V7zj1HWzAnUrrRZYmPUI9+I5sr3AacSfadXR7SycTDp78ELuvYx6igeB76GmzJFsdIRCf4pmhelzfHRHznGqh0enQ6cHOL63YGjUa/0PjALuAQ4AugT4jr1Sl/0YLsUeAF5ua9DI584deFq4OvB3+NJp671RN+9oGtzaTnVW4r8C4O9SBeCjugJPRsJ/gZyfKRp6WJ/1BPfS+thdiUaiJakbweUUeY29GPORml9TkSF3+JclnRNA/qNT0TVMF9C5W9vRSOZ7RNqd2/kSS8mrbpW7Dx7jMrxEw8Cn3csY7t0oKVRF47iAm5XoqFqd+fSiUbk5b4i+Pcg4DVPsgxHSz1XoPQ9a4Hn0fLbJPQDp7Em+EAk22Qk6yw0OpuBvstxKA+YC15BtbvLkTZdK+avVDbuG1GCxlTQAeV2fobywi4o+fzRaM4xyZ2IgJRxOa2jga4CvuFYlkqMQFOZi4E/A6/TXGXyPuAylN/reLSxfyRKwRuHAncPrjUyuPbxaBpyGfIhzCuS5S7k3f4a/lYJTgW+185n0qZrBW6itZ18QPWjyKqII7Z8JPKKD6zw/gLK90BTgPOAH6Cn1aIYZCllKxQWewHwo+C1lC1Qr7NlAu3HxUA0yhiInHPD0Jy2+AAN6YaiSMHVwWvhb5DjpktwFP6eS/MwcGnJMRf5C+ahB83rCX2/WliHpgPV7KZKi64VKDykC7yLpmZvJSBXZLoAZ9HsBWyr5y6mA3r6vokU8yjUe0RhAHpiP4zm+2dUcc7ZqKeqZ7ojJ+EgNOTfCdgdZfYYFxz7BP+3U/CZQcE5voautXIO+s3CkBZdA/gFzcFQ/41SGcde/z3OXWEgRbkSOKDo/94FNq/i3DFIAY9DT+VpaNfPXDSP/wQ5Jlag+Uwjzcnqh6F442ODa92AhrGlzpZKDEHLFK5SNRu104BGI1HSco/Bn66BDPr44BrPopiQyWg6FBtxGzfISB5Ewu+IblpYB8G2wG5oqDIUPeFGo5s8A00FPkLrhF3Qk+8Z4EnaHim0xV/Qsk0eiizUM+ejEeLPY7qeD10bGpxbXIPsdpr9G6lkOM3ZKTsiR9XL/sQJxReAv/kWwmiTrmQjX0A5dkMPjNTyezQHKaaeKoG+hLtlHCM8U4Af+hYiQf5OetbnW1CXW9hKOBY417cQRkXeATbzLUSC7I/m76ljMlr7rGe6o/mckT6+DPzJtxAOmInm/6liFtnY9ng7cLhvIYxW/A35RbLOEShEOTWMAp7yLURM5KWHqCcGokCavDAHBVelgtKIm3rnY+ovsCPLTCHcjrx65xzCB+kkxpvUl1e8Pc5FAQ5GOlhA9GiyeqI/sqlIxLHN8POodvKKGK6VFmaQULpZIzQ7o/j2hb4FccgiFC9yQHsfTJrfokQGWcNKCaWDn6J9C3njK8AtvoV4nXTuO47KPVh20zTwAskle0g7DxMhq0zUYfkOaDg+P+J10sg9wCG+hcg5g1HI6Yu+BfHEYuBLtZ4c1bj3Rbmhsshd2C4x34xFuwzzyl0oEYoX/kLM29RSxhtoE77hhz+huIO84jVicgXQw1fjDkisSJtRFe8Cm/oWwjMPAPvVcmKUYfnOKEFdlmOxnwD28C1EThmM8pAt8S2IZ6YBe9VyYhTj3odw2SfqETNuf+yJUgDnnafxMDW5lDqvd1Qla6nvnOL1yhUoD7qhEUzoqj1RlPYA6ifLShRmUKfVGOucPii1kQGPUsPQvFbj7oQyP75a4/n1xKtkoGhbHXIg6Uql7BOnxv1ZmnOlZZ05WOol12yJ4smzmi8tLGbcCWHG7Z7tyMeosFqepLr04C0w426fuSSQMN5okyFomdUQq1Ba5VDbXms17i1oWeAvy7wM/Nu3EDnDeu7WhO5kajXuweQnuGAdUrY81NROCxvir/pqWgk9PazVuPsBb9d4bj3yDjXMeYyaGUC2Ix9rwZlxb4G2o+UFM2639EYlbY1mZqF5d9XUYty90RLFyvY+mCHMuN1ixt2aZSgkt2pqMe7NyF9Nrdlke/db2jDjbs27hKy2Uotx90AOpjzRFeu5XbIRtkJRykeobHHVaZdqMe6u5GtIDvq+XX0LkRM6IX/OOt+CpJBQvbcZd3WYcbtjLSmqtpEyzLgTwIzbHeuADsFhtOQlFANQFWbc1WHG7ZZP0fzSaMkmhNBDS0JgpBEz7vKsQT6JqqjFuPPYi+VxtOITM+7ymHEngBm3W5ZQQ1qhHGDGnQBm3G75EIsrKMcSQiwRmnFXRzcsK4hLLNy3PP0IUaCylnnNCvK3HW8lFg7pEjPu8vQkRKnsWnruJcAXajivnhlOtuqPp53QcdQ5oRGFoVZFLcb9ARqm5mlovjnqTQw3vIU2jxgtSdy4QbG/eQoRNON2y3yUp89oiRl3Aphxu+UFVPvdaMk8QuyWq9W4XyU/OcU6okycy3wLkiPeBHoRIo46B3QGxiF/RFXUatxvk58qHJ/B5n8+sN67JdsAC8OcUKtxzyY/c6JhKDmd4ZZZwAjfQqQIZ8b9Evnpuc24/TATlRUyhPXcCWDG7YcZwBd9C5EiNidk8Fitxr0GWEA+cqkNRCMVwy0vApsGhwE747AKy6XAoa4a80ghM4jhnmnA0b6FSAnzUEdTNVGSNbwK7B/h/Hpgd+ApQgTrG7HyD2CsbyFSwIYoC0uoeuVRjPsRYJ8I59cDewBP+BYix/wd2M+3EClgZ+DZsCdFMe7nUEHAnhGukXbMuP0yH+nZ1r4F8Yxz4wb4J7B3xGukGTNu/7wMHONbCM9sDjzmutFTgDNdN+qIrYEHfAthsCPqvfPMO9SwBTZqz/0IcHzEa6SVL2Lr22ngeRRXHap8bYbYHlhKiJjyAlGN+0WgOyFd9HXCIcA9voUwALgJOMq3EJ4Yh8cR5G+A7/hqPCE6orI2RjoYgubeeeQe4GBfjY8BHvTVeEIcBtzlWwijBbcBo3wL4YEFhEhnXEwcFUceArYlW0tio4CbfQthtOBmsuu8rcRBKPR5jU8hfg/8l08BYqaJEHWQDWe8Rb4yAF0HTPQtxK5oi14WOBy43bcQRlm+B/zatxAOWUNKyio9h9Yk653pwHjfQhhlaUB1xPLAEcjPkApOAy7xLUREemD5ydPOucA3fAvhgNuQgaeC7sDHvoWIyLFIeYz00ggs9y1EwnQmhrDnhhgEKbAG6I+SCc6K8bpJsRHywD4DvBf83y3Aj7FMp2lmNepI9kQRklnkeygiLVXhz0Opn5DNrmif9hrg/1BSgL96lcgIw0qgi28hEmIRMeSPSyLDyJ3AH4kWBLIdsBvywg9FP+RotJb+VPDeCrRTpht6oDwdvBcmz1SxgqwDbgVOJERVB8Mbk4BBwOQE23Clh8V8GS1/HR5FcEjGuEej5Yo9Q543Dm3Mn4jWmW9E1RXmooX8lehGfowcXz1R7zscbSrYEG0N7ApMBe5HmTzaotxumyXAecBl1KdntgHlHeuNFK5LcHQu+ntt8LlVRcfq4LUJ1YNbSvpDcN9E23IXxXhNH3pYzIPI7/NQ1C+SVG6wfwI/BB5t53OdgDOA09EmlMuRI+GtCG33Rw+Yb6GbfRGKfy9nqG3lpXoFOdjStH7fiBJkDEa91oaoaEJfZNB9UaWOJeg3GERr412F0vUMpNnYi43/NWDf4FrLg2stDY45aFTzWnDMw+8o5yDgBFp7lbsjw6wW33pYYBjwE1KeN24/4IZ2PnM2UrgzSK4Wcz8UsrgGOcpKeQ7Nu0uP94BvE094bi1sjHqQM1EiyseRkS1HDsBbgAuA49Awbi+0uSLuyii90cNjL5qHixeg6cuzgTzvBvJdHMi7XyC/K6aih3CBvWi/UykmDXpYoG5iLO4FDizz/xNR73GqW3E4FT3NixXhX7Q06jVISV0qZ2/UA/0E/bgL0cPlfuBXwFfQ0LOvQ5nCsCmS76tI3geQ/AvQ9zkLOACtTiTFp2iacTzSrcK/2yJNegh1FuVZznN+FYqX7exeHEBz0KnI4QdaSikY9r1I5qRpRIkgfotGDu8D16J51niyky9sG/R9fgpcg+bxz6Kh6WHEu9FoAtK14gf1gDY+nzY9hMqdYWq5AnmfR6Gn5L5+xfkPY9HT823kjKnmpnam9jjffVHPPBMNZe9E87sshOuGYSe09/8uNFefgXr2KFl0O6OHY+nUqtxvmlY9/CbhphKpoCfwCXA1/p6SleiHjK3aJYdzqD4bSAfUa12DPK0PoXxzu4YRMAeMRPflYdSzXw18KcT5fZDjsJzf5PSSz04gnXrYDY1ovu1bkLAcCvyJdO/1nk77PfcQtAQyk8orDBsg478TrZlPB76G1Ziulo2ArwN3IOO8A93PSk7N4chbX86w1yPvdIFDkRMwzVSjh6nhUJT7qh64mbZT2TxE5eHeODR/WoM8yVa8Lh6+hO7nWjQ/Lq08chjaXPER5Y377uBzWdLDVDCB9D8pS6m0DHEyLZXmIbR+fB4Korif1p5PI14mouojbyAHXXFsQmdkEJcDi2n+nRaTLT1MBaPQ3KYeuRbNAwv0p3zP8BZar+zvWsCcsxVywM0DrqS1EXRA9d3OR2vXqdkPHZJSPUwNq0if06JautEysqkw/ys9bIOJf/ZAvdwCyseXr0LF8+qRUj1MBVeRnmWGWhmLeoWTqOysWYd5vtPCNsh5th7FDmxNtvQwFUxEjo8scBt68q+gsoFP9yadUYnT0V78G30LEhOR6pPHuXFkFYq+Wh3jNX3RGwW39EBTjP7BsWVw9EdZOE9C69hGeigMx7OQLqs72rDTw6cQZ+M+RjdpJgFTfAthhML0MGY6kY3euhzrSG5brBEvpoclxJFD7UzgPrJZx7oJeWUf9y2I0S6mhwnwNsntg/VNfxSoYqQf08MSoiYjGIcyV7wT8TppZRHKODLGsxxG25geliGqce+Hwv6yzOVIeYz0YnqYALGkYE0526AoKCO9mB6WIUrPvR2a6EdJIlcNfVCWisVo48B8tP/1dNyEuS5E3sptHbRlhMeVHpajH4pzONlBW6H1MIpx74abSKCNULbP0Si0cFvgQhRq+Mc2zouTaej7GunDlR6W43e43a8fSg+jGPeuuIvOeoiWQ5KpyIFyNG6idz7EYsnTiks9LOYIwufmj0ooPYxi3ENRovakeQ3lYSvlLbRO382BDHNxkzzRCI8rPSxmI5RI4keO2w2lh1GMeyWqwOCLAWgO7qJo32yyG/1U7/jQw1+jIflCx+0608NypXhc0ANVQfwYOMRRm/2QQ89IH671cF8UBdcRLU2tx41DDRzq4Qrc7lYZjZ7S64CXUQ4tV/TEigOmFZd62BX5erYP/u3auJ3pYZjiZnHSHSW9ewcllIuzxnhb+Pq+Rtu4/F0uQLnzCrg2bnD0fV333KUcjW7sSQ7aakTFBIz04UoPdwReoGVNcNfGHUoPozjUVuA3H/kjwWuUahXV0ogNy9OKCz1sQCmPLkRJGguVVrcI3u8b/DvpoCpneng7ColLml1RWdpSBqOnpovUtYMctWOEx4Ue9qdyuq3iY6eE5Qilh7XWvgKtLw8n+eWALwNP0pxkvsCo4NXF/t3htByOGenBhR6+h6qtlrIDqgF3BcpfPz9BGSCkHkYx7jmoWPi9Ea5RDU1ofv0YqogJ8FmUnH4OurFJM4zWFUuNdOBCDz+hfA70QmTcsxXej5tQehhlzv00buJqZ6BN+M8Dr6In9HSUU3w0bhLh9UJF74304UoP04AzPRyMjC0PzKftes+GP0wPE+JNsl9SZwDJz6WMaJgeliFqAMimKOvk7IjXSTMHoYAZC2JJL6aHCTAWVV/MMg/jZi3dqB3Tw4RYjALas8hWaOeZkX5MD0uIIy67ARhBNnN7n4KW4LKYCztrmB4mwAbAGteNOmK9bwGMqjE9LCGOnntd0PgOaE06K0xG8euP+hbEqArTwxLirIPVhKorfhLjNX3RB3id8jHthj/6ocSYi1GarUXBa+FYjfRwc7Kxi68RfS/vengsSlyYBW5FivILsluipl65h8obN5pQD56V+tw3AUfWenLUiiPF3IBqI4+N8Zo+2B/4AD0tP0BxwzehQmyGf37dxnvd0O/XRDb0cDlKSJIamnCTkTQJKqWxORJ5YZ8ExjuVyCjHQ5Tvua8p+kwW9dA7I4FrfQtRI9fR9p7c3YBfoRHK5Vhv7po90S7ANbQ27GXI51Mgy3rolfFo51Y9cTfKzVYNnVF6p8dRssYf0ZyVw4iXLYEpaHPIoyiHfSdgJi2N++tlzs26HnrjQFI2X2iDW9EcpxaGAOcjr+YfgNNQRJFRO1sDk9D9XAT8DO3+KuYomg37zjaulRc9dM7BpP/JeTfx3dB9gEtQqODTwFkoasponx2Bs9F+5YXAxcDebXx+A+AVNDdtb0dY3vTQGePR3Cdtzo2eaG6T1BBoF5Qt5nm0Zn4ucDiwcULt1RuboHpbP0VbGZ8DzgF2DnGNk1G112rIqx4mzkjStTyxP3riu3JabAucgJL5vYcM/mKkcBs5ksE3vVE+vEuAWcgBdhvwTWpPQNCVcFGWudLDOCPUquFKVFTgBHSTXdOI5nHLcZPvvBIjgDHA54PXJ4ElaE39meC1niOseqGRyy6oJ+4D7I6WsB4MXl/wJBuYHibG0ajO1yTH7U5GN7PmiJ8EGQZMBH6DFP9DVN30FuA7wDHIOPp4kq8SfYHPoejEM5BDaB6S/0GU5/s40lkhNfN66LrnLmYKKs3yAxQuuCiBNrZCilcot3pBAm0kxSDU8w1EPf2g4OiMDGge6uE/BZYWHcuC1yg9fy9kuMVHHzQE3qVIllVFsjyP5s7PIB9DvZBZPfRp3IX2v4ueZq+hwJAniJaDegAKLjkZzXUvQj1iVuhFs3H1Rd+31Aj7IsMfiQxwFYqVL/z9HJrndQmOzkV/z0AGvJTWD435wWvBoOt56lBMJvXQt3EXMwbVXjoOBf9PQ8O7uSg31ifI+bACzVkaaU5IPwwp/bHBtW4A7qO55FAeaUAOp3IG3ACspbzhrwzeyytjyIgepsm4i9kWhXruiuZrq1GO8kbUs4xEN/hxpKxz0HDwSWCBe3GNjGJ6aBiGYRiGYRiGYRiGYRiGYRiGYRiGYRiGYRiGYRiGYeSF/wdP+mYsAWHJcAAAAABJRU5ErkJggg==;" parent="1" vertex="1">
          <mxGeometry x="126.15" y="477.5" width="94.1" height="80" as="geometry" />
        </mxCell>
        <mxCell id="BpQJaqF968-kyVBsxe2n-95" value="&lt;div&gt;\&lt;/div&gt;" style="text;html=1;align=center;verticalAlign=middle;resizable=0;points=[];autosize=1;" parent="1" vertex="1">
          <mxGeometry x="50" y="437.5" width="20" height="20" as="geometry" />
        </mxCell>
        <mxCell id="BpQJaqF968-kyVBsxe2n-96" value="v1" style="text;html=1;align=center;verticalAlign=middle;resizable=0;points=[];autosize=1;" parent="1" vertex="1">
          <mxGeometry x="52.05000000000001" y="507.5" width="30" height="20" as="geometry" />
        </mxCell>
        <mxCell id="BpQJaqF968-kyVBsxe2n-97" value="p" style="text;html=1;align=center;verticalAlign=middle;resizable=0;points=[];autosize=1;" parent="1" vertex="1">
          <mxGeometry x="163.20000000000002" y="507.5" width="20" height="20" as="geometry" />
        </mxCell>
        <mxCell id="BpQJaqF968-kyVBsxe2n-98" value="v2" style="text;html=1;align=center;verticalAlign=middle;resizable=0;points=[];autosize=1;" parent="1" vertex="1">
          <mxGeometry x="47.05" y="592.5" width="30" height="20" as="geometry" />
        </mxCell>
        <mxCell id="BpQJaqF968-kyVBsxe2n-99" value="" style="shape=image;verticalLabelPosition=bottom;labelBackgroundColor=#ffffff;verticalAlign=top;aspect=fixed;imageAspect=0;image=data:image/png,iVBORw0KGgoAAAANSUhEUgAAAPcAAADSCAYAAACW7VbWAAAACXBIWXMAAA7EAAAOxAGVKw4bAAAdI0lEQVR4nO2deZwU1bXHvzCyMygKKoqKgASI4gYacSOIcU+Ikrhikk/U+DSCMTF5CTFqjDHLM3F5yVNjXBH34BJjoiYucYmCG4rggoAiKqBGxJFF4P3xq8709HTPdHVV3Vtddb6fT316oLvqnq4+p+695557DhiGYRiGYRiGYRiGYRiGYRiGYRiGYRiGYRiGZzr4FqAC2wG7AbsCQ4GVwGigJ/BU8N4K4DGgGzAHeDp47zUP8hr1S2Z1LU3GPQ7YD5gINAE3Av8G5gIvoZu+AvgY6IFufldgODAM2BA4Jvi/qcD9wD+cfgOjXjBdc0An4AfA2+gGTQC2jHjN/sBXgb8Di4HvAxtEvKZR/5iuOeRsYDVwBrB5Qm30A84E1gA/TqgNI/2YrjliIrAKONVxu6eiIdixjtt1RSOwNTAE2B7YBfgcsA8aho4L/v5c8N72wWe3Cc7NIrnWNddz7qvQsOUE9CR1TTfgD+gH/6aH9muhDzCg6NgUGAhsErxXeF0JPAB8Ft3b0gOgc5ljNjL8rsAy4L3gdRnwOrAEWAAsDF6XJfM1Yyf3uubKuEcBjwJfAB521GZbjAX+jHqymZ5lKTAAGAHsELw2AAcCnyCjKhwvAx/QbISF1zUR2+9Ey4dFH2Bj1LsPQD38AKS0fwHWAS8As4JjYcT248J0LcCFcU8ADgG+hZ8naCW6AZcB04E7HLe9NVpu2RH96DsgI51Fs8E8DyxCHts00QM5knai+UE0Aj0IZiHDehZ4HHjTsWymaw45FLjVtxDtMB31kEmyMzAJuBkp/EK0/HIiMvIszHkbgT2RYd0EvBEcN6HvvmMN1xweXK8aTNcccij6YeuBm4GDY7zexsiZMhUNma8HLkbLJv1jbCftbAUcib77dcDS4PUYoHcV51+G1psHtfO5POuacyaQ/qdoKdOB8RHO3wk4C3gSDbGnIgPfJLpomaEP8mDfALwP/AuYQvlevTuakqxH0WEdK1wzj7rmjVHA1b6FqJFrgZEhPj8C+BnwCppnTkHhikZ17I7u2XPIUXgeWqIDOBkZduE4p8z5edK1VLAKLbHUI93Q+mRbDAHORaGKzyPl3C5hufLAEBT88QIKAV1CS+Nei/wTxWRd11LFVcC+voWIyFjgyjL/fxzwCHAX8BPgMy6Fyhkn0tKwC8dryFsP2da11DEROUuywDTgaOStvQg9Ya8H9vYpVI64g/LGvR45zrKoa6mmnodIpXRHEV+zgcloCGW4YTAKyKlk3J8G72dJ1xKJZYhrB8vZKCg/TYEDUWgCzkdRWBd7liVvnIA84/PR3unC8RLyc0xCxp0lXfsh8t2c71mWVnQiOze6lHWka897HtiOyiMl07UQNMRwjTOB+4AnYrhW2mgC9kChlIYb3kdD73KYrjnmbZLbI+ub/riPjzYqY7oWgkpRP9UyDngReCcGWdLIIrT8MsazHIbpWmiiGvd+wOVxCJJiLkeKZfjFdM0xi4iehyrtbIP2URt+MV0LSZSeezvkBHgrJlmqYTMUk+synngh8mRu67BNoyWudG1L4B60VXUeCoGdCZyEm1WTWHUtinHvhvYku6ABOA1tMDge98tT07ANIT5xpWt90fbSvYLXzdAWzcspv3ElCWLTtSjGvSvK9eyCU9CT25eBfYi+r+EHl7r2D9RzgyLi/gcNlb+Lm6i42HQtinEPRRFDLrgU+CPwkaP2SpmLvq/hB1e69iJaSy9mPRqi90A9edLEpmtRwk9XopDAPDCb7EZG1QOudO1TygfQbIjmwu86kCE2XYvSc49GNz0PfELrvcSGO3zqWgNKJT0DNw/42HQtinH3RPmt8sBHZCOJYb3iU9fGoZx4FzpqLxW65qPw2UZoDnSNh7Yf8NCmIXwV2dsApc+a5rhd77q2guasGK7wZdyNwHLHbRrN+NA1gN+hIn9dHbYZm65FGZavQMOlPNCIP0+94UfXfo7yun0Rt/P92HQtirf8Mdw+0XzSjZRtxcsZrnXtQhQKegjuV0li07UoPXc3lGMsDwwHuvgWIse40rUOwO/R9O9I/Cx/xqZrUXruOcAw4N44BEk5w9D3NfzgStfORoUkbkTz7VKuR6OIJIlN16IY99O4S+97Gkpju3Xw78OA+9FGgl+RfIBDL+CZhNswKuNK1wag37pSfbKZJG/cqdC1wcCrvoVwxHz0wxt+MF3zwJtkv7DdAHTDDb+YroUkaoLETVFGytkxyJJWDkKpfXwFUhjCdM0xY9Eif5Z5GNjHtxCG6ZoPFgP9fAuREFvRvLfX8I/pWgjiyFvegErZZjHI4xTkHc1inux6xHTNMRug8i5ZZL1vAYwWmK6FII6eex0SbAe05zUrTEYlex/1LYjxH0zXQhBnosEmYBO02bze6YtS6/RCebO2LDr6B69bAN9BVTAMtzShufeHvgWJgUYUjNXLtyBtcSww1bcQMXEbsBYpUaVSstO9SZdftgB+iWK+XWXeTZqbUBx77EStOFLMDahG99gYr+mD/VExuq/Qdl3uX7oRxwD2Bm5FQ/H3UC/XRDZ0bTlKn1wXNFG/xep70nIv7TWU77Ufdi5Z/ugCTERx1o8AE8p8Jku6VheMRFVB6pHrgJ2K/r0JsIzWxr0aDacOdi1gDjgU9WQrUc7wndv4bJZ0rW4YT/3NSe9GilXKUbQ07BnIEXkkKj2zDPgt8uAatTECuAhNh+4Gvhri3CzpWt1wIPUzl7gVzX8qcQfNxn1UyXubAKcjZ+IbqIBCaio1ppj9gf9FG0KuR8tBvWu81vepn6Wx+5B3vO4TnRyMnlLeU7W2wd20bdigpa+PgJdpew/8VsC30V7zj1HWzAnUrrRZYmPUI9+I5sr3AacSfadXR7SycTDp78ELuvYx6igeB76GmzJFsdIRCf4pmhelzfHRHznGqh0enQ6cHOL63YGjUa/0PjALuAQ4AugT4jr1Sl/0YLsUeAF5ua9DI584deFq4OvB3+NJp671RN+9oGtzaTnVW4r8C4O9SBeCjugJPRsJ/gZyfKRp6WJ/1BPfS+thdiUaiJakbweUUeY29GPORml9TkSF3+JclnRNA/qNT0TVMF9C5W9vRSOZ7RNqd2/kSS8mrbpW7Dx7jMrxEw8Cn3csY7t0oKVRF47iAm5XoqFqd+fSiUbk5b4i+Pcg4DVPsgxHSz1XoPQ9a4Hn0fLbJPQDp7Em+EAk22Qk6yw0OpuBvstxKA+YC15BtbvLkTZdK+avVDbuG1GCxlTQAeV2fobywi4o+fzRaM4xyZ2IgJRxOa2jga4CvuFYlkqMQFOZi4E/A6/TXGXyPuAylN/reLSxfyRKwRuHAncPrjUyuPbxaBpyGfIhzCuS5S7k3f4a/lYJTgW+185n0qZrBW6itZ18QPWjyKqII7Z8JPKKD6zw/gLK90BTgPOAH6Cn1aIYZCllKxQWewHwo+C1lC1Qr7NlAu3HxUA0yhiInHPD0Jy2+AAN6YaiSMHVwWvhb5DjpktwFP6eS/MwcGnJMRf5C+ahB83rCX2/WliHpgPV7KZKi64VKDykC7yLpmZvJSBXZLoAZ9HsBWyr5y6mA3r6vokU8yjUe0RhAHpiP4zm+2dUcc7ZqKeqZ7ojJ+EgNOTfCdgdZfYYFxz7BP+3U/CZQcE5voautXIO+s3CkBZdA/gFzcFQ/41SGcde/z3OXWEgRbkSOKDo/94FNq/i3DFIAY9DT+VpaNfPXDSP/wQ5Jlag+Uwjzcnqh6F442ODa92AhrGlzpZKDEHLFK5SNRu104BGI1HSco/Bn66BDPr44BrPopiQyWg6FBtxGzfISB5Ewu+IblpYB8G2wG5oqDIUPeFGo5s8A00FPkLrhF3Qk+8Z4EnaHim0xV/Qsk0eiizUM+ejEeLPY7qeD10bGpxbXIPsdpr9G6lkOM3ZKTsiR9XL/sQJxReAv/kWwmiTrmQjX0A5dkMPjNTyezQHKaaeKoG+hLtlHCM8U4Af+hYiQf5OetbnW1CXW9hKOBY417cQRkXeATbzLUSC7I/m76ljMlr7rGe6o/mckT6+DPzJtxAOmInm/6liFtnY9ng7cLhvIYxW/A35RbLOEShEOTWMAp7yLURM5KWHqCcGokCavDAHBVelgtKIm3rnY+ovsCPLTCHcjrx65xzCB+kkxpvUl1e8Pc5FAQ5GOlhA9GiyeqI/sqlIxLHN8POodvKKGK6VFmaQULpZIzQ7o/j2hb4FccgiFC9yQHsfTJrfokQGWcNKCaWDn6J9C3njK8AtvoV4nXTuO47KPVh20zTwAskle0g7DxMhq0zUYfkOaDg+P+J10sg9wCG+hcg5g1HI6Yu+BfHEYuBLtZ4c1bj3Rbmhsshd2C4x34xFuwzzyl0oEYoX/kLM29RSxhtoE77hhz+huIO84jVicgXQw1fjDkisSJtRFe8Cm/oWwjMPAPvVcmKUYfnOKEFdlmOxnwD28C1EThmM8pAt8S2IZ6YBe9VyYhTj3odw2SfqETNuf+yJUgDnnafxMDW5lDqvd1Qla6nvnOL1yhUoD7qhEUzoqj1RlPYA6ifLShRmUKfVGOucPii1kQGPUsPQvFbj7oQyP75a4/n1xKtkoGhbHXIg6Uql7BOnxv1ZmnOlZZ05WOol12yJ4smzmi8tLGbcCWHG7Z7tyMeosFqepLr04C0w426fuSSQMN5okyFomdUQq1Ba5VDbXms17i1oWeAvy7wM/Nu3EDnDeu7WhO5kajXuweQnuGAdUrY81NROCxvir/pqWgk9PazVuPsBb9d4bj3yDjXMeYyaGUC2Ix9rwZlxb4G2o+UFM2639EYlbY1mZqF5d9XUYty90RLFyvY+mCHMuN1ixt2aZSgkt2pqMe7NyF9Nrdlke/db2jDjbs27hKy2Uotx90AOpjzRFeu5XbIRtkJRykeobHHVaZdqMe6u5GtIDvq+XX0LkRM6IX/OOt+CpJBQvbcZd3WYcbtjLSmqtpEyzLgTwIzbHeuADsFhtOQlFANQFWbc1WHG7ZZP0fzSaMkmhNBDS0JgpBEz7vKsQT6JqqjFuPPYi+VxtOITM+7ymHEngBm3W5ZQQ1qhHGDGnQBm3G75EIsrKMcSQiwRmnFXRzcsK4hLLNy3PP0IUaCylnnNCvK3HW8lFg7pEjPu8vQkRKnsWnruJcAXajivnhlOtuqPp53QcdQ5oRGFoVZFLcb9ARqm5mlovjnqTQw3vIU2jxgtSdy4QbG/eQoRNON2y3yUp89oiRl3Aphxu+UFVPvdaMk8QuyWq9W4XyU/OcU6okycy3wLkiPeBHoRIo46B3QGxiF/RFXUatxvk58qHJ/B5n8+sN67JdsAC8OcUKtxzyY/c6JhKDmd4ZZZwAjfQqQIZ8b9Evnpuc24/TATlRUyhPXcCWDG7YcZwBd9C5EiNidk8Fitxr0GWEA+cqkNRCMVwy0vApsGhwE747AKy6XAoa4a80ghM4jhnmnA0b6FSAnzUEdTNVGSNbwK7B/h/Hpgd+ApQgTrG7HyD2CsbyFSwIYoC0uoeuVRjPsRYJ8I59cDewBP+BYix/wd2M+3EClgZ+DZsCdFMe7nUEHAnhGukXbMuP0yH+nZ1r4F8Yxz4wb4J7B3xGukGTNu/7wMHONbCM9sDjzmutFTgDNdN+qIrYEHfAthsCPqvfPMO9SwBTZqz/0IcHzEa6SVL2Lr22ngeRRXHap8bYbYHlhKiJjyAlGN+0WgOyFd9HXCIcA9voUwALgJOMq3EJ4Yh8cR5G+A7/hqPCE6orI2RjoYgubeeeQe4GBfjY8BHvTVeEIcBtzlWwijBbcBo3wL4YEFhEhnXEwcFUceArYlW0tio4CbfQthtOBmsuu8rcRBKPR5jU8hfg/8l08BYqaJEHWQDWe8Rb4yAF0HTPQtxK5oi14WOBy43bcQRlm+B/zatxAOWUNKyio9h9Yk653pwHjfQhhlaUB1xPLAEcjPkApOAy7xLUREemD5ydPOucA3fAvhgNuQgaeC7sDHvoWIyLFIeYz00ggs9y1EwnQmhrDnhhgEKbAG6I+SCc6K8bpJsRHywD4DvBf83y3Aj7FMp2lmNepI9kQRklnkeygiLVXhz0Opn5DNrmif9hrg/1BSgL96lcgIw0qgi28hEmIRMeSPSyLDyJ3AH4kWBLIdsBvywg9FP+RotJb+VPDeCrRTpht6oDwdvBcmz1SxgqwDbgVOJERVB8Mbk4BBwOQE23Clh8V8GS1/HR5FcEjGuEej5Yo9Q543Dm3Mn4jWmW9E1RXmooX8lehGfowcXz1R7zscbSrYEG0N7ApMBe5HmTzaotxumyXAecBl1KdntgHlHeuNFK5LcHQu+ntt8LlVRcfq4LUJ1YNbSvpDcN9E23IXxXhNH3pYzIPI7/NQ1C+SVG6wfwI/BB5t53OdgDOA09EmlMuRI+GtCG33Rw+Yb6GbfRGKfy9nqG3lpXoFOdjStH7fiBJkDEa91oaoaEJfZNB9UaWOJeg3GERr412F0vUMpNnYi43/NWDf4FrLg2stDY45aFTzWnDMw+8o5yDgBFp7lbsjw6wW33pYYBjwE1KeN24/4IZ2PnM2UrgzSK4Wcz8UsrgGOcpKeQ7Nu0uP94BvE094bi1sjHqQM1EiyseRkS1HDsBbgAuA49Awbi+0uSLuyii90cNjL5qHixeg6cuzgTzvBvJdHMi7XyC/K6aih3CBvWi/UykmDXpYoG5iLO4FDizz/xNR73GqW3E4FT3NixXhX7Q06jVISV0qZ2/UA/0E/bgL0cPlfuBXwFfQ0LOvQ5nCsCmS76tI3geQ/AvQ9zkLOACtTiTFp2iacTzSrcK/2yJNegh1FuVZznN+FYqX7exeHEBz0KnI4QdaSikY9r1I5qRpRIkgfotGDu8D16J51niyky9sG/R9fgpcg+bxz6Kh6WHEu9FoAtK14gf1gDY+nzY9hMqdYWq5AnmfR6Gn5L5+xfkPY9HT823kjKnmpnam9jjffVHPPBMNZe9E87sshOuGYSe09/8uNFefgXr2KFl0O6OHY+nUqtxvmlY9/CbhphKpoCfwCXA1/p6SleiHjK3aJYdzqD4bSAfUa12DPK0PoXxzu4YRMAeMRPflYdSzXw18KcT5fZDjsJzf5PSSz04gnXrYDY1ovu1bkLAcCvyJdO/1nk77PfcQtAQyk8orDBsg478TrZlPB76G1Ziulo2ArwN3IOO8A93PSk7N4chbX86w1yPvdIFDkRMwzVSjh6nhUJT7qh64mbZT2TxE5eHeODR/WoM8yVa8Lh6+hO7nWjQ/Lq08chjaXPER5Y377uBzWdLDVDCB9D8pS6m0DHEyLZXmIbR+fB4Korif1p5PI14mouojbyAHXXFsQmdkEJcDi2n+nRaTLT1MBaPQ3KYeuRbNAwv0p3zP8BZar+zvWsCcsxVywM0DrqS1EXRA9d3OR2vXqdkPHZJSPUwNq0if06JautEysqkw/ys9bIOJf/ZAvdwCyseXr0LF8+qRUj1MBVeRnmWGWhmLeoWTqOysWYd5vtPCNsh5th7FDmxNtvQwFUxEjo8scBt68q+gsoFP9yadUYnT0V78G30LEhOR6pPHuXFkFYq+Wh3jNX3RGwW39EBTjP7BsWVw9EdZOE9C69hGeigMx7OQLqs72rDTw6cQZ+M+RjdpJgFTfAthhML0MGY6kY3euhzrSG5brBEvpoclxJFD7UzgPrJZx7oJeWUf9y2I0S6mhwnwNsntg/VNfxSoYqQf08MSoiYjGIcyV7wT8TppZRHKODLGsxxG25geliGqce+Hwv6yzOVIeYz0YnqYALGkYE0526AoKCO9mB6WIUrPvR2a6EdJIlcNfVCWisVo48B8tP/1dNyEuS5E3sptHbRlhMeVHpajH4pzONlBW6H1MIpx74abSKCNULbP0Si0cFvgQhRq+Mc2zouTaej7GunDlR6W43e43a8fSg+jGPeuuIvOeoiWQ5KpyIFyNG6idz7EYsnTiks9LOYIwufmj0ooPYxi3ENRovakeQ3lYSvlLbRO382BDHNxkzzRCI8rPSxmI5RI4keO2w2lh1GMeyWqwOCLAWgO7qJo32yyG/1U7/jQw1+jIflCx+0608NypXhc0ANVQfwYOMRRm/2QQ89IH671cF8UBdcRLU2tx41DDRzq4Qrc7lYZjZ7S64CXUQ4tV/TEigOmFZd62BX5erYP/u3auJ3pYZjiZnHSHSW9ewcllIuzxnhb+Pq+Rtu4/F0uQLnzCrg2bnD0fV333KUcjW7sSQ7aakTFBIz04UoPdwReoGVNcNfGHUoPozjUVuA3H/kjwWuUahXV0ogNy9OKCz1sQCmPLkRJGguVVrcI3u8b/DvpoCpneng7ColLml1RWdpSBqOnpovUtYMctWOEx4Ue9qdyuq3iY6eE5Qilh7XWvgKtLw8n+eWALwNP0pxkvsCo4NXF/t3htByOGenBhR6+h6qtlrIDqgF3BcpfPz9BGSCkHkYx7jmoWPi9Ea5RDU1ofv0YqogJ8FmUnH4OurFJM4zWFUuNdOBCDz+hfA70QmTcsxXej5tQehhlzv00buJqZ6BN+M8Dr6In9HSUU3w0bhLh9UJF74304UoP04AzPRyMjC0PzKftes+GP0wPE+JNsl9SZwDJz6WMaJgeliFqAMimKOvk7IjXSTMHoYAZC2JJL6aHCTAWVV/MMg/jZi3dqB3Tw4RYjALas8hWaOeZkX5MD0uIIy67ARhBNnN7n4KW4LKYCztrmB4mwAbAGteNOmK9bwGMqjE9LCGOnntd0PgOaE06K0xG8euP+hbEqArTwxLirIPVhKorfhLjNX3RB3id8jHthj/6ocSYi1GarUXBa+FYjfRwc7Kxi68RfS/vengsSlyYBW5FivILsluipl65h8obN5pQD56V+tw3AUfWenLUiiPF3IBqI4+N8Zo+2B/4AD0tP0BxwzehQmyGf37dxnvd0O/XRDb0cDlKSJIamnCTkTQJKqWxORJ5YZ8ExjuVyCjHQ5Tvua8p+kwW9dA7I4FrfQtRI9fR9p7c3YBfoRHK5Vhv7po90S7ANbQ27GXI51Mgy3rolfFo51Y9cTfKzVYNnVF6p8dRssYf0ZyVw4iXLYEpaHPIoyiHfSdgJi2N++tlzs26HnrjQFI2X2iDW9EcpxaGAOcjr+YfgNNQRJFRO1sDk9D9XAT8DO3+KuYomg37zjaulRc9dM7BpP/JeTfx3dB9gEtQqODTwFkoasponx2Bs9F+5YXAxcDebXx+A+AVNDdtb0dY3vTQGePR3Cdtzo2eaG6T1BBoF5Qt5nm0Zn4ucDiwcULt1RuboHpbP0VbGZ8DzgF2DnGNk1G112rIqx4mzkjStTyxP3riu3JabAucgJL5vYcM/mKkcBs5ksE3vVE+vEuAWcgBdhvwTWpPQNCVcFGWudLDOCPUquFKVFTgBHSTXdOI5nHLcZPvvBIjgDHA54PXJ4ElaE39meC1niOseqGRyy6oJ+4D7I6WsB4MXl/wJBuYHibG0ajO1yTH7U5GN7PmiJ8EGQZMBH6DFP9DVN30FuA7wDHIOPp4kq8SfYHPoejEM5BDaB6S/0GU5/s40lkhNfN66LrnLmYKKs3yAxQuuCiBNrZCilcot3pBAm0kxSDU8w1EPf2g4OiMDGge6uE/BZYWHcuC1yg9fy9kuMVHHzQE3qVIllVFsjyP5s7PIB9DvZBZPfRp3IX2v4ueZq+hwJAniJaDegAKLjkZzXUvQj1iVuhFs3H1Rd+31Aj7IsMfiQxwFYqVL/z9HJrndQmOzkV/z0AGvJTWD435wWvBoOt56lBMJvXQt3EXMwbVXjoOBf9PQ8O7uSg31ifI+bACzVkaaU5IPwwp/bHBtW4A7qO55FAeaUAOp3IG3ACspbzhrwzeyytjyIgepsm4i9kWhXruiuZrq1GO8kbUs4xEN/hxpKxz0HDwSWCBe3GNjGJ6aBiGYRiGYRiGYRiGYRiGYRiGYRiGYRiGYRiGYRiGYeSF/wdP+mYsAWHJcAAAAABJRU5ErkJggg==;" parent="1" vertex="1">
          <mxGeometry x="126.15" y="562.5" width="94.1" height="80" as="geometry" />
        </mxCell>
        <mxCell id="BpQJaqF968-kyVBsxe2n-100" value="v3" style="text;html=1;align=center;verticalAlign=middle;resizable=0;points=[];autosize=1;" parent="1" vertex="1">
          <mxGeometry x="155.9" y="592.5" width="30" height="20" as="geometry" />
        </mxCell>
        <mxCell id="0yc9BrEZYy1KqK9iRJSg-1" value="la séparation du peloton concerne p ainsi que les véhicules qui le composent (5)" style="text;html=1;align=center;verticalAlign=middle;resizable=0;points=[];autosize=1;" vertex="1" parent="1">
          <mxGeometry x="150" y="650" width="440" height="20" as="geometry" />
        </mxCell>
        <mxCell id="0yc9BrEZYy1KqK9iRJSg-2" value="" style="shape=image;verticalLabelPosition=bottom;labelBackgroundColor=#ffffff;verticalAlign=top;aspect=fixed;imageAspect=0;image=data:image/png,iVBORw0KGgoAAAANSUhEUgAAAlEAAAEdCAMAAAAb0MJmAAADAFBMVEUAAAAAADMAAGYAAJkAAMwAAP8AMwAAMzMAM2YAM5kAM8wAM/8AZgAAZjMAZmYAZpkAZswAZv8AmQAAmTMAmWYAmZkAmcwAmf8AzAAAzDMAzGYAzJkAzMwAzP8A/wAA/zMA/2YA/5kA/8wA//8zAAAzADMzAGYzAJkzAMwzAP8zMwAzMzMzM2YzM5kzM8wzM/8zZgAzZjMzZmYzZpkzZswzZv8zmQAzmTMzmWYzmZkzmcwzmf8zzAAzzDMzzGYzzJkzzMwzzP8z/wAz/zMz/2Yz/5kz/8wz//9mAABmADNmAGZmAJlmAMxmAP9mMwBmMzNmM2ZmM5lmM8xmM/9mZgBmZjNmZmZmZplmZsxmZv9mmQBmmTNmmWZmmZlmmcxmmf9mzABmzDNmzGZmzJlmzMxmzP9m/wBm/zNm/2Zm/5lm/8xm//+ZAACZADOZAGaZAJmZAMyZAP+ZMwCZMzOZM2aZM5mZM8yZM/+ZZgCZZjOZZmaZZpmZZsyZZv+ZmQCZmTOZmWaZmZmZmcyZmf+ZzACZzDOZzGaZzJmZzMyZzP+Z/wCZ/zOZ/2aZ/5mZ/8yZ///MAADMADPMAGbMAJnMAMzMAP/MMwDMMzPMM2bMM5nMM8zMM//MZgDMZjPMZmbMZpnMZszMZv/MmQDMmTPMmWbMmZnMmczMmf/MzADMzDPMzGbMzJnMzMzMzP/M/wDM/zPM/2bM/5nM/8zM////AAD/ADP/AGb/AJn/AMz/AP//MwD/MzP/M2b/M5n/M8z/M///ZgD/ZjP/Zmb/Zpn/Zsz/Zv//mQD/mTP/mWb/mZn/mcz/mf//zAD/zDP/zGb/zJn/zMz/zP///wD//zP//2b//5n//8z///8AAABycnJlZWUuLi4wMDBYWFgyMjJra2tXV1c3Nze5ubkzMzN5eXmUlJRJSUkoKCgLCwu4uLgxMTFpaWlSUlITExMlJSV0dHSRkZEvLy+goKBISEg4ODijo6OWlpY9PT0WFhaAgIBnZ2e8vLxhYWFHR0cbGxs8PDxNCQ6KAAAA2XRSTlP///////////////////////////////////////////////////////////////////////////////////////////////////////////////////////////////////////////////////////////////////////////////////////////////////////////////////////////////////////////////////////////////////////////////////////////////8A9EGGvAAAAAlwSFlzAAAOxAAADsQBlSsOGwAAG5RJREFUeJztXYGhs6wOdR/2YR/2yT6ucyUJiAoKQhW5Oe9/vV+rrQjHJISQTLNA0BLT2w0QDAZhlKAthFGCthBGCdpCGCVoC2GUoC2EUYK2EEYJ2kIYJWgLYZSgLYRRgrYQRgnaQhglaAthlKAthFGCthBGCdpCGCVoC2GUoC2EUYK2EEYJ2kIYJWgLYZSgLYRRgrYQRgnaQhglaAthlKAthFGCthBGCdpCGCVoC2GUoC2EUYK2EEYJ2kIYJWgLYZSgLYRRgrYQRgnaQhj1LGD539gQRj0KDbMxbzfitxBGPQkN7mVcCKN+AeVfNgA1xw+MBGFUEWDRWWBWIWMMvgH6Yw8ZSxxl6IU+opflP/rE/RkUwqgyaGVAT45S2tj/ZqNnYwWPgllPllGLYsOX5RXAfjIZo/TM39NDCylhVBn0wpp5ckJmYQkAMsTKJntI6+VjZI59WZhEXJuQXswoM3SnD31zP8CkV2ZYbgREQdFjyYaMwReliFCAHHRMEkYJPJA9ASMWyqCis7CsweMopzRST5N9RacIowQHkORZLWsrfNgsAjzkjysTUEdpOoO1nthRAgcreZAQ1k9pbSfLKFRySB+zmFmLKb7YVviCStHSiw0v/oMybFgIo4qwWNjk87Y0MgqMxqkd8mtaZnfWcAeytSxt1ITscbKKqaSGdnFWMwq4e+wfE3hqwK02LP+wTpza63QBlDzhe3oXdIH/uznigOrODC2iahkF2qAZAfisAnpnEMvjCPgswrQA8ITvo9YCwl4YoifSqGQUOoS5p5R3xbCZilxzq1hDUEpV29RmHtphPjeQUfhHg/O5KP7Ae2G80aDf6cpAI0G47M8a2iAyY0yMNmNo71+i1o5SRJ2ZvX3OOaMco8yi84hk8MYkYGELzuU1BIp4Zg2tWSejVh5ddDyGumFezCgrlIIJDTOK/uCkx6iJdMX0wvNtGwZOhs7rkhppaEM6mR6IXimVnvmA+wdONV9oWhRVjLJPuhVNOD46ZBROno3zvxCXphcsKZJJGEXCiph6njS0onGgyVefc3ovZGd0mvqpwfIPUOzHmOwj280TUcUot+6gSEYFWs8Gc2i/Rk+3rl5gFDFIeQuPjD3+49pKXGrgd3TOBGhHThay6FTF8AYmjl9Q9DOeXgL5ahiFes6qDB4sZFQwG/IzI+qG6fmnyBCrKRYAu54F5bRKVWfg3bfzgCWd1hwRtfyLPqqnluL5w8y9zP1r/C1pz6RO1naqGWWfHJI+4VyPDvt7BX/8UdjGLL0OR0Yh0RTdvHEzh1vD7+kTgeVW5U2Dj4yZOX6BKEayd+l7q/Po+p0E8tUwCu/W3g5pd+0CPaiHOYJjdoL55ohVgNSE5jnDtNLeNlYtkwoO0nUutMIRIQGUJYbMXa8DCVlWBhtGsSFoe3eizzoJ5Kuyo+xCFqy/sjyQyjmmgJ/cadJsMz6/+KDY70qMClQzwdtU7m3JqFvxk3/+XWHFQpbWprG5jveWTMCTaKBHo5MgmUrvAXeqX8Pzr7A/5YW51MROfOIKD8t6mEWUY3qZHVUudG7cvhOyq7/YmxJ25uPm0nxXQzDK47qDX5jd2ifcsONpJmMEo1HYp+FcU25YcpVGzZNR5nR3QpaauokDnefAUIUBGXVJqTeWL+x+ARRA5BgAZbSf4hlHJC+a8tTSor+q7gRKOOWELJE9nOvhT3nDj3ZtdRLI1wevf4XdxBqOunj1SWeNRyWfdpe+ghOyxHpw/igSskCGIbpsWjnUWmBsRjlkBD704iAM4YUsCdSFzihIeXGLI9iVY3knTv//waj5MobkWhe1Ha9MAu8E6EGyBv/qJZDvvzCqFtB6ZlGmPzOu3gmhWjNq6XiNuO3T6xMN7Kfjb5acfGl99eEwnxszyvrxnCcZqhcgesJQj8dv0ZBR++d4mWj3xilAvN2KEF01pgmaMQpiau4XyuIucCUEoYv8jL+9gxsPXXdPxRbNPJyJnuklEAw2MeKQHzH+6xsom6L5x6LsqXgSP1+F6eLG4ThRgCzpAL8XsvkR7refikfRhlFn/d6BlIrLgRy2vN/2FUcTorlLowWaMOr8WXl9m0my33sckBTi/H9AhpaiBaN6XCUOcNLp3aiNS2onH8tubsGhAaOuZdCr7tzTLj+TUo8KsAtZc9LO3gRtA0Zd8+VNvXfxDCcPP72r/jbxe5NS9YzKoct72v6ydQniPJ+m4Uxant9EX5SqZ1RO178npC5bl6BOT6rk7lPxDurzR2X1/Vv3nPH49vWEx3D3qXgH1YzKG5CXhi2rq3sajhgyTO+enopqRuWNx0tqL6unOxqOaFM+9lTUMipX4L5zy1lX3bP9TR0SoVTWw9jRU1HNqEzh84qMymycPn37LI7UyJond2RJPcWoV/wHmU/u9rS2Y3MReXI8eFy7y7rOOIzKDgrpmVHhoDVuJ6hN2qztVvhFslwKl0xG9aP2hmZU5oP702mD2vTwhkD45opSmR33+nK8RzWjcu2o/8Yot6H0JLMfb9w8v3ruNqxhGJVtmffMqLPzsNjiNsewcZ+Hf/EcX9DR1Wv0W8mBjwN1Gf5NZULb9FWugdSNIfWYZV55HbzWvMvEtE1ueuRsMaMiX7D7eo3P1me0S2ZEFT1tLB8Wf9Eka1xBR6rXOLscpDZlps1YYLOp2Nw82uZecLvKj1mGdOLfZxiGUbl30uCG98lN1xoPaprsMB8URKnWiwlSzFHrMnYaRcY1FUUDzj9M+S1wk7gv6OhTkFISDOO+Z99oE2QGjOnFUGgKo+IoVfORoT0kN/U1HrxS2ifDKGRUtJEmSFrtq+s58eJVG3DiXlfQ0WXeoYJD2qWuoqKOnK/bMSqS8TZwKvw/Rv1kXS9i2RySm641HnwCyn08+bVVSyWFXSbF2BlazfOmkgTmnfNM4s9N8EFIObNm0NQsljCPGFajcDLq9GnLfBT7cXH2EnvAhivZrmbiVJ5BHfJEctNFH8Ga3HRnkmTw2CpMm5IzeRe+TOy8EmJfcNhLGV/Q0f2epgyawG3DpGhqdtpvvUIa/857cEkWnhhdnISGrSWSVmTAAj52BodwsXVNLLkpXh0/15yRcqdAMrpZT4wEp3z2WivwbN5hq+HIOF8rMmJSTDxHe1uL7KnJJ/+kvLczG/QKXJ6xq/yf/87DeXnLCiuMn9+vM2wX4rAcmKmnyaK107hjctNjjYdjutyMgGWiU5JTC2kMl/owmKyJLXX6UFHyJmPFnD3bFXTkeo2a27PY68bMgXzTeAub5NeHhrm/eepsJEZdDJudhl2Qzhm24CwMzckzqd4MT6Lmg4xirUeNUOvriox+Ri6h8vO6c3Nz/mGAeT5mbYLN27WgI7+H3em71tFENd5G32d5jOrGjGqyF+b0bmjETuEMW+3n12i7sLdJBVwJk5tuazyYqIzKyW2HzSNGRYhflOS8NBOmCSeqh4Yx07JWJTraENNkv97Z7aQe/gDhNNp5fFZy0JhGkptuajywY2rPoIwcxsh3lWhkWZLz4oKOJpp/hC/t7uWfRdwh1m4BMFwD0Yn/6ZpSbNiyAQuAditXKF8lEr6GyU1djQe8FFvmB26nu5qbaqufo6SKPhZFCYsaJyLA2QmmeAv6M45+Znqt8h4YnuzTvVu47CFwLaKcYUtTb+sIx6mUUtq5cSyOyU1djQflyzpE8v0m+trYpoJvqqkvF/sDxPozjo5EVMPcLMcnFLOHTFPG6nn0jO2Hx+Sm88EAjgmUaJyt3j3yHeY5OTYJIFU4pKu2t8oflbhZaFdU79r4jNvhB57HyVOb+r4tUq3Zfny2evQaGmm99Gi0yx5yldgt1bHbBqSJ2SJ3TqP0cyf9GRziaUNfhGrDqHPz9fWZbTA8J3Or+Q77eTVmLdZoXNUZ/1E5xy6asS6MT1QNrfDnf4wm/qgr4fH2PXu39CW5S9gP2hVrPGWpI1k2sS67y5WX67MI/EOZNKqvUge2nTIs2Iy7AeOqhpa1wUqyrPOuT8HfQR/a6wrggPrYgyy2vE0prCCZNSW6HFCoqD7sIipOfiA7lsOk3Pwvo9eoYHC+Us1FHFY4F2rhuOYaSak7AtOqOFSkfqhZj+X9hp7ZddymSQ1Ryah8LZ4Z6wmG64AY79w7nOLY5sqF5HEr22kTv6dflCVZG+6cLNn9CYtZrlSPQqqSUflP7VX8AVWUuVxvOH5v/WLN9UNsf+mHCXl99WJwzMjvz/4MKEYdo0qe29S5bumqzpHjiXXw27vLF/xYMK6/Lm9Dd60nqofeoj/fRhWjymausQB9ZEG7mhSenetFXQBvyTWC+3pk2IAtotr+7AJVjCq7p21/8drnL0YsXFZV9PAXem3sxqkHKyDStE1X9Wc3qGFU6S2t4ZDm9wX4gAg7kT4pdIaDTi3K/gQU75ezpL5Bn0KqhlHFHgHa7/Ir0RS7IAWQlz/Oj64aA+3HKV5a6FNIVTCq/IY0hSXdv2QxOH68fL3uycFi12v57K1LIVXBqHJqPB8wQoS6EU/3wmCVd06X070KRpV3+uNi2sb7mVvXfX6wbjSyS7V3n1F3bufpJx9uuA74m48P1hf6Mwf3GZWuqJI2CF4S02fbF8q/8yMk+8ak+7OnsFOH+4xK3Y3WmIcninfEdPKqoNPLYo8PVorCdvkuZQf2aEhVMCr+MQTZcY4H+2KUz0AXAQ/Wc8RK9Cftgk91doeGVHNG8XbyxEC80gMnuywvGAWqaAdoDVLkiO9svfjSm7jNqJQ/TlE2ktQugruXq8EtRtnBcgu4T+CUHKlkRK/HW0dwn1GJmyQBnRLTX2IUrbZ1wahkK4RRH2IUZ5YihbPuUvCbXDDgzx+LfHR2+vFYOifamTd9KEYlboYZNYDW60ZGnei2/8Ao5bO6xfAdRpl+7KgTd9pIjErdp3F5cUu+9FucbCPuf67HfRZvxlBzvSQ5XNLJGMQflUaqP23sT2qJfSxGJePGVXobUmeMshlhU8eaSdPTbYLXicvV2SaqsXzmJ9ZJOg1Eb+t6bb8TAdiyHttFqdVduamGdqdvxlrX+9Ba+XuxB7GEs74122poH+rPU7wRH/VQTPDhuiWolqZEJU4wfbTv7eFtNTSJj7oTwwkU+v14R5STf9VMFdXQ3Aov5jGntJpEAzy8r4YmMZzlT4jiTR/3r3kLN9LXrfdWUw3N+R60qz3ExdDo8L4a2o24/dIvPIFn98Io3pj2IDCfZcVemIpqaOCmaJZZRrH28yW3DtXQSvulz43qj+7X47nwY1lUwadHLd2vt95ZRTU0p/SQWVj/jOUUp0UO0rjTpcr7s0M8vKcYLKVwoH/OKgjzNZfvKXaoqIZmXHqMCVjhacdQPc+R2lVl/dmlFfV83gNgb91PtxUDHLJ/3817UFMNjT3yZHhN6JtyrDRzjFGS9+BOLhETduBp2vd7SP1oSf+HuVkqqqHxqjm+Lp+a5VNbmwv4cKQa2r/PzXIrf9T2KwANUv34S5wIvoLnPzS6aqqhWTIZdphbmwo/tUUl+HCkGtq/zx9VEDh+diJn/bnNq1TyqN1Jmb+2+ZWqamhWugG/3Vw9cGFtq6Hl57jrlVD1eTgzn6qM0zhhYkGOTZfgLo+MmU/19rSqamhY2wbSa8WRamiZTOkxMIrx86qyBSchYJuK05UDCsDVsXRxksWs0dqlTKyphgZW550WWopUQ8tqZL8Sqkk+82u23HuiQvpsEUv4mvF7J/WtPXYi44VqaNn5zDtFixWRK/fh+0akVlyJ+KolPYSHXKbJfr8/z9CmYuOp2d1BB9AmBOtJOh0tsFtSOuDURX920MITtFm1PRmoPoqMab+vJT0htNQ3qZrqzyLdnz08n+doFQcQNzi6KVqHa9TsUYy3CdaSpQ+vZUeRaGQv/XmCdpElZp9eM1KsIg+Z/Qb5qaGXBzsIy4qU13SfgFOP7yPWn50rPETLWCXw7iRD3uu7P6RzWqXzTVRco95svQNXT5qb6j2VGWWVH8O+Pztp1gVaR7/xhL+uFGYqWVAIirrNugpNtvfuR1dM3dZtXz/srXgPsemp5Mot8HQ8ZRby/UZZo8+ESQ9K4ALqQ+Pt8BHpROiRUb7+Lg0uRnbjoHMQku1gVmE587IMl+E6ZL1ovA3enygUoEdGUdjRMnnkCG677E8BtRizBzD5yKQc/ZgzHruAiM7klDCqEi7C0UapuchuinwDYpfyRlEywcKKG6t5vakZYVQlaGMS5of1Ybb4IYYXIZt0PqOyhmNPu67GsOtlvAM6ZBSJJFqDW6O8F8GFIoom0fmMyhyOHaO60ntdNeYSHTKKFB3P5bSLI7aVq1cGea13aUdlDkdnem6D7hdeNuiQUQt3fCS3i+zG/Sbz7CO73Ubc62LUmVTpedR6ZvsRHTIKN3hrKjjlI7tdOLaaiETsNrie7FdWUO8BnzKjemQUYRewffgc1V1Gnc7c4TgyqhvJIIx6BGS4X5+XOxzH83oRW720IxOfZRTul8s47T6jerFfhFF9oYJRnaibToidC2EUIS4IuhjLPnidjeEZlfmE96ta+m1ZHOMz6usezp49ZTEMz6jP+8z7bVkcwzMqc6U4edbrVszrDSjE+IzKesZPkrO3VzpnIb6H7RhfM6P+AaOyhuREEDTWOmCXvLeLR0FyheN2jK8pvX/AqJwxOWVdUyFBqc23Cc7B1xKKbMf4mtL7D4zKoMQTw6aJSmsixS2saIpsx/ic0vsXjLoclcIknWaTewB8ynzeRLpJnQ+4286ubFM2TpcpUc9+MwaeqCeblfG4HeNzSu9fMOpqWArlgM0ypny/LSYRblg1mkIFOXU+bbBAoWQwGSxmT9QsmzCHosscTIdtBuXIdozPKb3/wajzIKmchE3hm0kFhhDyhHPkgwlS5xtXuxIoUxkKHlduApll/680Rw+6nLDzvAl1DtqWnUPjvPzavE0m4iQrZhg0LZad/gejzihVOhdcN1PMLE6CfNQ+db7brkMn6F0RBssszEc9hfmoI8Hz69gv5ntWvr1I+bVV5tk5gN0Q4tOe2FknngyUu6bBJol/wqg0pfKe/EQRhpmMI/CZGnzqfJelwJ2A34Kg8hBt6XHVPJCREUatA6zyEofEyq/5xoNPzO/I6bO1u/6pp9R/YVSKOblZEVdhod0OwpkVlrWpwjIfc8AJzxQSXswozNdpN/dQ+SEn847bMQIRlTdQ6fJrGGMNbpqpHLWxVSYIry5JExnFv2GUTRB1+KwgHZM/ERUVTtMMGdaLjgEyzud96nw8waqZWQWbwigB7PIJ0CaNGXC3RmQ7xlrNUanV3pnJVuK5ZFiNLVF+DWiqyVMFbAhdiv4s9DI+aVYmddP4P4w6ZF69l95rIQ24dPjWMNJotdhc+Bim7FLn8waL5RjFwnMKIVtBhp0DNpeeTZePKlDh4f12jLAmG7XVFgIhIbn8jvYzTFeNLVZ+Dd9gI7lYDZ1AV/IMt3XFSDTWVo//T4zitFGUg/huPqZlADe03P9ju+NiMtv3s8t8Fm/ebjtGWJNtdVXRDlntZB6wTY87sGPl17zlTztp44ya2agLirPdxP9ilAVnjbr7dVXS4Yd06GrSlAYtfv52O8Z+OsDkMG6SGJhzVI0tXn5tW9Bvq/VCRrGILLrBCP4fo+6D1FeJ5bpP1reoRpszP52jaLMdY1+TjS+Ohn4oaXw1tmj5tdXyp8JHU7DL39tRCC4RWGmaC6MKoA+22DkWy7tieEJHmeJScvbaa/1Q5yRwlIiWX9sX9AvnevyDfCGy34RRD+LZZduQupyjbWIPPQ87zzDXamyx8mt2KkpTTfa5evcXcBocRfNSCFhbAWFUCZ5ctw3p6/0KCoxzSsyzn2H6amyx8muYMIKmmmw8aYzPIklm555WRU4uEW/GNu1zCKN6Rcje1ee5j/Dcf5xRfs2949fNnwZpI4VRnWKjYXOHOaf82jnqd978V0Yl1+CpeMT7UUmr8jE6d7Etp/za+S80UOsDM2qb/24zhUmuwS+GiMZouOQYPpRZPBRR39qxNzCjtqwIV1zSa/Deq3yy3eoRSn0v0s5hYEalcbIGP/tJdlIwPDHY3wsG9hiXUbzU4dbqOaDbsPMvsQaPb9j3k/7hn7b7oUv8DAMziv0tvFavbSz3rO0Cxdka/OwDINOevt/Lj+/qvLEZBeFavSFfn31zugZv9NRmDb4C3zLFdxiXUcaFVprJBVtqivG4WIPn2N3aNfj7+FZG/D3GZZTVbetavdtAgDEeV2vw5UEGTfFpQg3MKGV2a/U+qPFqDV5fR3X8ci724XmexbCMsiQJ1urBWehgztbgcTCV+/4JfueV+vI8z2JYRvEmKPYhWIVHVjryC8+IrcGr7DX4n6mmb+u8gRnFG0qioqTFGvyvREn/xdIvMCyjTpXWE2vw9/BxI2oelVGLQjtXHg+swd/C142oeVRGfdVHOAChRmXUM2guyL5ulVsIoyrQWjeOQChhVBXaTsw+P81DCKOq0FKqjEEoYVQl2rHg+34DgjCqE4xCKGFUW4AxmmGK9jgMovJmYVRLgAloVJZQaBxCCaOq4bySsRwbkMmpgQgljKoHpR5IkAJyUlUN4YdyEEbVwybUTNMmlv9zd0Lj9rwLYVQDXHDmnDKDEUoY1QCXeu1MhH10TTsNYVQ1cszqpBwaxg3lIYyqRZ7SitPuTHh9FcKoSuRaQTHuVOeT6xHCqDrka60je6oLZnQJYVQVCoIu93O6ETWehTCqCiVqyxV24QRDQwqoWRhVh7KZGheuwoz1gwqoWRhVhcKNBlSYeJr0pRv9yxBGVaBU0GigWpsjTvE8hFH3UbwXyiZfEEYJkij3d2tbGXGaagtldA1h1H2Uixom1NBCShh1Gzc2AIPh4M4fNKcXCKNu484i78hUYgijbiMdT5D2Xo4XanCAMOo2UozSWk8qcUwYJUgiFXtp4CTl4gjJVy4gjLqLM3IkCzYIowRJnJEjaUgJowRJnJDDJDNXj7ZNIQJh1F2kGWXLJiYOCqMESZwqMJWY7InWEyRxSg4tjBKU4pQcqT0JwihBGinS2JdUfn3xcArSSDBK20IgKeIIowRppNhxlols/KmeMOo+bkazjA5h1H3ciLgbX+kJoypwIyr4F83oDMKo+7izc2F8CKMqUCpyxt32GUAYVYE7O0CHhzCqBmVC51+IKGFUFYqkzv8QUcKoOpRM9/7DRG8WRtUiX5P9E0IJo2qRS5T/4NxECKNqkUepf0MoYVQ9cij1fwgljGqAa1vqHxFKGNUCFzk1R83hGocwqgVOOTNsDtc4hFFtkAzbHDiHaxzCqEaIFtKDf8cnYVRD7MrIAsSqgo4PYVRLcOFrevmPdJqFUb8AFFVRHw3CKEFbCKMEbSGMErSFMErQFsIoQVsIowRtIYwStIUwStAWwihBWwijBG0hjBK0hTBK0BbCKEFbCKMEbfEHh3W7keDfFKQAAAAASUVORK5CYII=;" vertex="1" parent="1">
          <mxGeometry x="268.5" y="820" width="593" height="285" as="geometry" />
        </mxCell>
        <mxCell id="0yc9BrEZYy1KqK9iRJSg-3" value="Le modèle d&#39;usage du véhicule qui permet de comprendre pourquoi p.scatter() est propagé aux véhicules" style="text;html=1;align=center;verticalAlign=middle;resizable=0;points=[];autosize=1;" vertex="1" parent="1">
          <mxGeometry x="280" y="1110" width="570" height="20" as="geometry" />
        </mxCell>
        <mxCell id="0yc9BrEZYy1KqK9iRJSg-4" value="selectComponent() : v1" style="text;html=1;align=center;verticalAlign=middle;resizable=0;points=[];autosize=1;" vertex="1" parent="1">
          <mxGeometry x="268.5" y="522.5" width="140" height="20" as="geometry" />
        </mxCell>
      </root>
    </mxGraphModel>
  </diagram>
</mxfile>
